<svg xmlns="http://www.w3.org/2000/svg" width="239.667" height="180" viewBox="0 0 239.667 180">
    <defs>
        <style>
            .cls-1{fill:#fbf7f7}
        </style>
    </defs>
    <g id="Dashboard_graphic" transform="translate(-785 -448)">
        <g id="chart-line" transform="translate(918 384)">
            <path id="Path_22" d="M103.333 130.667h-90V67.333A3.332 3.332 0 0 0 10 64H3.333A3.332 3.332 0 0 0 0 67.333v70A6.667 6.667 0 0 0 6.667 144h96.667a3.332 3.332 0 0 0 3.333-3.333V134a3.332 3.332 0 0 0-3.334-3.333zm-6.667-60h-24.6a5 5 0 0 0-3.531 8.533l6.75 6.75L60 101.24 44.715 85.954a6.664 6.664 0 0 0-9.427 0l-14.31 14.31a3.333 3.333 0 0 0 0 4.715l4.713 4.713a3.333 3.333 0 0 0 4.715 0l9.6-9.6 15.285 15.285a6.664 6.664 0 0 0 9.427 0l20-20 6.75 6.75A5 5 0 0 0 100 98.594V74a3.329 3.329 0 0 0-3.333-3.333z" class="cls-1" data-name="Path 22"/>
        </g>
        <g id="chart-area" transform="translate(785 484)">
            <path id="Path_23" d="M104.167 130.667a2.507 2.507 0 0 1 2.5 2.5v8.333a2.507 2.507 0 0 1-2.5 2.5H2.5a2.507 2.507 0 0 1-2.5-2.5v-75A2.507 2.507 0 0 1 2.5 64h8.333a2.507 2.507 0 0 1 2.5 2.5v64.167zM77.646 83.9L60 95.667 42.229 71.979a2.5 2.5 0 0 0-4.146.208L20 102.333V124h80L81.271 84.875a2.5 2.5 0 0 0-3.625-.975z" class="cls-1" data-name="Path 23"/>
        </g>
        <g id="chart-bar" transform="translate(785 384)">
            <path id="Path_21" d="M69.333 117.333h8A2.868 2.868 0 0 0 80 114.667v-28A2.868 2.868 0 0 0 77.333 84h-8a2.868 2.868 0 0 0-2.667 2.667v28a2.868 2.868 0 0 0 2.667 2.666zm20 0h8a2.868 2.868 0 0 0 2.667-2.666v-48A2.868 2.868 0 0 0 97.333 64h-8a2.868 2.868 0 0 0-2.667 2.667v48a2.868 2.868 0 0 0 2.667 2.666zm-60 0h8A2.868 2.868 0 0 0 40 114.667V100a2.868 2.868 0 0 0-2.667-2.667h-8A2.868 2.868 0 0 0 26.667 100v14.667a2.868 2.868 0 0 0 2.666 2.666zm20 0h8A2.868 2.868 0 0 0 60 114.667V73.333a2.868 2.868 0 0 0-2.667-2.667h-8a2.868 2.868 0 0 0-2.667 2.667v41.333a2.868 2.868 0 0 0 2.667 2.667zm54 13.333h-90V67.333A3.332 3.332 0 0 0 10 64H3.333A3.332 3.332 0 0 0 0 67.333v70A6.667 6.667 0 0 0 6.667 144h96.667a3.332 3.332 0 0 0 3.333-3.333V134a3.332 3.332 0 0 0-3.334-3.333z" class="cls-1" data-name="Path 21"/>
        </g>
        <g id="chart-bar-2" data-name="chart-bar" transform="translate(918 484)">
            <path id="Path_21-2" d="M69.333 117.333h8A2.868 2.868 0 0 0 80 114.667v-28A2.868 2.868 0 0 0 77.333 84h-8a2.868 2.868 0 0 0-2.667 2.667v28a2.868 2.868 0 0 0 2.667 2.666zm20 0h8a2.868 2.868 0 0 0 2.667-2.666v-48A2.868 2.868 0 0 0 97.333 64h-8a2.868 2.868 0 0 0-2.667 2.667v48a2.868 2.868 0 0 0 2.667 2.666zm-60 0h8A2.868 2.868 0 0 0 40 114.667V100a2.868 2.868 0 0 0-2.667-2.667h-8A2.868 2.868 0 0 0 26.667 100v14.667a2.868 2.868 0 0 0 2.666 2.666zm20 0h8A2.868 2.868 0 0 0 60 114.667V73.333a2.868 2.868 0 0 0-2.667-2.667h-8a2.868 2.868 0 0 0-2.667 2.667v41.333a2.868 2.868 0 0 0 2.667 2.667zm54 13.333h-90V67.333A3.332 3.332 0 0 0 10 64H3.333A3.332 3.332 0 0 0 0 67.333v70A6.667 6.667 0 0 0 6.667 144h96.667a3.332 3.332 0 0 0 3.333-3.333V134a3.332 3.332 0 0 0-3.334-3.333z" class="cls-1" data-name="Path 21"/>
        </g>
    </g>
</svg>
