<svg xmlns="http://www.w3.org/2000/svg" xmlns:xlink="http://www.w3.org/1999/xlink" width="412.745" height="267.376" viewBox="0 0 412.745 267.376">
  <defs>
    <clipPath id="clip-path">
      <rect width="411.245" height="153.903" fill="none"/>
    </clipPath>
  </defs>
  <g id="Group_113" data-name="Group 113" transform="translate(-1407.798 -212.624)">
    <g id="Group_6" data-name="Group 6" transform="translate(1409.298 266.79)">
      <g id="chart_base" data-name="chart base" clip-path="url(#clip-path)">
        <g id="chart_lines" data-name="chart lines" transform="translate(16.183 3.799)">
          <path id="Line_7" data-name="Line 7" d="M0,.488,394.261.365" transform="translate(0.326 131.576)" fill="none" stroke="#c1c1c1" stroke-linecap="round" stroke-miterlimit="10" stroke-width="3"/>
          <path id="Line_105" data-name="Line 105" d="M0,.5H391.3" transform="translate(3.53 65.802)" fill="none" stroke="rgba(0,0,0,0.08)" stroke-linecap="round" stroke-miterlimit="10" stroke-width="3"/>
          <path id="Line_105_Copy" data-name="Line 105 Copy" d="M0,.5H391.3" transform="translate(3.53 32.464)" fill="none" stroke="rgba(0,0,0,0.08)" stroke-linecap="round" stroke-miterlimit="10" stroke-width="3"/>
          <path id="Line_105_Copy_2" data-name="Line 105 Copy 2" d="M0,.5H391.3" transform="translate(3.53 -0.417)" fill="none" stroke="rgba(0,0,0,0.08)" stroke-linecap="round" stroke-miterlimit="10" stroke-width="3"/>
          <path id="Line_103" data-name="Line 103" d="M0,.5H391.3" transform="translate(3.53 98.683)" fill="none" stroke="rgba(0,0,0,0.08)" stroke-linecap="round" stroke-miterlimit="10" stroke-width="3"/>
          <path id="Path_5" data-name="Path 5" d="M0,1H2.946" transform="translate(0 97.991)" fill="none" stroke="#bbb" stroke-linecap="round" stroke-miterlimit="10" stroke-width="3"/>
          <path id="Path_5_Copy" data-name="Path 5 Copy" d="M0,1H2.946" transform="translate(0 65.362)" fill="none" stroke="#bbb" stroke-linecap="round" stroke-miterlimit="10" stroke-width="3"/>
          <path id="Path_5_Copy_2" data-name="Path 5 Copy 2" d="M0,1H2.946" transform="translate(0 32.166)" fill="none" stroke="#bbb" stroke-linecap="round" stroke-miterlimit="10" stroke-width="3"/>
          <path id="Path_4" data-name="Path 4" d="M0,0H2.856V131.876" transform="translate(0.121 0)" fill="none" stroke="#c1c1c1" stroke-linecap="round" stroke-miterlimit="10" stroke-width="3"/>
        </g>
      </g>
      <path id="Path_12" data-name="Path 12" d="M0,0" transform="translate(25.134 120.377)" fill="none" stroke="#979797" stroke-linecap="round" stroke-miterlimit="10" stroke-width="3"/>
      <line id="Line_71" data-name="Line 71" x2="10.936" transform="translate(0 136.012)" fill="none" stroke="#cecdce" stroke-linecap="round" stroke-width="3"/>
      <line id="Line_72" data-name="Line 72" x2="10.936" transform="translate(0 103.205)" fill="none" stroke="#cecdce" stroke-linecap="round" stroke-width="3"/>
      <line id="Line_73" data-name="Line 73" x2="10.936" transform="translate(0 70.398)" fill="none" stroke="#cecdce" stroke-linecap="round" stroke-width="3"/>
      <line id="Line_74" data-name="Line 74" x2="10.936" transform="translate(0 37.591)" fill="none" stroke="#cecdce" stroke-linecap="round" stroke-width="3"/>
      <line id="Line_75" data-name="Line 75" x2="10.936" transform="translate(0 3.417)" fill="none" stroke="#cecdce" stroke-linecap="round" stroke-width="3"/>
    </g>
    <circle id="Ellipse_310" data-name="Ellipse 310" cx="14.5" cy="14.5" r="14.5" transform="translate(1409 451)"/>
    <path id="Path_421" data-name="Path 421" d="M10.972-13.91a2.889,2.889,0,0,0-1.339-.923,4.8,4.8,0,0,0-1.6-.3,4.19,4.19,0,0,0-.91.1,3.488,3.488,0,0,0-.884.325,1.927,1.927,0,0,0-.676.585,1.481,1.481,0,0,0-.26.884,1.465,1.465,0,0,0,.624,1.274,5.909,5.909,0,0,0,1.573.754q.949.312,2.041.624a8.41,8.41,0,0,1,2.041.884,4.832,4.832,0,0,1,1.573,1.534A4.675,4.675,0,0,1,13.78-5.59a5.918,5.918,0,0,1-.572,2.678,5.434,5.434,0,0,1-1.547,1.9A6.583,6.583,0,0,1,9.4.1,9.938,9.938,0,0,1,6.682.468,9.857,9.857,0,0,1,3.354-.078,8.34,8.34,0,0,1,.494-1.846L3.38-5.018A4.213,4.213,0,0,0,4.953-3.731a4.49,4.49,0,0,0,1.963.455,4.441,4.441,0,0,0,1-.117,3.261,3.261,0,0,0,.91-.351,1.962,1.962,0,0,0,.65-.6A1.491,1.491,0,0,0,9.724-5.2a1.557,1.557,0,0,0-.637-1.313,5.871,5.871,0,0,0-1.6-.819q-.962-.338-2.08-.676a9.341,9.341,0,0,1-2.08-.91,5.013,5.013,0,0,1-1.6-1.508,4.315,4.315,0,0,1-.637-2.47,5.53,5.53,0,0,1,.585-2.6,5.641,5.641,0,0,1,1.56-1.872A6.782,6.782,0,0,1,5.486-18.5a9.206,9.206,0,0,1,2.626-.377,10.325,10.325,0,0,1,3.016.442,6.956,6.956,0,0,1,2.626,1.482Zm5.824-4.5h6.838a13.505,13.505,0,0,1,2.7.26,6.149,6.149,0,0,1,2.223.9,4.534,4.534,0,0,1,1.508,1.716,5.875,5.875,0,0,1,.559,2.717,6.269,6.269,0,0,1-.52,2.7,4.436,4.436,0,0,1-1.43,1.742,5.8,5.8,0,0,1-2.158.923,12.648,12.648,0,0,1-2.7.273H20.852V0H16.8Zm4.056,7.8h2.7a5.228,5.228,0,0,0,1.053-.1,2.8,2.8,0,0,0,.91-.351,1.873,1.873,0,0,0,.65-.676,2.137,2.137,0,0,0,.247-1.079,1.825,1.825,0,0,0-.325-1.131,2.161,2.161,0,0,0-.832-.663,3.561,3.561,0,0,0-1.131-.3,11.556,11.556,0,0,0-1.2-.065h-2.08Zm12.48-7.8H45.838v3.744h-8.45v3.432H45.37v3.744H37.388v3.744h8.918V0H33.332Zm16.224,0h5.512L62.894-5.616h.052V-18.408H67V0H61.7L53.664-13.1h-.052V0H49.556Zm21.19,0H76.83a17.365,17.365,0,0,1,4.2.494,9.609,9.609,0,0,1,3.471,1.6,7.833,7.833,0,0,1,2.353,2.873,9.634,9.634,0,0,1,.871,4.29,8.753,8.753,0,0,1-.845,3.939A8.47,8.47,0,0,1,84.6-2.353,10.058,10.058,0,0,1,81.3-.6a12.823,12.823,0,0,1-3.926.6h-6.63ZM74.8-3.744h2.106a11.335,11.335,0,0,0,2.613-.286,5.584,5.584,0,0,0,2.093-.949,4.551,4.551,0,0,0,1.391-1.742,6.178,6.178,0,0,0,.507-2.639,5.145,5.145,0,0,0-.507-2.353,4.7,4.7,0,0,0-1.365-1.651,5.974,5.974,0,0,0-2.015-.975,8.948,8.948,0,0,0-2.431-.325H74.8Z" transform="translate(1410 231.5)" fill="#555"/>
    <rect id="Rectangle_1028" data-name="Rectangle 1028" width="75" height="108" transform="translate(1706 293.5)" fill="#e87700"/>
    <rect id="Rectangle_1029" data-name="Rectangle 1029" width="75" height="124" transform="translate(1588 277.5)" fill="#26836d"/>
    <rect id="Rectangle_1030" data-name="Rectangle 1030" width="75" height="58" transform="translate(1470 343.5)"/>
    <path id="Path_422" data-name="Path 422" d="M1.659-14.868h5a10.016,10.016,0,0,1,2.069.21,5.1,5.1,0,0,1,1.753.7,3.61,3.61,0,0,1,1.208,1.323,4.286,4.286,0,0,1,.451,2.068A4.621,4.621,0,0,1,11.655-8.3a3.457,3.457,0,0,1-1.3,1.334,5.439,5.439,0,0,1-1.9.64,14.7,14.7,0,0,1-2.258.168H4.3V0H1.659ZM5.9-8.421q.567,0,1.176-.042A3.612,3.612,0,0,0,8.2-8.715a1.994,1.994,0,0,0,.84-.63,1.88,1.88,0,0,0,.326-1.176,1.854,1.854,0,0,0-.294-1.1,1.947,1.947,0,0,0-.756-.63,3.189,3.189,0,0,0-1.029-.283A9.9,9.9,0,0,0,6.195-12.6H4.3v4.179Zm7.791,1.05a8.61,8.61,0,0,1,.588-3.245A7.28,7.28,0,0,1,15.908-13.1a7.134,7.134,0,0,1,2.478-1.586,8.69,8.69,0,0,1,3.161-.556,8.833,8.833,0,0,1,3.192.515,6.976,6.976,0,0,1,2.5,1.564,7.226,7.226,0,0,1,1.638,2.478,8.529,8.529,0,0,1,.588,3.234,8.254,8.254,0,0,1-.588,3.171,7.272,7.272,0,0,1-1.638,2.457,7.482,7.482,0,0,1-2.5,1.606,8.84,8.84,0,0,1-3.192.6,8.69,8.69,0,0,1-3.161-.557,7.211,7.211,0,0,1-2.478-1.575A7.236,7.236,0,0,1,14.28-4.2,8.254,8.254,0,0,1,13.692-7.371Zm2.772-.168a6.393,6.393,0,0,0,.368,2.2,5.179,5.179,0,0,0,1.039,1.743,4.837,4.837,0,0,0,1.607,1.155,5.041,5.041,0,0,0,2.09.42,5.114,5.114,0,0,0,2.1-.42,4.809,4.809,0,0,0,1.617-1.155,5.179,5.179,0,0,0,1.039-1.743,6.393,6.393,0,0,0,.368-2.2,5.8,5.8,0,0,0-.368-2.079,5.151,5.151,0,0,0-1.039-1.691,4.755,4.755,0,0,0-1.617-1.134,5.228,5.228,0,0,0-2.1-.41,5.153,5.153,0,0,0-2.09.41,4.781,4.781,0,0,0-1.607,1.134,5.151,5.151,0,0,0-1.039,1.691A5.8,5.8,0,0,0,16.464-7.539Zm15.519-7.329h5.166a10.524,10.524,0,0,1,2.069.2,5.3,5.3,0,0,1,1.775.682,3.57,3.57,0,0,1,1.239,1.3,4.193,4.193,0,0,1,.462,2.079A4.14,4.14,0,0,1,41.8-7.9a3.828,3.828,0,0,1-2.551,1.323L43.2,0H40L36.561-6.3H34.629V0H31.983Zm4.7,6.3q.567,0,1.134-.052a3.482,3.482,0,0,0,1.04-.252,1.774,1.774,0,0,0,.766-.609,1.936,1.936,0,0,0,.294-1.144,1.826,1.826,0,0,0-.273-1.05,1.7,1.7,0,0,0-.714-.6,3.287,3.287,0,0,0-.976-.262,8.9,8.9,0,0,0-1.04-.063H34.629v4.032ZM47.88-12.474H43.323v-2.394h11.76v2.394H50.526V0H47.88Zm9.009-2.394h9.6v2.394H59.535v3.906h6.552v2.394H59.535V0H56.889Zm11.256,7.5a8.61,8.61,0,0,1,.588-3.245A7.28,7.28,0,0,1,70.36-13.1a7.134,7.134,0,0,1,2.478-1.586A8.69,8.69,0,0,1,76-15.246a8.833,8.833,0,0,1,3.192.515,6.976,6.976,0,0,1,2.5,1.564,7.225,7.225,0,0,1,1.638,2.478,8.529,8.529,0,0,1,.588,3.234,8.254,8.254,0,0,1-.588,3.171A7.272,7.272,0,0,1,81.69-1.827a7.482,7.482,0,0,1-2.5,1.606A8.84,8.84,0,0,1,76,.378a8.69,8.69,0,0,1-3.16-.557A7.211,7.211,0,0,1,70.36-1.753,7.236,7.236,0,0,1,68.733-4.2,8.254,8.254,0,0,1,68.145-7.371Zm2.772-.168a6.393,6.393,0,0,0,.368,2.2,5.179,5.179,0,0,0,1.039,1.743A4.837,4.837,0,0,0,73.93-2.436a5.041,5.041,0,0,0,2.09.42,5.114,5.114,0,0,0,2.1-.42,4.809,4.809,0,0,0,1.617-1.155,5.179,5.179,0,0,0,1.039-1.743,6.393,6.393,0,0,0,.368-2.2,5.8,5.8,0,0,0-.368-2.079,5.151,5.151,0,0,0-1.039-1.691,4.755,4.755,0,0,0-1.617-1.134,5.228,5.228,0,0,0-2.1-.41,5.153,5.153,0,0,0-2.09.41,4.781,4.781,0,0,0-1.606,1.134,5.15,5.15,0,0,0-1.039,1.691A5.8,5.8,0,0,0,70.917-7.539Zm15.519-7.329h2.646V-2.394H95.4V0H86.436Zm10.836,0h2.646V0H97.272Zm5.1,7.5a8.61,8.61,0,0,1,.588-3.245A7.28,7.28,0,0,1,104.59-13.1a7.134,7.134,0,0,1,2.478-1.586,8.69,8.69,0,0,1,3.161-.556,8.833,8.833,0,0,1,3.192.515,6.976,6.976,0,0,1,2.5,1.564,7.225,7.225,0,0,1,1.638,2.478,8.529,8.529,0,0,1,.588,3.234,8.254,8.254,0,0,1-.588,3.171,7.272,7.272,0,0,1-1.638,2.457,7.482,7.482,0,0,1-2.5,1.606,8.84,8.84,0,0,1-3.192.6,8.69,8.69,0,0,1-3.161-.557,7.211,7.211,0,0,1-2.478-1.575A7.236,7.236,0,0,1,102.963-4.2,8.254,8.254,0,0,1,102.375-7.371Zm2.772-.168a6.393,6.393,0,0,0,.368,2.2,5.179,5.179,0,0,0,1.039,1.743,4.837,4.837,0,0,0,1.606,1.155,5.041,5.041,0,0,0,2.09.42,5.114,5.114,0,0,0,2.1-.42,4.809,4.809,0,0,0,1.617-1.155,5.179,5.179,0,0,0,1.039-1.743,6.393,6.393,0,0,0,.368-2.2,5.8,5.8,0,0,0-.368-2.079,5.151,5.151,0,0,0-1.039-1.691,4.755,4.755,0,0,0-1.617-1.134,5.228,5.228,0,0,0-2.1-.41,5.153,5.153,0,0,0-2.09.41,4.781,4.781,0,0,0-1.606,1.134,5.151,5.151,0,0,0-1.039,1.691A5.8,5.8,0,0,0,105.147-7.539Z" transform="translate(1452 472)" fill="#555"/>
    <circle id="Ellipse_344" data-name="Ellipse 344" cx="14.5" cy="14.5" r="14.5" transform="translate(1581 451)" fill="#26836d"/>
    <path id="Path_423" data-name="Path 423" d="M1.659-14.868h5a10.016,10.016,0,0,1,2.069.21,5.1,5.1,0,0,1,1.753.7,3.61,3.61,0,0,1,1.208,1.323,4.286,4.286,0,0,1,.451,2.068A4.621,4.621,0,0,1,11.655-8.3a3.457,3.457,0,0,1-1.3,1.334,5.439,5.439,0,0,1-1.9.64,14.7,14.7,0,0,1-2.258.168H4.3V0H1.659ZM5.9-8.421q.567,0,1.176-.042A3.612,3.612,0,0,0,8.2-8.715a1.994,1.994,0,0,0,.84-.63,1.88,1.88,0,0,0,.326-1.176,1.854,1.854,0,0,0-.294-1.1,1.947,1.947,0,0,0-.756-.63,3.189,3.189,0,0,0-1.029-.283A9.9,9.9,0,0,0,6.195-12.6H4.3v4.179Zm8.589-6.447h9.849v2.394h-7.2V-8.82h6.825v2.394H17.136v4.032h7.581V0H14.49Zm12.831,0H37.17v2.394h-7.2V-8.82h6.825v2.394H29.967v4.032h7.581V0H27.321Zm12.831,0h5.166a10.524,10.524,0,0,1,2.069.2,5.3,5.3,0,0,1,1.774.682,3.57,3.57,0,0,1,1.239,1.3,4.193,4.193,0,0,1,.462,2.079A4.14,4.14,0,0,1,49.97-7.9a3.828,3.828,0,0,1-2.552,1.323L51.366,0H48.174L44.73-6.3H42.8V0H40.152Zm4.7,6.3q.567,0,1.134-.052a3.482,3.482,0,0,0,1.04-.252,1.774,1.774,0,0,0,.766-.609,1.935,1.935,0,0,0,.294-1.144,1.826,1.826,0,0,0-.273-1.05,1.7,1.7,0,0,0-.714-.6,3.287,3.287,0,0,0-.977-.262,8.9,8.9,0,0,0-1.039-.063H42.8v4.032Z" transform="translate(1624 472)" fill="#555"/>
    <circle id="Ellipse_345" data-name="Ellipse 345" cx="14.5" cy="14.5" r="14.5" transform="translate(1686 451)" fill="#e87700"/>
    <path id="Path_424" data-name="Path 424" d="M1.659-14.868H6.825a10.524,10.524,0,0,1,2.069.2,5.3,5.3,0,0,1,1.774.682,3.57,3.57,0,0,1,1.239,1.3,4.193,4.193,0,0,1,.462,2.079A4.14,4.14,0,0,1,11.477-7.9,3.828,3.828,0,0,1,8.925-6.573L12.873,0H9.681L6.237-6.3H4.3V0H1.659Zm4.7,6.3q.567,0,1.134-.052a3.482,3.482,0,0,0,1.04-.252A1.774,1.774,0,0,0,9.3-9.481,1.936,1.936,0,0,0,9.6-10.626a1.826,1.826,0,0,0-.273-1.05,1.7,1.7,0,0,0-.714-.6,3.287,3.287,0,0,0-.976-.262A8.9,8.9,0,0,0,6.594-12.6H4.3v4.032Zm8.526-6.3h9.849v2.394h-7.2V-8.82H24.36v2.394H17.535v4.032h7.581V0H14.889ZM40.929-1.092A12.847,12.847,0,0,1,34.776.378a8.69,8.69,0,0,1-3.16-.557,7.211,7.211,0,0,1-2.478-1.575A7.236,7.236,0,0,1,27.51-4.2a8.254,8.254,0,0,1-.588-3.171,8.61,8.61,0,0,1,.588-3.245A7.28,7.28,0,0,1,29.138-13.1a7.134,7.134,0,0,1,2.478-1.586,8.69,8.69,0,0,1,3.16-.556,12.009,12.009,0,0,1,3.192.41,6.57,6.57,0,0,1,2.667,1.459L38.682-11.4a4.9,4.9,0,0,0-1.732-1.071,6.136,6.136,0,0,0-2.153-.378,5.153,5.153,0,0,0-2.09.41A4.781,4.781,0,0,0,31.1-11.309a5.151,5.151,0,0,0-1.04,1.691,5.8,5.8,0,0,0-.368,2.079,6.393,6.393,0,0,0,.368,2.2A5.179,5.179,0,0,0,31.1-3.591a4.837,4.837,0,0,0,1.606,1.155,5.041,5.041,0,0,0,2.09.42A9.161,9.161,0,0,0,36.7-2.2a5.4,5.4,0,0,0,1.585-.588V-6.3H35.238V-8.694h5.691Zm3.066-13.776h2.646V0H43.995Zm5.1,7.5a8.61,8.61,0,0,1,.588-3.245A7.28,7.28,0,0,1,51.313-13.1a7.134,7.134,0,0,1,2.478-1.586,8.69,8.69,0,0,1,3.16-.556,8.833,8.833,0,0,1,3.192.515,6.976,6.976,0,0,1,2.5,1.564,7.225,7.225,0,0,1,1.638,2.478,8.529,8.529,0,0,1,.588,3.234,8.254,8.254,0,0,1-.588,3.171,7.272,7.272,0,0,1-1.638,2.457,7.483,7.483,0,0,1-2.5,1.606,8.84,8.84,0,0,1-3.192.6,8.69,8.69,0,0,1-3.16-.557,7.211,7.211,0,0,1-2.478-1.575A7.236,7.236,0,0,1,49.686-4.2,8.254,8.254,0,0,1,49.1-7.371Zm2.772-.168a6.393,6.393,0,0,0,.368,2.2,5.179,5.179,0,0,0,1.04,1.743,4.837,4.837,0,0,0,1.606,1.155,5.041,5.041,0,0,0,2.09.42,5.114,5.114,0,0,0,2.1-.42A4.809,4.809,0,0,0,60.69-3.591a5.179,5.179,0,0,0,1.04-1.743,6.393,6.393,0,0,0,.368-2.2,5.8,5.8,0,0,0-.368-2.079,5.151,5.151,0,0,0-1.04-1.691,4.755,4.755,0,0,0-1.617-1.134,5.228,5.228,0,0,0-2.1-.41,5.153,5.153,0,0,0-2.09.41,4.781,4.781,0,0,0-1.606,1.134,5.151,5.151,0,0,0-1.04,1.691A5.8,5.8,0,0,0,51.87-7.539Zm15.519-7.329H70.9L78.1-3.822h.042V-14.868h2.646V0h-3.36l-7.35-11.4h-.042V0H67.389Z" transform="translate(1729 472)" fill="#555"/>
  </g>
</svg>
