<svg xmlns="http://www.w3.org/2000/svg" xmlns:xlink="http://www.w3.org/1999/xlink" width="415.667" height="266.876" viewBox="0 0 415.667 266.876">
  <defs>
    <clipPath id="clip-path">
      <rect width="411.245" height="153.903" fill="none"/>
    </clipPath>
  </defs>
  <g id="Benchmarking_Premium_ISS_ACQ" data-name="Benchmarking_Premium_ISS/ACQ" transform="translate(-136.798 -532.516)">
    <g id="Group_6" data-name="Group 6" transform="translate(138.298 586.182)">
      <g id="chart_base" data-name="chart base" clip-path="url(#clip-path)">
        <g id="chart_lines" data-name="chart lines" transform="translate(16.183 3.799)">
          <path id="Line_7" data-name="Line 7" d="M0,.488,394.261.365" transform="translate(0.326 131.576)" fill="none" stroke="#c1c1c1" stroke-linecap="round" stroke-miterlimit="10" stroke-width="3"/>
          <path id="Line_105" data-name="Line 105" d="M0,.5H391.3" transform="translate(3.53 65.802)" fill="none" stroke="rgba(0,0,0,0.08)" stroke-linecap="round" stroke-miterlimit="10" stroke-width="3"/>
          <path id="Line_105_Copy" data-name="Line 105 Copy" d="M0,.5H391.3" transform="translate(3.53 32.464)" fill="none" stroke="rgba(0,0,0,0.08)" stroke-linecap="round" stroke-miterlimit="10" stroke-width="3"/>
          <path id="Line_105_Copy_2" data-name="Line 105 Copy 2" d="M0,.5H391.3" transform="translate(3.53 -0.417)" fill="none" stroke="rgba(0,0,0,0.08)" stroke-linecap="round" stroke-miterlimit="10" stroke-width="3"/>
          <path id="Line_103" data-name="Line 103" d="M0,.5H391.3" transform="translate(3.53 98.683)" fill="none" stroke="rgba(0,0,0,0.08)" stroke-linecap="round" stroke-miterlimit="10" stroke-width="3"/>
          <path id="Path_5" data-name="Path 5" d="M0,1H2.946" transform="translate(0 97.991)" fill="none" stroke="#bbb" stroke-linecap="round" stroke-miterlimit="10" stroke-width="3"/>
          <path id="Path_5_Copy" data-name="Path 5 Copy" d="M0,1H2.946" transform="translate(0 65.362)" fill="none" stroke="#bbb" stroke-linecap="round" stroke-miterlimit="10" stroke-width="3"/>
          <path id="Path_5_Copy_2" data-name="Path 5 Copy 2" d="M0,1H2.946" transform="translate(0 32.166)" fill="none" stroke="#bbb" stroke-linecap="round" stroke-miterlimit="10" stroke-width="3"/>
          <path id="Path_4" data-name="Path 4" d="M0,0H2.856V131.876" transform="translate(0.121 0)" fill="none" stroke="#c1c1c1" stroke-linecap="round" stroke-miterlimit="10" stroke-width="3"/>
        </g>
      </g>
      <path id="Path_12" data-name="Path 12" d="M0,0" transform="translate(25.134 120.377)" fill="none" stroke="#979797" stroke-linecap="round" stroke-miterlimit="10" stroke-width="3"/>
      <line id="Line_66" data-name="Line 66" x2="35.541" transform="translate(41.008 149.681)" fill="none" stroke="#cecdce" stroke-linecap="round" stroke-width="3"/>
      <line id="Line_67" data-name="Line 67" x2="35.541" transform="translate(118.925 149.681)" fill="none" stroke="#cecdce" stroke-linecap="round" stroke-width="3"/>
      <line id="Line_68" data-name="Line 68" x2="35.541" transform="translate(196.841 149.681)" fill="none" stroke="#cecdce" stroke-linecap="round" stroke-width="3"/>
      <line id="Line_69" data-name="Line 69" x2="35.541" transform="translate(273.39 149.681)" fill="none" stroke="#cecdce" stroke-linecap="round" stroke-width="3"/>
      <line id="Line_70" data-name="Line 70" x2="35.541" transform="translate(351.306 149.681)" fill="none" stroke="#cecdce" stroke-linecap="round" stroke-width="3"/>
      <line id="Line_71" data-name="Line 71" x2="10.936" transform="translate(0 136.012)" fill="none" stroke="#cecdce" stroke-linecap="round" stroke-width="3"/>
      <line id="Line_72" data-name="Line 72" x2="10.936" transform="translate(0 103.205)" fill="none" stroke="#cecdce" stroke-linecap="round" stroke-width="3"/>
      <line id="Line_73" data-name="Line 73" x2="10.936" transform="translate(0 70.398)" fill="none" stroke="#cecdce" stroke-linecap="round" stroke-width="3"/>
      <line id="Line_74" data-name="Line 74" x2="10.936" transform="translate(0 37.591)" fill="none" stroke="#cecdce" stroke-linecap="round" stroke-width="3"/>
      <line id="Line_75" data-name="Line 75" x2="10.936" transform="translate(0 3.417)" fill="none" stroke="#cecdce" stroke-linecap="round" stroke-width="3"/>
    </g>
    <path id="Path_358" data-name="Path 358" d="M15438.814-3586.281l35.943-32.784h153.73l76.375,67.157,80.514-67.157h41.5" transform="translate(-15279.586 4242.065)" fill="none" stroke="#26836d" stroke-linecap="round" stroke-width="5"/>
    <circle id="Ellipse_310" data-name="Ellipse 310" cx="14.5" cy="14.5" r="14.5" transform="translate(143 770.392)" fill="#e87700"/>
    <path id="Path_394" data-name="Path 394" d="M1.722-14.868H5.754L9.723-4.452l4.011-10.416h3.99V0H15.2V-12.348h-.042L10.647,0H8.8L4.284-12.348H4.242V0H1.722Zm19.383,0h9.849v2.394h-7.2V-8.82h6.825v2.394H23.751v4.032h7.581V0H21.1Z" transform="translate(186 791.392)" fill="#555"/>
    <circle id="Ellipse_311" data-name="Ellipse 311" cx="14.5" cy="14.5" r="14.5" transform="translate(238 770.392)" fill="#26836d"/>
    <path id="Path_395" data-name="Path 395" d="M0-14.868H2.9L5.691-4.158h.042l3.339-10.71h2.6l3.276,10.71h.042l2.919-10.71H20.6L16.275,0h-2.52L10.311-11.319h-.042L6.825,0H4.389Zm21.462,7.5a8.61,8.61,0,0,1,.588-3.245A7.28,7.28,0,0,1,23.677-13.1a7.134,7.134,0,0,1,2.478-1.586,8.69,8.69,0,0,1,3.161-.556,8.833,8.833,0,0,1,3.192.515,6.976,6.976,0,0,1,2.5,1.564,7.226,7.226,0,0,1,1.638,2.478,8.529,8.529,0,0,1,.588,3.234,8.254,8.254,0,0,1-.588,3.171,7.272,7.272,0,0,1-1.638,2.457,7.483,7.483,0,0,1-2.5,1.606,8.84,8.84,0,0,1-3.192.6,8.69,8.69,0,0,1-3.161-.557,7.211,7.211,0,0,1-2.478-1.575A7.236,7.236,0,0,1,22.05-4.2,8.254,8.254,0,0,1,21.462-7.371Zm2.772-.168a6.393,6.393,0,0,0,.368,2.2,5.179,5.179,0,0,0,1.039,1.743,4.837,4.837,0,0,0,1.607,1.155,5.041,5.041,0,0,0,2.09.42,5.114,5.114,0,0,0,2.1-.42,4.809,4.809,0,0,0,1.617-1.155,5.179,5.179,0,0,0,1.039-1.743,6.393,6.393,0,0,0,.368-2.2,5.8,5.8,0,0,0-.368-2.079,5.151,5.151,0,0,0-1.039-1.691,4.755,4.755,0,0,0-1.617-1.134,5.228,5.228,0,0,0-2.1-.41,5.153,5.153,0,0,0-2.09.41,4.781,4.781,0,0,0-1.607,1.134A5.151,5.151,0,0,0,24.6-9.618,5.8,5.8,0,0,0,24.234-7.539Zm15.519-7.329h5.166a10.524,10.524,0,0,1,2.069.2,5.3,5.3,0,0,1,1.774.682A3.57,3.57,0,0,1,50-12.684a4.193,4.193,0,0,1,.462,2.079A4.14,4.14,0,0,1,49.571-7.9a3.828,3.828,0,0,1-2.552,1.323L50.967,0H47.775L44.331-6.3H42.4V0H39.753Zm4.7,6.3q.567,0,1.134-.052a3.482,3.482,0,0,0,1.039-.252,1.774,1.774,0,0,0,.767-.609,1.936,1.936,0,0,0,.294-1.144,1.826,1.826,0,0,0-.273-1.05,1.7,1.7,0,0,0-.714-.6,3.287,3.287,0,0,0-.977-.262,8.9,8.9,0,0,0-1.039-.063H42.4v4.032Zm8.526-6.3h2.646V-2.394H61.95V0H52.983Zm10.9,0h5.859a8.969,8.969,0,0,1,2.835.451,6.888,6.888,0,0,1,2.415,1.376,6.721,6.721,0,0,1,1.68,2.32,7.934,7.934,0,0,1,.63,3.286,7.094,7.094,0,0,1-.725,3.307,7.08,7.08,0,0,1-1.869,2.31A7.971,7.971,0,0,1,72.167-.452,8.877,8.877,0,0,1,69.426,0H63.882ZM68.5-2.394a9.372,9.372,0,0,0,2.341-.283,5.57,5.57,0,0,0,1.922-.882,4.188,4.188,0,0,0,1.292-1.554,5.2,5.2,0,0,0,.472-2.321,5.77,5.77,0,0,0-.42-2.31,4.017,4.017,0,0,0-1.166-1.565,4.863,4.863,0,0,0-1.764-.882,8.323,8.323,0,0,0-2.236-.283H66.528v10.08Z" transform="translate(280 791.392)" fill="#555"/>
    <circle id="Ellipse_313" data-name="Ellipse 313" cx="14.5" cy="14.5" r="14.5" transform="translate(378 770.392)" fill="#ffc61e"/>
    <path id="Path_360" data-name="Path 360" d="M15437.964-3542.84l36.7-34.21L15551.26-3610h77.539l75.252,32.947,81.5,34.21,43.293-34.21" transform="translate(-15279.895 4266.998)" fill="none" stroke="#ffc61e" stroke-linecap="round" stroke-width="5"/>
    <path id="Path_357" data-name="Path 357" d="M15437.964-3542.84l36.7-34.21,75.912,34.21L15628.8-3610l79.929-33.78,75.161,100.937,44.959-34.21" transform="translate(-15279.895 4232.998)" fill="none" stroke="#e87700" stroke-linecap="round" stroke-width="5"/>
    <path id="Path_463" data-name="Path 463" d="M1.872-18.408H8.71a13.505,13.505,0,0,1,2.7.26,6.149,6.149,0,0,1,2.223.9,4.534,4.534,0,0,1,1.508,1.716,5.875,5.875,0,0,1,.559,2.717,6.269,6.269,0,0,1-.52,2.7,4.436,4.436,0,0,1-1.43,1.742,5.8,5.8,0,0,1-2.158.923,12.648,12.648,0,0,1-2.7.273H5.928V0H1.872Zm4.056,7.8h2.7a5.228,5.228,0,0,0,1.053-.1,2.8,2.8,0,0,0,.91-.351,1.873,1.873,0,0,0,.65-.676,2.137,2.137,0,0,0,.247-1.079,1.825,1.825,0,0,0-.325-1.131,2.161,2.161,0,0,0-.832-.663,3.561,3.561,0,0,0-1.131-.3,11.556,11.556,0,0,0-1.2-.065H5.928Zm12.48-7.8H30.914v3.744h-8.45v3.432h7.982v3.744H22.464v3.744h8.918V0H18.408Zm16.38,0H47.294v3.744h-8.45v3.432h7.982v3.744H38.844v3.744h8.918V0H34.788Zm16.224,0h7.124a12.57,12.57,0,0,1,2.665.273,6.323,6.323,0,0,1,2.21.91,4.534,4.534,0,0,1,1.508,1.716,5.811,5.811,0,0,1,.559,2.691A5.4,5.4,0,0,1,64.064-9.5,4.565,4.565,0,0,1,61.1-7.774L65.78,0H60.918L57.07-7.358h-2V0H51.012Zm4.056,7.618H57.46q.546,0,1.157-.039a3.624,3.624,0,0,0,1.105-.234,1.911,1.911,0,0,0,.819-.611,1.86,1.86,0,0,0,.325-1.17,1.943,1.943,0,0,0-.286-1.118,1.907,1.907,0,0,0-.728-.637,3.23,3.23,0,0,0-1.014-.3,8.271,8.271,0,0,0-1.118-.078H55.068Zm20.488-7.618H82.42a17.354,17.354,0,0,1,2.4.169A6.569,6.569,0,0,1,87-17.563a4.157,4.157,0,0,1,1.56,1.417,4.343,4.343,0,0,1,.6,2.418,3.861,3.861,0,0,1-.871,2.587,4.789,4.789,0,0,1-2.3,1.469v.052a5.252,5.252,0,0,1,1.651.507,4.41,4.41,0,0,1,1.274.962,4.1,4.1,0,0,1,.819,1.365,4.8,4.8,0,0,1,.286,1.664,4.425,4.425,0,0,1-.624,2.431,4.906,4.906,0,0,1-1.612,1.573,7.069,7.069,0,0,1-2.223.858A11.9,11.9,0,0,1,83.1,0h-7.54Zm4.056,7.358H82.55a4.129,4.129,0,0,0,.923-.1,2.553,2.553,0,0,0,.819-.338,1.76,1.76,0,0,0,.585-.624,1.869,1.869,0,0,0,.221-.936A1.7,1.7,0,0,0,84.851-14a1.718,1.718,0,0,0-.637-.585,3.035,3.035,0,0,0-.884-.3,5.306,5.306,0,0,0-.962-.091H79.612Zm0,7.618h3.64a4.481,4.481,0,0,0,.949-.1,2.511,2.511,0,0,0,.871-.364,2.07,2.07,0,0,0,.637-.676,1.953,1.953,0,0,0,.247-1.014,1.626,1.626,0,0,0-.325-1.053,2.06,2.06,0,0,0-.819-.611,4.2,4.2,0,0,0-1.066-.286,7.92,7.92,0,0,0-1.066-.078H79.612ZM92.56-18.408h12.506v3.744h-8.45v3.432H104.6v3.744H96.616v3.744h8.918V0H92.56Zm16.224,0H114.3l7.826,12.792h.052V-18.408h4.056V0h-5.3l-8.034-13.1h-.052V0h-4.056Zm33.228,4.784a3.978,3.978,0,0,0-1.469-1.118,4.888,4.888,0,0,0-2.015-.39,5.071,5.071,0,0,0-2.119.442,5.07,5.07,0,0,0-1.69,1.235A5.756,5.756,0,0,0,133.6-11.57a6.782,6.782,0,0,0-.4,2.366,6.752,6.752,0,0,0,.4,2.379,5.912,5.912,0,0,0,1.105,1.872,5.008,5.008,0,0,0,1.651,1.235,4.774,4.774,0,0,0,2.041.442,4.574,4.574,0,0,0,2.21-.52,4.4,4.4,0,0,0,1.586-1.456l3.38,2.522A7.039,7.039,0,0,1,142.61-.312a9.171,9.171,0,0,1-3.692.78,11.341,11.341,0,0,1-3.978-.676,9.106,9.106,0,0,1-3.146-1.937A8.782,8.782,0,0,1,129.727-5.2a10.4,10.4,0,0,1-.741-4,10.4,10.4,0,0,1,.741-4,8.782,8.782,0,0,1,2.067-3.055A9.106,9.106,0,0,1,134.94-18.2a11.341,11.341,0,0,1,3.978-.676,9.741,9.741,0,0,1,1.625.143,8.78,8.78,0,0,1,1.664.455,7.415,7.415,0,0,1,1.573.832,6.256,6.256,0,0,1,1.352,1.274Zm5.772-4.784h4.056v6.864h7.878v-6.864h4.056V0h-4.056V-7.956H151.84V0h-4.056Zm19.734,0h6.136L177.892-6.4h.052l4.264-12.012h6.11V0h-4.056V-14.118h-.052L179.374,0H176.28l-4.654-14.118h-.052V0h-4.056Zm30.6,0h3.354L209.482,0h-4.576L203.32-3.9h-7.15L194.636,0h-4.472Zm1.56,5.356-2.236,5.72h4.5Zm11.648-5.356h7.124a12.57,12.57,0,0,1,2.665.273,6.323,6.323,0,0,1,2.21.91,4.534,4.534,0,0,1,1.508,1.716,5.811,5.811,0,0,1,.559,2.691A5.4,5.4,0,0,1,224.38-9.5a4.565,4.565,0,0,1-2.964,1.729L226.1,0h-4.862l-3.848-7.358h-2V0h-4.056Zm4.056,7.618h2.392q.546,0,1.157-.039a3.624,3.624,0,0,0,1.1-.234,1.911,1.911,0,0,0,.819-.611,1.86,1.86,0,0,0,.325-1.17,1.943,1.943,0,0,0-.286-1.118,1.907,1.907,0,0,0-.728-.637,3.23,3.23,0,0,0-1.014-.3,8.271,8.271,0,0,0-1.118-.078h-2.652Zm12.948-7.618h4.056v7.644l7.15-7.644h5.3l-8.19,8.554L245.544,0h-5.668l-7.488-8.736V0h-4.056Zm18.564,0h4.056V0H246.9Zm7.748,0h5.512l7.826,12.792h.052V-18.408h4.056V0h-5.3l-8.034-13.1H258.7V0h-4.056ZM292.5-1.3A14.683,14.683,0,0,1,288.756.052a19.013,19.013,0,0,1-3.978.416A11.341,11.341,0,0,1,280.8-.208a9.106,9.106,0,0,1-3.146-1.937A8.781,8.781,0,0,1,275.587-5.2a10.4,10.4,0,0,1-.741-4,10.4,10.4,0,0,1,.741-4,8.781,8.781,0,0,1,2.067-3.055A9.106,9.106,0,0,1,280.8-18.2a11.341,11.341,0,0,1,3.978-.676,14.723,14.723,0,0,1,4.069.533,7.967,7.967,0,0,1,3.263,1.833l-2.86,3.12a5.7,5.7,0,0,0-1.872-1.3,6.671,6.671,0,0,0-2.6-.442,6.024,6.024,0,0,0-2.353.442,5.281,5.281,0,0,0-1.807,1.235,5.425,5.425,0,0,0-1.157,1.885,6.782,6.782,0,0,0-.4,2.366,6.752,6.752,0,0,0,.4,2.379,5.449,5.449,0,0,0,1.157,1.872,5.281,5.281,0,0,0,1.807,1.235,6.024,6.024,0,0,0,2.353.442,7.752,7.752,0,0,0,2.288-.3,8.634,8.634,0,0,0,1.534-.611v-2.99h-3.3V-10.92h7.2Z" transform="translate(139 551.392)" fill="#555"/>
    <path id="Path_464" data-name="Path 464" d="M1.659-14.868h5a10.016,10.016,0,0,1,2.069.21,5.1,5.1,0,0,1,1.753.7,3.61,3.61,0,0,1,1.208,1.323,4.286,4.286,0,0,1,.451,2.068A4.621,4.621,0,0,1,11.655-8.3a3.457,3.457,0,0,1-1.3,1.334,5.439,5.439,0,0,1-1.9.64,14.7,14.7,0,0,1-2.258.168H4.3V0H1.659ZM5.9-8.421q.567,0,1.176-.042A3.612,3.612,0,0,0,8.2-8.715a1.994,1.994,0,0,0,.84-.63,1.88,1.88,0,0,0,.326-1.176,1.854,1.854,0,0,0-.294-1.1,1.947,1.947,0,0,0-.756-.63,3.189,3.189,0,0,0-1.029-.283A9.9,9.9,0,0,0,6.195-12.6H4.3v4.179Zm8.589-6.447h9.849v2.394h-7.2V-8.82h6.825v2.394H17.136v4.032h7.581V0H14.49Zm12.831,0H37.17v2.394h-7.2V-8.82h6.825v2.394H29.967v4.032h7.581V0H27.321Zm12.831,0h5.166a10.524,10.524,0,0,1,2.069.2,5.3,5.3,0,0,1,1.774.682,3.57,3.57,0,0,1,1.239,1.3,4.193,4.193,0,0,1,.462,2.079A4.14,4.14,0,0,1,49.97-7.9a3.828,3.828,0,0,1-2.552,1.323L51.366,0H48.174L44.73-6.3H42.8V0H40.152Zm4.7,6.3q.567,0,1.134-.052a3.482,3.482,0,0,0,1.04-.252,1.774,1.774,0,0,0,.766-.609,1.935,1.935,0,0,0,.294-1.144,1.826,1.826,0,0,0-.273-1.05,1.7,1.7,0,0,0-.714-.6,3.287,3.287,0,0,0-.977-.262,8.9,8.9,0,0,0-1.039-.063H42.8v4.032ZM72.807-1.092A12.847,12.847,0,0,1,66.654.378a8.69,8.69,0,0,1-3.16-.557,7.211,7.211,0,0,1-2.478-1.575A7.236,7.236,0,0,1,59.388-4.2,8.254,8.254,0,0,1,58.8-7.371a8.61,8.61,0,0,1,.588-3.245A7.28,7.28,0,0,1,61.015-13.1a7.134,7.134,0,0,1,2.478-1.586,8.69,8.69,0,0,1,3.16-.556,12.009,12.009,0,0,1,3.192.41,6.57,6.57,0,0,1,2.667,1.459L70.56-11.4a4.9,4.9,0,0,0-1.732-1.071,6.136,6.136,0,0,0-2.152-.378,5.153,5.153,0,0,0-2.09.41,4.781,4.781,0,0,0-1.607,1.134,5.151,5.151,0,0,0-1.04,1.691,5.8,5.8,0,0,0-.368,2.079,6.393,6.393,0,0,0,.368,2.2,5.179,5.179,0,0,0,1.04,1.743,4.837,4.837,0,0,0,1.607,1.155,5.041,5.041,0,0,0,2.09.42,9.161,9.161,0,0,0,1.9-.189,5.4,5.4,0,0,0,1.585-.588V-6.3H67.116V-8.694h5.691Zm3.129-13.776H81.1a10.524,10.524,0,0,1,2.069.2,5.3,5.3,0,0,1,1.774.682,3.57,3.57,0,0,1,1.239,1.3,4.193,4.193,0,0,1,.462,2.079A4.14,4.14,0,0,1,85.754-7.9,3.828,3.828,0,0,1,83.2-6.573L87.15,0H83.958L80.514-6.3H78.582V0H75.936Zm4.7,6.3q.567,0,1.134-.052a3.482,3.482,0,0,0,1.039-.252,1.774,1.774,0,0,0,.767-.609,1.936,1.936,0,0,0,.294-1.144,1.826,1.826,0,0,0-.273-1.05,1.7,1.7,0,0,0-.714-.6,3.287,3.287,0,0,0-.977-.262,8.9,8.9,0,0,0-1.039-.063H78.582v4.032Zm7.728,1.2a8.61,8.61,0,0,1,.588-3.245A7.28,7.28,0,0,1,90.584-13.1a7.134,7.134,0,0,1,2.478-1.586,8.69,8.69,0,0,1,3.16-.556,8.833,8.833,0,0,1,3.192.515,6.976,6.976,0,0,1,2.5,1.564,7.225,7.225,0,0,1,1.638,2.478,8.529,8.529,0,0,1,.588,3.234,8.254,8.254,0,0,1-.588,3.171,7.272,7.272,0,0,1-1.638,2.457,7.482,7.482,0,0,1-2.5,1.606,8.84,8.84,0,0,1-3.192.6,8.69,8.69,0,0,1-3.16-.557,7.211,7.211,0,0,1-2.478-1.575A7.236,7.236,0,0,1,88.956-4.2,8.254,8.254,0,0,1,88.368-7.371Zm2.772-.168a6.393,6.393,0,0,0,.368,2.2,5.179,5.179,0,0,0,1.039,1.743,4.837,4.837,0,0,0,1.606,1.155,5.041,5.041,0,0,0,2.09.42,5.114,5.114,0,0,0,2.1-.42A4.809,4.809,0,0,0,99.96-3.591,5.179,5.179,0,0,0,101-5.334a6.393,6.393,0,0,0,.368-2.2A5.8,5.8,0,0,0,101-9.618a5.151,5.151,0,0,0-1.039-1.691,4.755,4.755,0,0,0-1.617-1.134,5.228,5.228,0,0,0-2.1-.41,5.153,5.153,0,0,0-2.09.41,4.781,4.781,0,0,0-1.606,1.134,5.15,5.15,0,0,0-1.039,1.691A5.8,5.8,0,0,0,91.14-7.539ZM118.566-5.46a6.116,6.116,0,0,1-.462,2.425,5.438,5.438,0,0,1-1.26,1.838,5.542,5.542,0,0,1-1.89,1.166,6.706,6.706,0,0,1-2.373.409,6.706,6.706,0,0,1-2.373-.409,5.657,5.657,0,0,1-1.9-1.166,5.246,5.246,0,0,1-1.26-1.838A6.241,6.241,0,0,1,106.6-5.46v-9.408h2.646v9.324A4.234,4.234,0,0,0,109.41-4.4a3.215,3.215,0,0,0,.556,1.1,2.974,2.974,0,0,0,1.029.83,3.476,3.476,0,0,0,1.586.326,3.476,3.476,0,0,0,1.586-.326A2.974,2.974,0,0,0,115.2-3.3a3.215,3.215,0,0,0,.556-1.1,4.234,4.234,0,0,0,.168-1.145v-9.324h2.646Zm3.255-9.408h5a10.016,10.016,0,0,1,2.068.21,5.1,5.1,0,0,1,1.754.7,3.61,3.61,0,0,1,1.208,1.323,4.286,4.286,0,0,1,.451,2.068,4.621,4.621,0,0,1-.483,2.268,3.457,3.457,0,0,1-1.3,1.334,5.44,5.44,0,0,1-1.9.64,14.7,14.7,0,0,1-2.257.168h-1.89V0h-2.646Zm4.242,6.447q.567,0,1.176-.042a3.612,3.612,0,0,0,1.123-.252,1.994,1.994,0,0,0,.84-.63,1.88,1.88,0,0,0,.326-1.176,1.854,1.854,0,0,0-.294-1.1,1.947,1.947,0,0,0-.756-.63,3.189,3.189,0,0,0-1.029-.283,9.9,9.9,0,0,0-1.092-.063h-1.89v4.179Z" transform="translate(417 791.392)" fill="#555"/>
  </g>
</svg>
