<svg xmlns="http://www.w3.org/2000/svg" width="40" height="44.444" viewBox="0 0 40 44.444">
  <path id="Icon_material-date-range" data-name="Icon material-date-range" d="M17.833,23H13.389v4.444h4.444Zm8.889,0H22.278v4.444h4.444Zm8.889,0H31.167v4.444h4.444ZM40.056,7.444H37.833V3H33.389V7.444H15.611V3H11.167V7.444H8.944a4.424,4.424,0,0,0-4.422,4.444L4.5,43a4.443,4.443,0,0,0,4.444,4.444H40.056A4.458,4.458,0,0,0,44.5,43V11.889A4.458,4.458,0,0,0,40.056,7.444Zm0,35.556H8.944V18.556H40.056Z" transform="translate(-4.5 -3)" fill="#919191"/>
</svg>
