<svg xmlns="http://www.w3.org/2000/svg" xmlns:xlink="http://www.w3.org/1999/xlink" width="412.744" height="266.876" viewBox="0 0 412.744 266.876">
  <defs>
    <clipPath id="clip-path">
      <rect width="411.245" height="153.903" fill="none"/>
    </clipPath>
  </defs>
  <g id="Credentials_on_File" data-name="Credentials on File" transform="translate(-22875.797 4506.875)">
    <g id="Group_6" data-name="Group 6" transform="translate(22877.297 -4453.209)">
      <g id="chart_base" data-name="chart base" clip-path="url(#clip-path)">
        <g id="chart_lines" data-name="chart lines" transform="translate(16.183 3.799)">
          <path id="Line_7" data-name="Line 7" d="M0,.488,394.261.365" transform="translate(0.326 131.576)" fill="none" stroke="#c1c1c1" stroke-linecap="round" stroke-miterlimit="10" stroke-width="3"/>
          <path id="Line_105" data-name="Line 105" d="M0,.5H391.3" transform="translate(3.53 65.802)" fill="none" stroke="rgba(0,0,0,0.08)" stroke-linecap="round" stroke-miterlimit="10" stroke-width="3"/>
          <path id="Line_105_Copy" data-name="Line 105 Copy" d="M0,.5H391.3" transform="translate(3.53 32.464)" fill="none" stroke="rgba(0,0,0,0.08)" stroke-linecap="round" stroke-miterlimit="10" stroke-width="3"/>
          <path id="Line_105_Copy_2" data-name="Line 105 Copy 2" d="M0,.5H391.3" transform="translate(3.53 -0.417)" fill="none" stroke="rgba(0,0,0,0.08)" stroke-linecap="round" stroke-miterlimit="10" stroke-width="3"/>
          <path id="Line_103" data-name="Line 103" d="M0,.5H391.3" transform="translate(3.53 98.683)" fill="none" stroke="rgba(0,0,0,0.08)" stroke-linecap="round" stroke-miterlimit="10" stroke-width="3"/>
          <path id="Path_5" data-name="Path 5" d="M0,1H2.946" transform="translate(0 97.991)" fill="none" stroke="#bbb" stroke-linecap="round" stroke-miterlimit="10" stroke-width="3"/>
          <path id="Path_5_Copy" data-name="Path 5 Copy" d="M0,1H2.946" transform="translate(0 65.362)" fill="none" stroke="#bbb" stroke-linecap="round" stroke-miterlimit="10" stroke-width="3"/>
          <path id="Path_5_Copy_2" data-name="Path 5 Copy 2" d="M0,1H2.946" transform="translate(0 32.166)" fill="none" stroke="#bbb" stroke-linecap="round" stroke-miterlimit="10" stroke-width="3"/>
          <path id="Path_4" data-name="Path 4" d="M0,0H2.856V131.876" transform="translate(0.121 0)" fill="none" stroke="#c1c1c1" stroke-linecap="round" stroke-miterlimit="10" stroke-width="3"/>
        </g>
      </g>
      <path id="Path_12" data-name="Path 12" d="M0,0" transform="translate(25.134 120.377)" fill="none" stroke="#979797" stroke-linecap="round" stroke-miterlimit="10" stroke-width="3"/>
      <line id="Line_66" data-name="Line 66" x2="35.541" transform="translate(41.008 149.681)" fill="none" stroke="#cecdce" stroke-linecap="round" stroke-width="3"/>
      <line id="Line_67" data-name="Line 67" x2="35.541" transform="translate(118.925 149.681)" fill="none" stroke="#cecdce" stroke-linecap="round" stroke-width="3"/>
      <line id="Line_68" data-name="Line 68" x2="35.541" transform="translate(196.841 149.681)" fill="none" stroke="#cecdce" stroke-linecap="round" stroke-width="3"/>
      <line id="Line_69" data-name="Line 69" x2="35.541" transform="translate(273.39 149.681)" fill="none" stroke="#cecdce" stroke-linecap="round" stroke-width="3"/>
      <line id="Line_70" data-name="Line 70" x2="35.541" transform="translate(351.306 149.681)" fill="none" stroke="#cecdce" stroke-linecap="round" stroke-width="3"/>
      <line id="Line_71" data-name="Line 71" x2="10.936" transform="translate(0 136.012)" fill="none" stroke="#cecdce" stroke-linecap="round" stroke-width="3"/>
      <line id="Line_72" data-name="Line 72" x2="10.936" transform="translate(0 103.205)" fill="none" stroke="#cecdce" stroke-linecap="round" stroke-width="3"/>
      <line id="Line_73" data-name="Line 73" x2="10.936" transform="translate(0 70.398)" fill="none" stroke="#cecdce" stroke-linecap="round" stroke-width="3"/>
      <line id="Line_74" data-name="Line 74" x2="10.936" transform="translate(0 37.591)" fill="none" stroke="#cecdce" stroke-linecap="round" stroke-width="3"/>
      <line id="Line_75" data-name="Line 75" x2="10.936" transform="translate(0 3.417)" fill="none" stroke="#cecdce" stroke-linecap="round" stroke-width="3"/>
    </g>
    <circle id="Ellipse_310" data-name="Ellipse 310" cx="14.5" cy="14.5" r="14.5" transform="translate(22882 -4269)" fill="#e87700"/>
    <path id="Path_472" data-name="Path 472" d="M1.659-14.868h5a10.016,10.016,0,0,1,2.069.21,5.1,5.1,0,0,1,1.753.7,3.61,3.61,0,0,1,1.208,1.323,4.286,4.286,0,0,1,.451,2.068A4.621,4.621,0,0,1,11.655-8.3a3.457,3.457,0,0,1-1.3,1.334,5.439,5.439,0,0,1-1.9.64,14.7,14.7,0,0,1-2.258.168H4.3V0H1.659ZM5.9-8.421q.567,0,1.176-.042A3.612,3.612,0,0,0,8.2-8.715a1.994,1.994,0,0,0,.84-.63,1.88,1.88,0,0,0,.326-1.176,1.854,1.854,0,0,0-.294-1.1,1.947,1.947,0,0,0-.756-.63,3.189,3.189,0,0,0-1.029-.283A9.9,9.9,0,0,0,6.195-12.6H4.3v4.179ZM16.275-4.158a2.56,2.56,0,0,0,.882,1.764,2.76,2.76,0,0,0,1.827.63,3.007,3.007,0,0,0,1.585-.388,4.4,4.4,0,0,0,1.124-.977L23.5-1.764A5.118,5.118,0,0,1,21.525-.21a5.816,5.816,0,0,1-2.289.462,6.05,6.05,0,0,1-2.142-.378A5.138,5.138,0,0,1,15.351-1.2a5.082,5.082,0,0,1-1.165-1.669,5.331,5.331,0,0,1-.431-2.174,5.331,5.331,0,0,1,.431-2.173,5.082,5.082,0,0,1,1.165-1.67,5.138,5.138,0,0,1,1.743-1.071,6.05,6.05,0,0,1,2.142-.378,4.9,4.9,0,0,1,1.922.368A4.121,4.121,0,0,1,22.649-8.9a4.9,4.9,0,0,1,.966,1.712,7.261,7.261,0,0,1,.346,2.341v.693Zm5.166-1.89A2.373,2.373,0,0,0,20.748-7.8a2.6,2.6,0,0,0-1.869-.641,2.448,2.448,0,0,0-1.8.651,2.905,2.905,0,0,0-.809,1.743Zm4.872-4.032h2.394v1.617h.042a3.536,3.536,0,0,1,1.092-1.312,3.23,3.23,0,0,1,2-.557A3.948,3.948,0,0,1,33.548-10a3.235,3.235,0,0,1,1.145.882,3.339,3.339,0,0,1,.63,1.26,5.8,5.8,0,0,1,.189,1.491V0h-2.52V-5.1q0-.42-.042-.934A3.355,3.355,0,0,0,32.729-7a1.809,1.809,0,0,0-.556-.756,1.6,1.6,0,0,0-1.029-.3,2.406,2.406,0,0,0-1.061.21,2.038,2.038,0,0,0-.714.567,2.255,2.255,0,0,0-.41.819,3.655,3.655,0,0,0-.126.966V0h-2.52Zm14.07,5.922a2.56,2.56,0,0,0,.882,1.764,2.76,2.76,0,0,0,1.827.63,3.007,3.007,0,0,0,1.585-.388A4.4,4.4,0,0,0,45.8-3.129l1.806,1.365A5.118,5.118,0,0,1,45.633-.21a5.816,5.816,0,0,1-2.289.462A6.05,6.05,0,0,1,41.2-.126,5.138,5.138,0,0,1,39.459-1.2a5.082,5.082,0,0,1-1.166-1.669,5.331,5.331,0,0,1-.431-2.174,5.331,5.331,0,0,1,.431-2.173,5.082,5.082,0,0,1,1.166-1.67A5.138,5.138,0,0,1,41.2-9.954a6.05,6.05,0,0,1,2.142-.378,4.9,4.9,0,0,1,1.922.368A4.121,4.121,0,0,1,46.757-8.9a4.9,4.9,0,0,1,.966,1.712,7.261,7.261,0,0,1,.347,2.341v.693Zm5.166-1.89A2.373,2.373,0,0,0,44.856-7.8a2.6,2.6,0,0,0-1.869-.641,2.448,2.448,0,0,0-1.8.651,2.905,2.905,0,0,0-.808,1.743Zm3.7-1.89V-10.08h2.079V-13h2.52v2.919h2.772v2.142H53.844v4.41a2.195,2.195,0,0,0,.283,1.2,1.241,1.241,0,0,0,1.124.441,4.079,4.079,0,0,0,.735-.073,1.54,1.54,0,0,0,.63-.241V-.084a3.242,3.242,0,0,1-.977.263,8.181,8.181,0,0,1-1.018.073A5.156,5.156,0,0,1,52.972.032a2.175,2.175,0,0,1-1.008-.672,2.552,2.552,0,0,1-.5-1.123,7.871,7.871,0,0,1-.136-1.554v-4.62ZM58.59-10.08h2.52v1.6h.042a3.166,3.166,0,0,1,1.2-1.365,3.311,3.311,0,0,1,1.785-.483,2.408,2.408,0,0,1,.451.042q.221.042.452.1v2.436q-.315-.084-.62-.137a3.518,3.518,0,0,0-.6-.052,2.707,2.707,0,0,0-1.418.325,2.583,2.583,0,0,0-.819.746,2.479,2.479,0,0,0-.378.84,3.167,3.167,0,0,0-.094.63V0H58.59ZM73.059-1.386H73A3.245,3.245,0,0,1,71.61-.137a4.349,4.349,0,0,1-1.848.389A4.906,4.906,0,0,1,68.408.063,3.669,3.669,0,0,1,67.231-.5a2.913,2.913,0,0,1-.829-.945,2.68,2.68,0,0,1-.315-1.323,3.049,3.049,0,0,1,.294-1.4,2.868,2.868,0,0,1,.787-.966,3.991,3.991,0,0,1,1.145-.619A7.84,7.84,0,0,1,69.668-6.1a12.009,12.009,0,0,1,1.417-.147q.714-.031,1.344-.031h.63v-.273a1.637,1.637,0,0,0-.651-1.418,2.753,2.753,0,0,0-1.659-.473,3.9,3.9,0,0,0-1.491.284,3.775,3.775,0,0,0-1.2.766L66.738-8.715A4.885,4.885,0,0,1,68.7-9.954a7.229,7.229,0,0,1,2.321-.378,5.843,5.843,0,0,1,1.806.242,3.973,3.973,0,0,1,1.218.62,2.739,2.739,0,0,1,.745.872,4.046,4.046,0,0,1,.378,1,5.456,5.456,0,0,1,.136.977q.021.472.021.829V0H73.059Zm-.147-3.129h-.525q-.525,0-1.176.042a6.17,6.17,0,0,0-1.229.2,2.809,2.809,0,0,0-.976.462,1.009,1.009,0,0,0-.4.851,1.073,1.073,0,0,0,.158.6,1.426,1.426,0,0,0,.41.409,1.715,1.715,0,0,0,.567.242,2.764,2.764,0,0,0,.63.074,2.62,2.62,0,0,0,1.922-.619,2.284,2.284,0,0,0,.619-1.691ZM76.86-7.938V-10.08h2.079V-13h2.52v2.919h2.772v2.142H81.459v4.41a2.195,2.195,0,0,0,.284,1.2,1.241,1.241,0,0,0,1.124.441,4.079,4.079,0,0,0,.735-.073,1.54,1.54,0,0,0,.63-.241V-.084a3.242,3.242,0,0,1-.977.263,8.181,8.181,0,0,1-1.019.073A5.156,5.156,0,0,1,80.588.032a2.175,2.175,0,0,1-1.008-.672,2.552,2.552,0,0,1-.5-1.123,7.871,7.871,0,0,1-.136-1.554v-4.62Zm9.408-2.142h2.52V0h-2.52ZM85.911-13.5a1.452,1.452,0,0,1,.451-1.06,1.551,1.551,0,0,1,1.145-.451,1.666,1.666,0,0,1,1.165.43,1.4,1.4,0,0,1,.473,1.082,1.4,1.4,0,0,1-.473,1.082,1.666,1.666,0,0,1-1.165.431,1.551,1.551,0,0,1-1.145-.451A1.452,1.452,0,0,1,85.911-13.5ZM91.182-5.04a5.331,5.331,0,0,1,.43-2.173,5.082,5.082,0,0,1,1.165-1.67,5.138,5.138,0,0,1,1.743-1.071,6.05,6.05,0,0,1,2.142-.378,6.05,6.05,0,0,1,2.142.378,5.138,5.138,0,0,1,1.743,1.071,5.082,5.082,0,0,1,1.165,1.67,5.331,5.331,0,0,1,.431,2.173,5.331,5.331,0,0,1-.431,2.174A5.082,5.082,0,0,1,100.548-1.2,5.138,5.138,0,0,1,98.805-.126a6.05,6.05,0,0,1-2.142.378,6.05,6.05,0,0,1-2.142-.378A5.138,5.138,0,0,1,92.778-1.2a5.082,5.082,0,0,1-1.165-1.669A5.331,5.331,0,0,1,91.182-5.04Zm2.52,0a3.279,3.279,0,0,0,.2,1.134,2.846,2.846,0,0,0,.588.966,2.929,2.929,0,0,0,.935.672,2.924,2.924,0,0,0,1.239.252A2.924,2.924,0,0,0,97.9-2.268a2.929,2.929,0,0,0,.935-.672,2.846,2.846,0,0,0,.588-.966,3.279,3.279,0,0,0,.2-1.134,3.279,3.279,0,0,0-.2-1.134,2.846,2.846,0,0,0-.588-.966,2.929,2.929,0,0,0-.935-.672,2.924,2.924,0,0,0-1.239-.252,2.924,2.924,0,0,0-1.239.252,2.929,2.929,0,0,0-.935.672,2.846,2.846,0,0,0-.588.966A3.279,3.279,0,0,0,93.7-5.04ZM104.5-10.08h2.394v1.617h.042a3.536,3.536,0,0,1,1.092-1.312,3.23,3.23,0,0,1,1.995-.557A3.948,3.948,0,0,1,111.73-10a3.235,3.235,0,0,1,1.145.882,3.339,3.339,0,0,1,.63,1.26,5.8,5.8,0,0,1,.189,1.491V0h-2.52V-5.1q0-.42-.042-.934A3.355,3.355,0,0,0,110.911-7a1.809,1.809,0,0,0-.556-.756,1.6,1.6,0,0,0-1.029-.3,2.406,2.406,0,0,0-1.061.21,2.038,2.038,0,0,0-.714.567,2.255,2.255,0,0,0-.41.819,3.655,3.655,0,0,0-.126.966V0H104.5Z" transform="translate(22925 -4248)" fill="#555"/>
    <circle id="Ellipse_311" data-name="Ellipse 311" cx="14.5" cy="14.5" r="14.5" transform="translate(23060 -4269)" fill="#26836d"/>
    <path id="Path_473" data-name="Path 473" d="M6.468-14.868H8.757L15.162,0H12.138L10.752-3.4H4.3L2.961,0H0Zm3.36,9.2L7.539-11.718,5.208-5.67Zm6.762-4.41h2.394v1.512h.042A3.241,3.241,0,0,1,20.5-9.912a4.764,4.764,0,0,1,1.995-.42,5.079,5.079,0,0,1,2.079.41A4.655,4.655,0,0,1,26.145-8.8a4.8,4.8,0,0,1,.987,1.68,6.286,6.286,0,0,1,.336,2.079,5.95,5.95,0,0,1-.357,2.079,5.17,5.17,0,0,1-1,1.68A4.6,4.6,0,0,1,24.57-.157,4.723,4.723,0,0,1,22.6.252,4.866,4.866,0,0,1,21.336.1a4.342,4.342,0,0,1-.966-.378,3.864,3.864,0,0,1-.714-.493,3.587,3.587,0,0,1-.483-.515H19.11V4.788H16.59Zm8.358,5.04a3.279,3.279,0,0,0-.2-1.134,2.846,2.846,0,0,0-.588-.966,2.929,2.929,0,0,0-.934-.672,2.924,2.924,0,0,0-1.239-.252,2.924,2.924,0,0,0-1.239.252,2.929,2.929,0,0,0-.934.672,2.846,2.846,0,0,0-.588.966,3.279,3.279,0,0,0-.2,1.134,3.279,3.279,0,0,0,.2,1.134,2.846,2.846,0,0,0,.588.966,2.929,2.929,0,0,0,.934.672,2.924,2.924,0,0,0,1.239.252,2.924,2.924,0,0,0,1.239-.252,2.929,2.929,0,0,0,.934-.672,2.846,2.846,0,0,0,.588-.966A3.279,3.279,0,0,0,24.948-5.04Zm4.872-5.04h2.394v1.512h.042a3.241,3.241,0,0,1,1.47-1.344,4.764,4.764,0,0,1,1.995-.42,5.079,5.079,0,0,1,2.079.41A4.655,4.655,0,0,1,39.375-8.8a4.8,4.8,0,0,1,.987,1.68A6.285,6.285,0,0,1,40.7-5.04a5.95,5.95,0,0,1-.357,2.079,5.17,5.17,0,0,1-1,1.68A4.6,4.6,0,0,1,37.8-.157a4.723,4.723,0,0,1-1.974.41A4.866,4.866,0,0,1,34.566.1,4.342,4.342,0,0,1,33.6-.273a3.864,3.864,0,0,1-.714-.493,3.587,3.587,0,0,1-.483-.515H32.34V4.788H29.82Zm8.358,5.04a3.279,3.279,0,0,0-.2-1.134,2.846,2.846,0,0,0-.588-.966,2.929,2.929,0,0,0-.934-.672,2.924,2.924,0,0,0-1.239-.252,2.924,2.924,0,0,0-1.239.252,2.929,2.929,0,0,0-.935.672,2.846,2.846,0,0,0-.588.966,3.279,3.279,0,0,0-.2,1.134,3.279,3.279,0,0,0,.2,1.134,2.846,2.846,0,0,0,.588.966,2.929,2.929,0,0,0,.935.672,2.924,2.924,0,0,0,1.239.252,2.924,2.924,0,0,0,1.239-.252,2.929,2.929,0,0,0,.934-.672,2.846,2.846,0,0,0,.588-.966A3.279,3.279,0,0,0,38.178-5.04Zm4.872-5.04h2.52v1.6h.042a3.166,3.166,0,0,1,1.2-1.365,3.311,3.311,0,0,1,1.785-.483,2.408,2.408,0,0,1,.451.042q.22.042.451.1v2.436q-.315-.084-.619-.137a3.518,3.518,0,0,0-.6-.052,2.707,2.707,0,0,0-1.417.325,2.583,2.583,0,0,0-.819.746,2.479,2.479,0,0,0-.378.84,3.167,3.167,0,0,0-.095.63V0H43.05Zm7.287,5.04a5.331,5.331,0,0,1,.431-2.173,5.082,5.082,0,0,1,1.166-1.67,5.138,5.138,0,0,1,1.743-1.071,6.05,6.05,0,0,1,2.142-.378,6.05,6.05,0,0,1,2.142.378A5.138,5.138,0,0,1,59.7-8.883a5.082,5.082,0,0,1,1.166,1.67A5.331,5.331,0,0,1,61.3-5.04a5.331,5.331,0,0,1-.43,2.174A5.082,5.082,0,0,1,59.7-1.2,5.138,5.138,0,0,1,57.96-.126a6.05,6.05,0,0,1-2.142.378,6.05,6.05,0,0,1-2.142-.378A5.138,5.138,0,0,1,51.933-1.2a5.082,5.082,0,0,1-1.166-1.669A5.331,5.331,0,0,1,50.337-5.04Zm2.52,0a3.279,3.279,0,0,0,.2,1.134,2.846,2.846,0,0,0,.588.966,2.929,2.929,0,0,0,.935.672,2.924,2.924,0,0,0,1.239.252,2.924,2.924,0,0,0,1.239-.252,2.929,2.929,0,0,0,.934-.672,2.846,2.846,0,0,0,.588-.966,3.279,3.279,0,0,0,.2-1.134,3.279,3.279,0,0,0-.2-1.134,2.846,2.846,0,0,0-.588-.966,2.929,2.929,0,0,0-.934-.672,2.924,2.924,0,0,0-1.239-.252,2.924,2.924,0,0,0-1.239.252,2.929,2.929,0,0,0-.935.672,2.846,2.846,0,0,0-.588.966A3.279,3.279,0,0,0,52.857-5.04Zm9.429-5.04h2.751l2.688,7.056h.042l2.709-7.056h2.583L69.09,0H66.4Zm14.28,5.922a2.56,2.56,0,0,0,.882,1.764,2.76,2.76,0,0,0,1.827.63,3.007,3.007,0,0,0,1.586-.388,4.4,4.4,0,0,0,1.123-.977L83.79-1.764A5.118,5.118,0,0,1,81.816-.21a5.816,5.816,0,0,1-2.289.462,6.05,6.05,0,0,1-2.142-.378A5.138,5.138,0,0,1,75.642-1.2a5.082,5.082,0,0,1-1.165-1.669,5.331,5.331,0,0,1-.43-2.174,5.331,5.331,0,0,1,.43-2.173,5.082,5.082,0,0,1,1.165-1.67,5.138,5.138,0,0,1,1.743-1.071,6.05,6.05,0,0,1,2.142-.378,4.9,4.9,0,0,1,1.922.368A4.121,4.121,0,0,1,82.939-8.9a4.9,4.9,0,0,1,.966,1.712,7.261,7.261,0,0,1,.346,2.341v.693Zm5.166-1.89A2.373,2.373,0,0,0,81.039-7.8a2.6,2.6,0,0,0-1.869-.641,2.448,2.448,0,0,0-1.8.651,2.905,2.905,0,0,0-.809,1.743ZM94.584-1.512h-.042a3.241,3.241,0,0,1-1.47,1.344,4.764,4.764,0,0,1-2,.42,5.059,5.059,0,0,1-2.09-.41,4.682,4.682,0,0,1-1.564-1.124,4.8,4.8,0,0,1-.987-1.68A6.286,6.286,0,0,1,86.1-5.04a5.95,5.95,0,0,1,.357-2.079,5.17,5.17,0,0,1,1-1.68A4.6,4.6,0,0,1,89-9.922a4.723,4.723,0,0,1,1.974-.41,4.866,4.866,0,0,1,1.26.147,4.342,4.342,0,0,1,.966.378,3.864,3.864,0,0,1,.714.493A3.587,3.587,0,0,1,94.4-8.8h.063v-7.077h2.52V0H94.584ZM88.62-5.04a3.279,3.279,0,0,0,.2,1.134,2.846,2.846,0,0,0,.588.966,2.929,2.929,0,0,0,.935.672,2.924,2.924,0,0,0,1.239.252,2.924,2.924,0,0,0,1.239-.252,2.929,2.929,0,0,0,.935-.672,2.846,2.846,0,0,0,.588-.966,3.279,3.279,0,0,0,.2-1.134,3.279,3.279,0,0,0-.2-1.134,2.846,2.846,0,0,0-.588-.966,2.929,2.929,0,0,0-.935-.672,2.924,2.924,0,0,0-1.239-.252,2.924,2.924,0,0,0-1.239.252,2.929,2.929,0,0,0-.935.672,2.846,2.846,0,0,0-.588.966A3.279,3.279,0,0,0,88.62-5.04Zm27.867-6.342a4.431,4.431,0,0,0-1.585-1.176,4.281,4.281,0,0,0-1.544-.294,5.153,5.153,0,0,0-2.09.41,4.781,4.781,0,0,0-1.606,1.134,5.151,5.151,0,0,0-1.039,1.691,5.8,5.8,0,0,0-.368,2.079,6.393,6.393,0,0,0,.368,2.2,5.179,5.179,0,0,0,1.039,1.743,4.837,4.837,0,0,0,1.606,1.155,5.041,5.041,0,0,0,2.09.42,3.839,3.839,0,0,0,1.754-.431A4.786,4.786,0,0,0,116.7-3.822l2.184,1.554a5.95,5.95,0,0,1-2.457,2.016,7.658,7.658,0,0,1-3.087.63,8.69,8.69,0,0,1-3.161-.557A7.211,7.211,0,0,1,107.7-1.753,7.236,7.236,0,0,1,106.071-4.2a8.254,8.254,0,0,1-.588-3.171,8.61,8.61,0,0,1,.588-3.245A7.28,7.28,0,0,1,107.7-13.1a7.134,7.134,0,0,1,2.478-1.586,8.69,8.69,0,0,1,3.161-.556,7.247,7.247,0,0,1,2.8.535,6.536,6.536,0,0,1,2.4,1.817Zm3.444,6.342a5.331,5.331,0,0,1,.43-2.173,5.082,5.082,0,0,1,1.165-1.67,5.138,5.138,0,0,1,1.743-1.071,6.05,6.05,0,0,1,2.142-.378,6.05,6.05,0,0,1,2.142.378A5.137,5.137,0,0,1,129.3-8.883a5.082,5.082,0,0,1,1.166,1.67,5.331,5.331,0,0,1,.43,2.173,5.331,5.331,0,0,1-.43,2.174A5.082,5.082,0,0,1,129.3-1.2a5.137,5.137,0,0,1-1.743,1.071,6.05,6.05,0,0,1-2.142.378,6.05,6.05,0,0,1-2.142-.378A5.138,5.138,0,0,1,121.527-1.2a5.082,5.082,0,0,1-1.165-1.669A5.331,5.331,0,0,1,119.931-5.04Zm2.52,0a3.279,3.279,0,0,0,.2,1.134,2.846,2.846,0,0,0,.588.966,2.929,2.929,0,0,0,.935.672,2.924,2.924,0,0,0,1.239.252,2.924,2.924,0,0,0,1.239-.252,2.929,2.929,0,0,0,.935-.672,2.846,2.846,0,0,0,.588-.966,3.279,3.279,0,0,0,.2-1.134,3.279,3.279,0,0,0-.2-1.134,2.846,2.846,0,0,0-.588-.966,2.929,2.929,0,0,0-.935-.672,2.924,2.924,0,0,0-1.239-.252,2.924,2.924,0,0,0-1.239.252,2.929,2.929,0,0,0-.935.672,2.846,2.846,0,0,0-.588.966A3.279,3.279,0,0,0,122.451-5.04ZM142.443,0h-2.394V-1.617h-.042A3.536,3.536,0,0,1,138.915-.3a3.23,3.23,0,0,1-2,.556,4.058,4.058,0,0,1-1.712-.326,3.083,3.083,0,0,1-1.145-.882,3.437,3.437,0,0,1-.63-1.271,5.8,5.8,0,0,1-.189-1.491V-10.08h2.52v5.1q0,.42.042.935a3.355,3.355,0,0,0,.22.966,1.847,1.847,0,0,0,.546.756,1.587,1.587,0,0,0,1.04.3,2.406,2.406,0,0,0,1.061-.21,2.038,2.038,0,0,0,.714-.567,2.255,2.255,0,0,0,.41-.819,3.655,3.655,0,0,0,.126-.966v-5.5h2.52ZM145.3-10.08h2.394v1.617h.042a3.535,3.535,0,0,1,1.092-1.312,3.23,3.23,0,0,1,2-.557,3.948,3.948,0,0,1,1.712.336,3.235,3.235,0,0,1,1.145.882,3.339,3.339,0,0,1,.63,1.26,5.8,5.8,0,0,1,.189,1.491V0h-2.52V-5.1q0-.42-.042-.934a3.355,3.355,0,0,0-.22-.966,1.809,1.809,0,0,0-.557-.756,1.6,1.6,0,0,0-1.029-.3,2.406,2.406,0,0,0-1.061.21,2.038,2.038,0,0,0-.714.567,2.255,2.255,0,0,0-.41.819,3.655,3.655,0,0,0-.126.966V0H145.3Zm10.878,2.142V-10.08h2.079V-13h2.52v2.919h2.772v2.142h-2.772v4.41a2.195,2.195,0,0,0,.284,1.2,1.241,1.241,0,0,0,1.123.441,4.079,4.079,0,0,0,.735-.073,1.54,1.54,0,0,0,.63-.241V-.084a3.242,3.242,0,0,1-.977.263,8.181,8.181,0,0,1-1.018.073A5.156,5.156,0,0,1,159.9.032,2.175,2.175,0,0,1,158.9-.641a2.552,2.552,0,0,1-.5-1.123,7.871,7.871,0,0,1-.137-1.554v-4.62Z" transform="translate(23102 -4248)" fill="#555"/>
    <path id="Path_471" data-name="Path 471" d="M1.872-18.408H8.71a13.505,13.505,0,0,1,2.7.26,6.149,6.149,0,0,1,2.223.9,4.534,4.534,0,0,1,1.508,1.716,5.875,5.875,0,0,1,.559,2.717,6.269,6.269,0,0,1-.52,2.7,4.436,4.436,0,0,1-1.43,1.742,5.8,5.8,0,0,1-2.158.923,12.648,12.648,0,0,1-2.7.273H5.928V0H1.872Zm4.056,7.8h2.7a5.228,5.228,0,0,0,1.053-.1,2.8,2.8,0,0,0,.91-.351,1.873,1.873,0,0,0,.65-.676,2.137,2.137,0,0,0,.247-1.079,1.825,1.825,0,0,0-.325-1.131,2.161,2.161,0,0,0-.832-.663,3.561,3.561,0,0,0-1.131-.3,11.556,11.556,0,0,0-1.2-.065H5.928Zm12.48-7.8H30.914v3.744h-8.45v3.432h7.982v3.744H22.464v3.744h8.918V0H18.408Zm16.224,0h5.512L47.97-5.616h.052V-18.408h4.056V0h-5.3L38.74-13.1h-.052V0H34.632Zm21.346,0H68.484v3.744h-8.45v3.432h7.982v3.744H60.034v3.744h8.918V0H55.978ZM75.764-14.82H70.512v-3.588h14.56v3.588H79.82V0H75.764Zm11.362-3.588H94.25a12.57,12.57,0,0,1,2.665.273,6.323,6.323,0,0,1,2.21.91,4.534,4.534,0,0,1,1.508,1.716,5.811,5.811,0,0,1,.559,2.691A5.4,5.4,0,0,1,100.178-9.5a4.565,4.565,0,0,1-2.964,1.729L101.894,0H97.032L93.184-7.358h-2V0H87.126Zm4.056,7.618h2.392q.546,0,1.157-.039a3.624,3.624,0,0,0,1.105-.234,1.911,1.911,0,0,0,.819-.611,1.86,1.86,0,0,0,.325-1.17,1.943,1.943,0,0,0-.286-1.118,1.907,1.907,0,0,0-.728-.637,3.229,3.229,0,0,0-1.014-.3,8.271,8.271,0,0,0-1.118-.078H91.182Zm18.85-7.618h3.354L121.394,0h-4.576l-1.586-3.9h-7.15L106.548,0h-4.472Zm1.56,5.356-2.236,5.72h4.5ZM124.41-14.82h-5.252v-3.588h14.56v3.588h-5.252V0H124.41Zm11.31-3.588h4.056V0H135.72Zm6.76,9.2a10.4,10.4,0,0,1,.741-4,8.782,8.782,0,0,1,2.067-3.055,9.106,9.106,0,0,1,3.146-1.937,11.341,11.341,0,0,1,3.978-.676,11.341,11.341,0,0,1,3.978.676,9.106,9.106,0,0,1,3.146,1.937,8.782,8.782,0,0,1,2.067,3.055,10.4,10.4,0,0,1,.741,4,10.4,10.4,0,0,1-.741,4,8.782,8.782,0,0,1-2.067,3.055A9.106,9.106,0,0,1,156.39-.208a11.341,11.341,0,0,1-3.978.676,11.341,11.341,0,0,1-3.978-.676,9.106,9.106,0,0,1-3.146-1.937A8.782,8.782,0,0,1,143.221-5.2,10.4,10.4,0,0,1,142.48-9.2Zm4.212,0a6.752,6.752,0,0,0,.4,2.379,5.449,5.449,0,0,0,1.157,1.872,5.281,5.281,0,0,0,1.807,1.235,6.024,6.024,0,0,0,2.353.442,6.024,6.024,0,0,0,2.353-.442,5.281,5.281,0,0,0,1.807-1.235,5.449,5.449,0,0,0,1.157-1.872,6.752,6.752,0,0,0,.4-2.379,6.782,6.782,0,0,0-.4-2.366,5.425,5.425,0,0,0-1.157-1.885,5.281,5.281,0,0,0-1.807-1.235,6.024,6.024,0,0,0-2.353-.442,6.024,6.024,0,0,0-2.353.442,5.281,5.281,0,0,0-1.807,1.235,5.425,5.425,0,0,0-1.157,1.885A6.782,6.782,0,0,0,146.692-9.2Zm18.408-9.2h5.512l7.826,12.792h.052V-18.408h4.056V0h-5.3l-8.034-13.1h-.052V0H165.1ZM193-9.2a10.4,10.4,0,0,1,.741-4,8.782,8.782,0,0,1,2.067-3.055,9.106,9.106,0,0,1,3.146-1.937,11.341,11.341,0,0,1,3.978-.676,11.341,11.341,0,0,1,3.978.676,9.106,9.106,0,0,1,3.146,1.937,8.782,8.782,0,0,1,2.067,3.055,10.4,10.4,0,0,1,.741,4,10.4,10.4,0,0,1-.741,4,8.782,8.782,0,0,1-2.067,3.055,9.106,9.106,0,0,1-3.146,1.937,11.341,11.341,0,0,1-3.978.676,11.341,11.341,0,0,1-3.978-.676,9.106,9.106,0,0,1-3.146-1.937A8.782,8.782,0,0,1,193.739-5.2,10.4,10.4,0,0,1,193-9.2Zm4.212,0a6.752,6.752,0,0,0,.4,2.379,5.449,5.449,0,0,0,1.157,1.872,5.281,5.281,0,0,0,1.807,1.235,6.024,6.024,0,0,0,2.353.442,6.024,6.024,0,0,0,2.353-.442,5.281,5.281,0,0,0,1.807-1.235,5.449,5.449,0,0,0,1.157-1.872,6.752,6.752,0,0,0,.4-2.379,6.782,6.782,0,0,0-.4-2.366,5.425,5.425,0,0,0-1.157-1.885,5.281,5.281,0,0,0-1.807-1.235,6.024,6.024,0,0,0-2.353-.442,6.024,6.024,0,0,0-2.353.442,5.281,5.281,0,0,0-1.807,1.235,5.425,5.425,0,0,0-1.157,1.885A6.782,6.782,0,0,0,197.21-9.2Zm18.564-9.2h12.35v3.744H219.83v3.744h7.67v3.744h-7.67V0h-4.056Zm35,4.784a3.978,3.978,0,0,0-1.469-1.118,4.888,4.888,0,0,0-2.015-.39,5.071,5.071,0,0,0-2.119.442,5.07,5.07,0,0,0-1.69,1.235,5.756,5.756,0,0,0-1.118,1.885,6.782,6.782,0,0,0-.4,2.366,6.752,6.752,0,0,0,.4,2.379,5.912,5.912,0,0,0,1.105,1.872,5.008,5.008,0,0,0,1.651,1.235,4.774,4.774,0,0,0,2.041.442,4.574,4.574,0,0,0,2.21-.52,4.4,4.4,0,0,0,1.586-1.456l3.38,2.522a7.039,7.039,0,0,1-2.964,2.418,9.171,9.171,0,0,1-3.692.78A11.341,11.341,0,0,1,243.7-.208a9.106,9.106,0,0,1-3.146-1.937A8.782,8.782,0,0,1,238.485-5.2a10.4,10.4,0,0,1-.741-4,10.4,10.4,0,0,1,.741-4,8.782,8.782,0,0,1,2.067-3.055A9.106,9.106,0,0,1,243.7-18.2a11.341,11.341,0,0,1,3.978-.676,9.741,9.741,0,0,1,1.625.143,8.78,8.78,0,0,1,1.664.455,7.415,7.415,0,0,1,1.573.832,6.256,6.256,0,0,1,1.352,1.274Zm4.784,4.42a10.4,10.4,0,0,1,.741-4,8.782,8.782,0,0,1,2.067-3.055,9.106,9.106,0,0,1,3.146-1.937,11.341,11.341,0,0,1,3.978-.676,11.341,11.341,0,0,1,3.978.676,9.106,9.106,0,0,1,3.146,1.937,8.782,8.782,0,0,1,2.067,3.055,10.4,10.4,0,0,1,.741,4,10.4,10.4,0,0,1-.741,4,8.782,8.782,0,0,1-2.067,3.055,9.106,9.106,0,0,1-3.146,1.937,11.341,11.341,0,0,1-3.978.676,11.341,11.341,0,0,1-3.978-.676,9.106,9.106,0,0,1-3.146-1.937A8.782,8.782,0,0,1,256.295-5.2,10.4,10.4,0,0,1,255.554-9.2Zm4.212,0a6.751,6.751,0,0,0,.4,2.379,5.449,5.449,0,0,0,1.157,1.872,5.281,5.281,0,0,0,1.807,1.235,6.024,6.024,0,0,0,2.353.442,6.024,6.024,0,0,0,2.353-.442,5.281,5.281,0,0,0,1.807-1.235A5.449,5.449,0,0,0,270.8-6.825a6.752,6.752,0,0,0,.4-2.379,6.782,6.782,0,0,0-.4-2.366,5.425,5.425,0,0,0-1.157-1.885,5.281,5.281,0,0,0-1.807-1.235,6.024,6.024,0,0,0-2.353-.442,6.024,6.024,0,0,0-2.353.442,5.281,5.281,0,0,0-1.807,1.235,5.425,5.425,0,0,0-1.157,1.885A6.782,6.782,0,0,0,259.766-9.2Zm18.564-9.2h12.35v3.744h-8.294v3.744h7.67v3.744h-7.67V0H278.33Z" transform="translate(22878 -4488)" fill="#555"/>
    <rect id="Rectangle_1221" data-name="Rectangle 1221" width="69" height="50" transform="translate(22961 -4388) rotate(90)" fill="#378f7b"/>
    <rect id="Rectangle_1222" data-name="Rectangle 1222" width="47" height="50" transform="translate(23271 -4366) rotate(90)" fill="#378f7b"/>
    <rect id="Rectangle_1223" data-name="Rectangle 1223" width="36" height="50" transform="translate(23194 -4355) rotate(90)" fill="#378f7b"/>
    <rect id="Rectangle_1224" data-name="Rectangle 1224" width="63" height="50" transform="translate(23116 -4382) rotate(90)" fill="#378f7b"/>
    <rect id="Rectangle_1225" data-name="Rectangle 1225" width="90" height="50" transform="translate(23039 -4409) rotate(90)" fill="#378f7b"/>
    <path id="Path_470" data-name="Path 470" d="M22562.764-5121.676l34.676,36.453,84.57-14.146h72.609l80.787-18,73.906,44.829" transform="translate(335 673)" fill="none" stroke="#e87700" stroke-linecap="round" stroke-linejoin="round" stroke-width="5"/>
  </g>
</svg>
