<svg xmlns="http://www.w3.org/2000/svg" width="411.5" height="263.876" viewBox="0 0 411.5 263.876">
  <g id="DI_Standart" data-name="DI Standart" transform="translate(-22386.5 3560.876)">
    <path id="Path_534" data-name="Path 534" d="M1.872-18.408H7.956a17.365,17.365,0,0,1,4.2.494,9.609,9.609,0,0,1,3.471,1.6,7.833,7.833,0,0,1,2.353,2.873,9.634,9.634,0,0,1,.871,4.29A8.753,8.753,0,0,1,18-5.213a8.47,8.47,0,0,1-2.275,2.86A10.058,10.058,0,0,1,12.428-.6,12.823,12.823,0,0,1,8.5,0H1.872ZM5.928-3.744H8.034a11.335,11.335,0,0,0,2.613-.286,5.584,5.584,0,0,0,2.093-.949,4.551,4.551,0,0,0,1.391-1.742,6.178,6.178,0,0,0,.507-2.639,5.145,5.145,0,0,0-.507-2.353,4.7,4.7,0,0,0-1.365-1.651,5.974,5.974,0,0,0-2.015-.975,8.948,8.948,0,0,0-2.431-.325H5.928ZM21.554-18.408H25.61V0H21.554ZM46.1-13.91a2.889,2.889,0,0,0-1.339-.923,4.8,4.8,0,0,0-1.6-.3,4.19,4.19,0,0,0-.91.1,3.488,3.488,0,0,0-.884.325,1.927,1.927,0,0,0-.676.585,1.481,1.481,0,0,0-.26.884,1.465,1.465,0,0,0,.624,1.274,5.909,5.909,0,0,0,1.573.754q.949.312,2.041.624a8.41,8.41,0,0,1,2.041.884,4.832,4.832,0,0,1,1.573,1.534,4.675,4.675,0,0,1,.624,2.574,5.918,5.918,0,0,1-.572,2.678,5.434,5.434,0,0,1-1.547,1.9A6.583,6.583,0,0,1,44.525.1a9.938,9.938,0,0,1-2.717.364A9.856,9.856,0,0,1,38.48-.078a8.34,8.34,0,0,1-2.86-1.768l2.886-3.172a4.213,4.213,0,0,0,1.573,1.287,4.49,4.49,0,0,0,1.963.455,4.441,4.441,0,0,0,1-.117,3.261,3.261,0,0,0,.91-.351,1.962,1.962,0,0,0,.65-.6A1.491,1.491,0,0,0,44.85-5.2a1.557,1.557,0,0,0-.637-1.313,5.871,5.871,0,0,0-1.6-.819q-.962-.338-2.08-.676a9.341,9.341,0,0,1-2.08-.91,5.013,5.013,0,0,1-1.6-1.508,4.315,4.315,0,0,1-.637-2.47,5.53,5.53,0,0,1,.585-2.6,5.641,5.641,0,0,1,1.56-1.872A6.782,6.782,0,0,1,40.612-18.5a9.206,9.206,0,0,1,2.626-.377,10.325,10.325,0,0,1,3.016.442,6.956,6.956,0,0,1,2.626,1.482ZM59.982-8.554a2.185,2.185,0,0,0-.806-.689,2.37,2.37,0,0,0-1.118-.273,2.981,2.981,0,0,0-2.3.884,3.269,3.269,0,0,0-.819,2.314A3.269,3.269,0,0,0,55.757-4a2.981,2.981,0,0,0,2.3.884,2.1,2.1,0,0,0,1.118-.286,3.409,3.409,0,0,0,.806-.676l2.574,2.7A4.973,4.973,0,0,1,60.411-.065a8.06,8.06,0,0,1-2.353.377,7.964,7.964,0,0,1-2.743-.468A6.6,6.6,0,0,1,53.079-1.5a6.284,6.284,0,0,1-1.495-2.093,6.62,6.62,0,0,1-.546-2.73,6.62,6.62,0,0,1,.546-2.73,6.284,6.284,0,0,1,1.495-2.093,6.6,6.6,0,0,1,2.236-1.339,7.964,7.964,0,0,1,2.743-.468,8.06,8.06,0,0,1,2.353.377,4.973,4.973,0,0,1,2.145,1.313Zm3.51,2.236a6.62,6.62,0,0,1,.546-2.73,6.284,6.284,0,0,1,1.495-2.093,6.6,6.6,0,0,1,2.236-1.339,7.964,7.964,0,0,1,2.743-.468,7.964,7.964,0,0,1,2.743.468,6.6,6.6,0,0,1,2.236,1.339,6.284,6.284,0,0,1,1.5,2.093,6.62,6.62,0,0,1,.546,2.73,6.62,6.62,0,0,1-.546,2.73,6.284,6.284,0,0,1-1.5,2.093A6.6,6.6,0,0,1,73.255-.156a7.964,7.964,0,0,1-2.743.468,7.964,7.964,0,0,1-2.743-.468A6.6,6.6,0,0,1,65.533-1.5a6.284,6.284,0,0,1-1.495-2.093A6.62,6.62,0,0,1,63.492-6.318Zm3.9,0A3.269,3.269,0,0,0,68.211-4a2.981,2.981,0,0,0,2.3.884A2.981,2.981,0,0,0,72.813-4a3.269,3.269,0,0,0,.819-2.314,3.269,3.269,0,0,0-.819-2.314,2.981,2.981,0,0,0-2.3-.884,2.981,2.981,0,0,0-2.3.884A3.269,3.269,0,0,0,67.392-6.318ZM79.82-12.636h3.9v2.028h.052a4.794,4.794,0,0,1,1.482-1.755,3.746,3.746,0,0,1,2.158-.585q.338,0,.676.026a3.348,3.348,0,0,1,.624.1v3.562a5.891,5.891,0,0,0-.819-.195,5.3,5.3,0,0,0-.845-.065A4.144,4.144,0,0,0,85.28-9.2a2.347,2.347,0,0,0-1,.871,3.31,3.31,0,0,0-.455,1.339,13.038,13.038,0,0,0-.1,1.716V0h-3.9ZM101.894-2.184A6.223,6.223,0,0,1,99.528-.338a7.087,7.087,0,0,1-2.964.65,7.964,7.964,0,0,1-2.743-.468A6.6,6.6,0,0,1,91.585-1.5a6.284,6.284,0,0,1-1.5-2.093,6.62,6.62,0,0,1-.546-2.73,6.62,6.62,0,0,1,.546-2.73,6.284,6.284,0,0,1,1.5-2.093,6.6,6.6,0,0,1,2.236-1.339,7.964,7.964,0,0,1,2.743-.468,6.24,6.24,0,0,1,2.457.468,5.116,5.116,0,0,1,1.872,1.339,6.1,6.1,0,0,1,1.183,2.093,8.436,8.436,0,0,1,.416,2.73V-5.1H93.444a3.087,3.087,0,0,0,1.014,1.781,2.868,2.868,0,0,0,1.924.663,2.929,2.929,0,0,0,1.625-.429,4.369,4.369,0,0,0,1.157-1.1Zm-3.3-5.564a2.258,2.258,0,0,0-.65-1.69,2.311,2.311,0,0,0-1.742-.7,2.929,2.929,0,0,0-1.144.208,2.867,2.867,0,0,0-.845.533,2.336,2.336,0,0,0-.546.754,2.482,2.482,0,0,0-.221.9Z" transform="translate(22386 -3542)" fill="#555"/>
    <path id="Path_12" data-name="Path 12" d="M0,0" transform="translate(22456.883 -3340.446)" fill="none" stroke="#979797" stroke-linecap="round" stroke-miterlimit="10" stroke-width="3"/>
    <path id="Path_507" data-name="Path 507" d="M35.541,0" transform="translate(22736.604 -3298.222)" fill="none" stroke="#cecdce" stroke-linecap="round" stroke-width="3"/>
    <path id="Path_12-2" data-name="Path 12" d="M0,0" transform="translate(22456.883 -3340.446)" fill="none" stroke="#979797" stroke-linecap="round" stroke-miterlimit="10" stroke-width="3"/>
    <path id="Path_508" data-name="Path 508" d="M35.541,0" transform="translate(22736.604 -3298.222)" fill="none" stroke="#cecdce" stroke-linecap="round" stroke-width="3"/>
    <path id="Path_509" data-name="Path 509" d="M0,0H35.541" transform="translate(22388 -3455.529)" fill="none" stroke="#cecdce" stroke-linecap="round" stroke-width="3"/>
    <path id="Path_510" data-name="Path 510" d="M0,0H35.541" transform="translate(22388 -3417.529)" fill="none" stroke="#cecdce" stroke-linecap="round" stroke-width="3"/>
    <path id="Path_511" data-name="Path 511" d="M0,0H35.541" transform="translate(22388 -3380.529)" fill="none" stroke="#cecdce" stroke-linecap="round" stroke-width="3"/>
    <path id="Path_512" data-name="Path 512" d="M0,0H35.541" transform="translate(22388 -3343.529)" fill="none" stroke="#cecdce" stroke-linecap="round" stroke-width="3"/>
    <path id="Path_513" data-name="Path 513" d="M0,0H35.541" transform="translate(22388 -3306.529)" fill="none" stroke="#cecdce" stroke-linecap="round" stroke-width="3"/>
    <rect id="Rectangle_1308" data-name="Rectangle 1308" width="83" height="33" transform="translate(22452 -3470)" fill="#4bab94"/>
    <rect id="Rectangle_1309" data-name="Rectangle 1309" width="83" height="33" transform="translate(22452 -3435)" fill="#4bab94"/>
    <rect id="Rectangle_1310" data-name="Rectangle 1310" width="83" height="33" transform="translate(22452 -3400)" fill="#88d3bf"/>
    <rect id="Rectangle_1311" data-name="Rectangle 1311" width="83" height="33" transform="translate(22452 -3365)" fill="#4bab94"/>
    <rect id="Rectangle_1312" data-name="Rectangle 1312" width="83" height="33" transform="translate(22452 -3330)" fill="#ffeba5"/>
    <rect id="Rectangle_1313" data-name="Rectangle 1313" width="83" height="33" transform="translate(22540 -3470)" fill="#4bab94"/>
    <rect id="Rectangle_1314" data-name="Rectangle 1314" width="83" height="33" transform="translate(22540 -3435)" fill="#88d3bf"/>
    <rect id="Rectangle_1315" data-name="Rectangle 1315" width="83" height="33" transform="translate(22540 -3400)" fill="#f9d099"/>
    <rect id="Rectangle_1316" data-name="Rectangle 1316" width="83" height="33" transform="translate(22540 -3365)" fill="#f48b02"/>
    <rect id="Rectangle_1317" data-name="Rectangle 1317" width="83" height="33" transform="translate(22540 -3330)" fill="#f47237"/>
    <rect id="Rectangle_1318" data-name="Rectangle 1318" width="83" height="33" transform="translate(22627 -3470)" fill="#88d3bf"/>
    <rect id="Rectangle_1319" data-name="Rectangle 1319" width="83" height="33" transform="translate(22627 -3435)" fill="#ffeba5"/>
    <rect id="Rectangle_1320" data-name="Rectangle 1320" width="83" height="33" transform="translate(22627 -3400)" fill="#ddf5ef"/>
    <rect id="Rectangle_1321" data-name="Rectangle 1321" width="83" height="33" transform="translate(22627 -3365)" fill="#f47237"/>
    <rect id="Rectangle_1322" data-name="Rectangle 1322" width="83" height="33" transform="translate(22627 -3330)" fill="#cf4600"/>
    <rect id="Rectangle_1323" data-name="Rectangle 1323" width="83" height="33" transform="translate(22715 -3470)" fill="#4bab94"/>
    <rect id="Rectangle_1324" data-name="Rectangle 1324" width="83" height="33" transform="translate(22715 -3435)" fill="#88d3bf"/>
    <rect id="Rectangle_1325" data-name="Rectangle 1325" width="83" height="33" transform="translate(22715 -3400)" fill="#f9d099"/>
    <rect id="Rectangle_1326" data-name="Rectangle 1326" width="83" height="33" transform="translate(22715 -3365)" fill="#f48b02"/>
    <rect id="Rectangle_1327" data-name="Rectangle 1327" width="83" height="33" transform="translate(22715 -3330)" fill="#cf4600"/>
    <path id="Path_514" data-name="Path 514" d="M0,0H35.541" transform="translate(22476 -3492.529)" fill="none" stroke="#cecdce" stroke-linecap="round" stroke-width="3"/>
    <path id="Path_515" data-name="Path 515" d="M0,0H35.541" transform="translate(22564 -3492.529)" fill="none" stroke="#cecdce" stroke-linecap="round" stroke-width="3"/>
    <path id="Path_516" data-name="Path 516" d="M0,0H35.541" transform="translate(22651 -3492.529)" fill="none" stroke="#cecdce" stroke-linecap="round" stroke-width="3"/>
    <path id="Path_517" data-name="Path 517" d="M0,0H35.541" transform="translate(22739 -3492.529)" fill="none" stroke="#cecdce" stroke-linecap="round" stroke-width="3"/>
  </g>
</svg>
