<svg xmlns="http://www.w3.org/2000/svg" width="415.541" height="266.876" viewBox="0 0 415.541 266.876">
  <g id="Digital" transform="translate(-815.499 -872.124)">
    <path id="Line_105" data-name="Line 105" d="M0,.5H411.058" transform="translate(818.256 995.391)" fill="none" stroke="rgba(0,0,0,0.08)" stroke-linecap="round" stroke-miterlimit="10" stroke-width="3"/>
    <path id="Path_12" data-name="Path 12" d="M0,0" transform="translate(843.432 1046.167)" fill="none" stroke="#979797" stroke-linecap="round" stroke-miterlimit="10" stroke-width="3"/>
    <g id="Group_93" data-name="Group 93" transform="translate(591.5 -1356)">
      <path id="Path_4" data-name="Path 4" d="M2.856,0V131.876" transform="translate(240.643 2285.589)" fill="none" stroke="#e7e4e4" stroke-linecap="round" stroke-miterlimit="10" stroke-width="3"/>
      <line id="Line_66" data-name="Line 66" x2="35.541" transform="translate(225.499 2431.471)" fill="none" stroke="#cecdce" stroke-linecap="round" stroke-width="3"/>
    </g>
    <circle id="Ellipse_310" data-name="Ellipse 310" cx="14.5" cy="14.5" r="14.5" transform="translate(823 1110)" fill="#cf4600"/>
    <path id="Path_405" data-name="Path 405" d="M.84-7.434a13.815,13.815,0,0,1,.284-3.014,8.226,8.226,0,0,1,.746-2.1,5,5,0,0,1,1.04-1.365,4.5,4.5,0,0,1,1.176-.777,4.589,4.589,0,0,1,1.155-.346,6.645,6.645,0,0,1,.977-.084,6.645,6.645,0,0,1,.977.084,4.589,4.589,0,0,1,1.155.346,4.5,4.5,0,0,1,1.176.777,5,5,0,0,1,1.04,1.365,8.226,8.226,0,0,1,.745,2.1,13.815,13.815,0,0,1,.283,3.014,13.815,13.815,0,0,1-.283,3.014,8.226,8.226,0,0,1-.745,2.1A5,5,0,0,1,9.524-.956a4.5,4.5,0,0,1-1.176.777A4.589,4.589,0,0,1,7.193.168a6.645,6.645,0,0,1-.977.084A6.645,6.645,0,0,1,5.24.168,4.589,4.589,0,0,1,4.084-.179,4.5,4.5,0,0,1,2.909-.956,5,5,0,0,1,1.869-2.32a8.226,8.226,0,0,1-.746-2.1A13.815,13.815,0,0,1,.84-7.434Zm2.52,0a15.842,15.842,0,0,0,.095,1.607,7.345,7.345,0,0,0,.388,1.733A3.692,3.692,0,0,0,4.7-2.709a2.043,2.043,0,0,0,1.512.567,2.043,2.043,0,0,0,1.512-.567,3.692,3.692,0,0,0,.861-1.386,7.345,7.345,0,0,0,.389-1.733,15.842,15.842,0,0,0,.095-1.607A15.842,15.842,0,0,0,8.977-9.04a7.345,7.345,0,0,0-.389-1.733,3.692,3.692,0,0,0-.861-1.386,2.044,2.044,0,0,0-1.512-.567,2.043,2.043,0,0,0-1.512.567,3.692,3.692,0,0,0-.861,1.386A7.345,7.345,0,0,0,3.454-9.04,15.842,15.842,0,0,0,3.36-7.434Z" transform="translate(866 1131)" fill="#555"/>
    <circle id="Ellipse_311" data-name="Ellipse 311" cx="14.5" cy="14.5" r="14.5" transform="translate(891 1110)" fill="#f48b02"/>
    <path id="Path_406" data-name="Path 406" d="M5.628-11.97,2.835-9.387,1.365-11.13l4.494-3.738H8.148V0H5.628Z" transform="translate(933 1131)" fill="#555"/>
    <path id="Path_404" data-name="Path 404" d="M1.872-18.408H7.956a17.365,17.365,0,0,1,4.2.494,9.609,9.609,0,0,1,3.471,1.6,7.833,7.833,0,0,1,2.353,2.873,9.634,9.634,0,0,1,.871,4.29A8.753,8.753,0,0,1,18-5.213a8.47,8.47,0,0,1-2.275,2.86A10.058,10.058,0,0,1,12.428-.6,12.823,12.823,0,0,1,8.5,0H1.872ZM5.928-3.744H8.034a11.335,11.335,0,0,0,2.613-.286,5.584,5.584,0,0,0,2.093-.949,4.551,4.551,0,0,0,1.391-1.742,6.178,6.178,0,0,0,.507-2.639,5.145,5.145,0,0,0-.507-2.353,4.7,4.7,0,0,0-1.365-1.651,5.974,5.974,0,0,0-2.015-.975,8.948,8.948,0,0,0-2.431-.325H5.928ZM21.762-18.408H34.268v3.744h-8.45v3.432H33.8v3.744H25.818v3.744h8.918V0H21.762Zm14.4,0h4.628l4.55,12.064H45.4l4.628-12.064h4.342L46.774,0h-3.25Zm20.072,0h4.056V0H56.238Zm19.786,4.784a3.978,3.978,0,0,0-1.469-1.118,4.888,4.888,0,0,0-2.015-.39,5.071,5.071,0,0,0-2.119.442,5.07,5.07,0,0,0-1.69,1.235,5.756,5.756,0,0,0-1.118,1.885,6.782,6.782,0,0,0-.4,2.366,6.751,6.751,0,0,0,.4,2.379,5.912,5.912,0,0,0,1.105,1.872,5.008,5.008,0,0,0,1.651,1.235,4.774,4.774,0,0,0,2.041.442,4.574,4.574,0,0,0,2.21-.52,4.4,4.4,0,0,0,1.586-1.456l3.38,2.522A7.039,7.039,0,0,1,76.622-.312a9.171,9.171,0,0,1-3.692.78,11.341,11.341,0,0,1-3.978-.676,9.106,9.106,0,0,1-3.146-1.937A8.782,8.782,0,0,1,63.739-5.2,10.4,10.4,0,0,1,63-9.2a10.4,10.4,0,0,1,.741-4,8.782,8.782,0,0,1,2.067-3.055A9.106,9.106,0,0,1,68.952-18.2a11.341,11.341,0,0,1,3.978-.676,9.741,9.741,0,0,1,1.625.143,8.78,8.78,0,0,1,1.664.455,7.416,7.416,0,0,1,1.573.832,6.256,6.256,0,0,1,1.352,1.274Zm5.928-4.784H94.458v3.744h-8.45v3.432H93.99v3.744H86.008v3.744h8.918V0H81.952Zm33.02,4.5a2.889,2.889,0,0,0-1.339-.923,4.8,4.8,0,0,0-1.6-.3,4.19,4.19,0,0,0-.91.1,3.488,3.488,0,0,0-.884.325,1.927,1.927,0,0,0-.676.585,1.481,1.481,0,0,0-.26.884,1.465,1.465,0,0,0,.624,1.274,5.909,5.909,0,0,0,1.573.754q.949.312,2.041.624a8.41,8.41,0,0,1,2.041.884,4.832,4.832,0,0,1,1.573,1.534,4.675,4.675,0,0,1,.624,2.574,5.918,5.918,0,0,1-.572,2.678,5.434,5.434,0,0,1-1.547,1.9A6.583,6.583,0,0,1,113.4.1a9.938,9.938,0,0,1-2.717.364,9.857,9.857,0,0,1-3.328-.546,8.339,8.339,0,0,1-2.86-1.768l2.886-3.172a4.213,4.213,0,0,0,1.573,1.287,4.49,4.49,0,0,0,1.963.455,4.441,4.441,0,0,0,1-.117,3.261,3.261,0,0,0,.91-.351,1.962,1.962,0,0,0,.65-.6,1.491,1.491,0,0,0,.247-.858,1.557,1.557,0,0,0-.637-1.313,5.871,5.871,0,0,0-1.6-.819q-.962-.338-2.08-.676a9.341,9.341,0,0,1-2.08-.91,5.013,5.013,0,0,1-1.6-1.508,4.315,4.315,0,0,1-.637-2.47,5.53,5.53,0,0,1,.585-2.6,5.641,5.641,0,0,1,1.56-1.872,6.782,6.782,0,0,1,2.249-1.131,9.206,9.206,0,0,1,2.626-.377,10.325,10.325,0,0,1,3.016.442,6.956,6.956,0,0,1,2.626,1.482Zm17.862.286a3.978,3.978,0,0,0-1.469-1.118,4.888,4.888,0,0,0-2.015-.39,5.071,5.071,0,0,0-2.119.442,5.07,5.07,0,0,0-1.69,1.235,5.756,5.756,0,0,0-1.118,1.885,6.782,6.782,0,0,0-.4,2.366,6.751,6.751,0,0,0,.4,2.379,5.912,5.912,0,0,0,1.1,1.872,5.008,5.008,0,0,0,1.651,1.235,4.774,4.774,0,0,0,2.041.442,4.574,4.574,0,0,0,2.21-.52,4.4,4.4,0,0,0,1.586-1.456L136.4-2.73a7.039,7.039,0,0,1-2.964,2.418,9.171,9.171,0,0,1-3.692.78,11.341,11.341,0,0,1-3.978-.676,9.106,9.106,0,0,1-3.146-1.937A8.782,8.782,0,0,1,120.549-5.2a10.4,10.4,0,0,1-.741-4,10.4,10.4,0,0,1,.741-4,8.782,8.782,0,0,1,2.067-3.055,9.106,9.106,0,0,1,3.146-1.937,11.341,11.341,0,0,1,3.978-.676,9.741,9.741,0,0,1,1.625.143,8.78,8.78,0,0,1,1.664.455,7.415,7.415,0,0,1,1.573.832,6.256,6.256,0,0,1,1.352,1.274Zm4.784,4.42a10.4,10.4,0,0,1,.741-4,8.782,8.782,0,0,1,2.067-3.055,9.106,9.106,0,0,1,3.146-1.937,11.341,11.341,0,0,1,3.978-.676,11.341,11.341,0,0,1,3.978.676,9.106,9.106,0,0,1,3.146,1.937,8.782,8.782,0,0,1,2.067,3.055,10.4,10.4,0,0,1,.741,4,10.4,10.4,0,0,1-.741,4,8.782,8.782,0,0,1-2.067,3.055,9.106,9.106,0,0,1-3.146,1.937,11.341,11.341,0,0,1-3.978.676,11.341,11.341,0,0,1-3.978-.676,9.106,9.106,0,0,1-3.146-1.937A8.782,8.782,0,0,1,138.359-5.2,10.4,10.4,0,0,1,137.618-9.2Zm4.212,0a6.752,6.752,0,0,0,.4,2.379,5.449,5.449,0,0,0,1.157,1.872A5.281,5.281,0,0,0,145.2-3.718a6.024,6.024,0,0,0,2.353.442,6.024,6.024,0,0,0,2.353-.442,5.281,5.281,0,0,0,1.807-1.235,5.449,5.449,0,0,0,1.157-1.872,6.752,6.752,0,0,0,.4-2.379,6.782,6.782,0,0,0-.4-2.366,5.425,5.425,0,0,0-1.157-1.885A5.281,5.281,0,0,0,149.9-14.69a6.024,6.024,0,0,0-2.353-.442,6.024,6.024,0,0,0-2.353.442,5.281,5.281,0,0,0-1.807,1.235,5.425,5.425,0,0,0-1.157,1.885A6.782,6.782,0,0,0,141.83-9.2Zm18.408-9.2h7.124a12.57,12.57,0,0,1,2.665.273,6.323,6.323,0,0,1,2.21.91,4.534,4.534,0,0,1,1.508,1.716,5.811,5.811,0,0,1,.559,2.691A5.4,5.4,0,0,1,173.29-9.5a4.565,4.565,0,0,1-2.964,1.729L175.006,0h-4.862L166.3-7.358h-2V0h-4.056Zm4.056,7.618h2.392q.546,0,1.157-.039a3.624,3.624,0,0,0,1.1-.234,1.911,1.911,0,0,0,.819-.611,1.86,1.86,0,0,0,.325-1.17,1.943,1.943,0,0,0-.286-1.118,1.907,1.907,0,0,0-.728-.637,3.23,3.23,0,0,0-1.014-.3,8.271,8.271,0,0,0-1.118-.078h-2.652Zm12.948-7.618h12.506v3.744H181.3v3.432h7.982v3.744H181.3v3.744h8.918V0H177.242Z" transform="translate(819 891)" fill="#555"/>
    <g id="Group_94" data-name="Group 94" transform="translate(968.5 -1356)">
      <path id="Path_4-2" data-name="Path 4" d="M2.856,0V131.876" transform="translate(240.643 2285.589)" fill="none" stroke="#e7e4e4" stroke-linecap="round" stroke-miterlimit="10" stroke-width="3"/>
      <line id="Line_66-2" data-name="Line 66" x2="35.541" transform="translate(225.499 2431.471)" fill="none" stroke="#cecdce" stroke-linecap="round" stroke-width="3"/>
    </g>
    <g id="Group_95" data-name="Group 95" transform="translate(666.5 -1356)">
      <path id="Path_4-3" data-name="Path 4" d="M2.856,0V131.876" transform="translate(240.643 2285.589)" fill="none" stroke="#e7e4e4" stroke-linecap="round" stroke-miterlimit="10" stroke-width="3"/>
      <line id="Line_66-3" data-name="Line 66" x2="35.541" transform="translate(225.499 2431.471)" fill="none" stroke="#cecdce" stroke-linecap="round" stroke-width="3"/>
    </g>
    <g id="Group_96" data-name="Group 96" transform="translate(741.499 -1356)">
      <path id="Path_4-4" data-name="Path 4" d="M2.856,0V131.876" transform="translate(240.643 2285.589)" fill="none" stroke="#e7e4e4" stroke-linecap="round" stroke-miterlimit="10" stroke-width="3"/>
      <line id="Line_66-4" data-name="Line 66" x2="35.541" transform="translate(225.499 2431.471)" fill="none" stroke="#cecdce" stroke-linecap="round" stroke-width="3"/>
    </g>
    <g id="Group_97" data-name="Group 97" transform="translate(892.5 -1356)">
      <path id="Path_4-5" data-name="Path 4" d="M2.856,0V131.876" transform="translate(240.643 2285.589)" fill="none" stroke="#e7e4e4" stroke-linecap="round" stroke-miterlimit="10" stroke-width="3"/>
      <line id="Line_66-5" data-name="Line 66" x2="35.541" transform="translate(225.499 2431.471)" fill="none" stroke="#cecdce" stroke-linecap="round" stroke-width="3"/>
    </g>
    <g id="Group_98" data-name="Group 98" transform="translate(817.501 -1356)">
      <path id="Path_4-6" data-name="Path 4" d="M2.856,0V131.876" transform="translate(240.643 2285.589)" fill="none" stroke="#e7e4e4" stroke-linecap="round" stroke-miterlimit="10" stroke-width="3"/>
      <line id="Line_66-6" data-name="Line 66" x2="35.541" transform="translate(225.499 2431.471)" fill="none" stroke="#cecdce" stroke-linecap="round" stroke-width="3"/>
    </g>
    <circle id="Ellipse_314" data-name="Ellipse 314" cx="14.5" cy="14.5" r="14.5" transform="translate(958 1110)" fill="#ffc61f"/>
    <path id="Path_407" data-name="Path 407" d="M1.239-2.667,7.014-8.253q.252-.252.525-.535a4.977,4.977,0,0,0,.494-.6,3.609,3.609,0,0,0,.368-.661,1.837,1.837,0,0,0,.147-.725,1.807,1.807,0,0,0-.179-.819A1.928,1.928,0,0,0,7.9-12.2a2.114,2.114,0,0,0-.683-.389,2.484,2.484,0,0,0-.829-.136,2.24,2.24,0,0,0-1.554.546,2.319,2.319,0,0,0-.735,1.47l-2.646-.21a4.734,4.734,0,0,1,.493-1.817A4.078,4.078,0,0,1,3-14.049a4.593,4.593,0,0,1,1.512-.8,6.154,6.154,0,0,1,1.869-.273,6.488,6.488,0,0,1,1.88.263,4.537,4.537,0,0,1,1.523.777,3.616,3.616,0,0,1,1.029,1.313,4.324,4.324,0,0,1,.378,1.869,4.462,4.462,0,0,1-.641,2.425A9.54,9.54,0,0,1,8.9-6.531L4.3-2.268h6.888V0H1.239Z" transform="translate(1000 1131)" fill="#555"/>
    <circle id="Ellipse_315" data-name="Ellipse 315" cx="14.5" cy="14.5" r="14.5" transform="translate(1025 1110)" fill="#638120"/>
    <path id="Path_408" data-name="Path 408" d="M4.662-8.883h.651a8.721,8.721,0,0,0,1.061-.063A2.738,2.738,0,0,0,7.3-9.219a1.676,1.676,0,0,0,.661-.609A1.988,1.988,0,0,0,8.211-10.9a1.833,1.833,0,0,0-.588-1.407,2.163,2.163,0,0,0-1.533-.546,2.262,2.262,0,0,0-1.354.431,2.432,2.432,0,0,0-.871,1.207L1.2-11.928a4.555,4.555,0,0,1,.714-1.428,4,4,0,0,1,1.092-1,4.874,4.874,0,0,1,1.386-.578,6.47,6.47,0,0,1,1.575-.189,6.473,6.473,0,0,1,1.827.252,4.628,4.628,0,0,1,1.512.745,3.647,3.647,0,0,1,1.04,1.239,3.7,3.7,0,0,1,.389,1.733,3.559,3.559,0,0,1-.672,2.131A3.139,3.139,0,0,1,8.19-7.791v.042a3.1,3.1,0,0,1,2.163,1.218,3.953,3.953,0,0,1,.735,2.394,4.172,4.172,0,0,1-.41,1.89,4.08,4.08,0,0,1-1.1,1.376,4.817,4.817,0,0,1-1.607.84,6.375,6.375,0,0,1-1.9.284,7.345,7.345,0,0,1-1.743-.2,4.906,4.906,0,0,1-1.481-.62A4.2,4.2,0,0,1,1.7-1.649,4.8,4.8,0,0,1,.966-3.234l2.688-.714A2.669,2.669,0,0,0,4.473-2.52a2.371,2.371,0,0,0,1.6.5,2.717,2.717,0,0,0,.956-.168,2.537,2.537,0,0,0,.8-.472,2.194,2.194,0,0,0,.546-.735,2.245,2.245,0,0,0,.2-.955,2.045,2.045,0,0,0-.3-1.165,2.052,2.052,0,0,0-.777-.693,3.356,3.356,0,0,0-1.061-.325,8.161,8.161,0,0,0-1.155-.084H4.662Z" transform="translate(1067 1131)" fill="#555"/>
    <g id="Ellipse_316" data-name="Ellipse 316" transform="translate(876 981)" fill="rgba(244,139,2,0.5)" stroke="#f48b02" stroke-width="2">
      <circle cx="14.5" cy="14.5" r="14.5" stroke="none"/>
      <circle cx="14.5" cy="14.5" r="13.5" fill="none"/>
    </g>
    <g id="Ellipse_317" data-name="Ellipse 317" transform="translate(968 981)" fill="rgba(99,129,32,0.5)" stroke="#638120" stroke-width="2">
      <circle cx="14.5" cy="14.5" r="14.5" stroke="none"/>
      <circle cx="14.5" cy="14.5" r="13.5" fill="none"/>
    </g>
    <g id="Ellipse_318" data-name="Ellipse 318" transform="translate(1020 981)" fill="rgba(207,70,0,0.5)" stroke="#cc4500" stroke-width="2">
      <circle cx="14.5" cy="14.5" r="14.5" stroke="none"/>
      <circle cx="14.5" cy="14.5" r="13.5" fill="none"/>
    </g>
    <g id="Ellipse_319" data-name="Ellipse 319" transform="translate(1144 981)" fill="rgba(255,198,31,0.5)" stroke="#ffc61f" stroke-width="2">
      <circle cx="14.5" cy="14.5" r="14.5" stroke="none"/>
      <circle cx="14.5" cy="14.5" r="13.5" fill="none"/>
    </g>
    <circle id="Ellipse_326" data-name="Ellipse 326" cx="14.5" cy="14.5" r="14.5" transform="translate(1092 1110)" fill="#358976"/>
    <path id="Path_409" data-name="Path 409" d="M7.035-3.024H.714v-2.5L6.7-14.868H9.555v9.576h2.163v2.268H9.555V0H7.035Zm0-8.274H6.993L3.276-5.292H7.035Z" transform="translate(1134 1131)" fill="#555"/>
    <circle id="Ellipse_327" data-name="Ellipse 327" cx="14.5" cy="14.5" r="14.5" transform="translate(1159 1110)" fill="#141413"/>
    <path id="Path_410" data-name="Path 410" d="M10.6-12.6H4.62L4.557-9.639A3.113,3.113,0,0,1,5.3-9.786q.452-.042.851-.042a5.612,5.612,0,0,1,2.005.347,4.375,4.375,0,0,1,1.564,1A4.646,4.646,0,0,1,10.741-6.93a5.362,5.362,0,0,1,.367,2.037A5.414,5.414,0,0,1,10.7-2.74,4.623,4.623,0,0,1,9.566-1.123,5.057,5.057,0,0,1,7.854-.1,6.189,6.189,0,0,1,5.733.252,5.313,5.313,0,0,1,2.7-.588,4.551,4.551,0,0,1,.924-3.15L3.57-3.864A2.463,2.463,0,0,0,4.431-2.6a2.535,2.535,0,0,0,1.575.462,2.775,2.775,0,0,0,1.039-.189,2.409,2.409,0,0,0,.819-.535A2.435,2.435,0,0,0,8.4-3.675a2.637,2.637,0,0,0,.189-1.008,2.842,2.842,0,0,0-.283-1.323A2.5,2.5,0,0,0,7.539-6.9a3.233,3.233,0,0,0-1.113-.5A5.436,5.436,0,0,0,5.1-7.56a7.127,7.127,0,0,0-1.628.189A6.718,6.718,0,0,0,2-6.846l.147-8.022H10.6Z" transform="translate(1201 1131)" fill="#555"/>
    <g id="Ellipse_328" data-name="Ellipse 328" transform="translate(1054 981)" fill="rgba(53,137,118,0.5)" stroke="#358976" stroke-width="2">
      <circle cx="14.5" cy="14.5" r="14.5" stroke="none"/>
      <circle cx="14.5" cy="14.5" r="13.5" fill="none"/>
    </g>
    <g id="Ellipse_329" data-name="Ellipse 329" transform="translate(1174 981)" fill="rgba(20,20,19,0.5)" stroke="#141413" stroke-width="2">
      <circle cx="14.5" cy="14.5" r="14.5" stroke="none"/>
      <circle cx="14.5" cy="14.5" r="13.5" fill="none"/>
    </g>
  </g>
</svg>
