<svg xmlns="http://www.w3.org/2000/svg" width="412" height="263.686" viewBox="0 0 412 263.686">
  <g id="FII" transform="translate(-139 -872.592)">
    <path id="Path_397" data-name="Path 397" d="M2.028-18.408h12.35v3.744H6.084v3.744h7.67v3.744H6.084V0H2.028Zm15.262,0h7.124a12.57,12.57,0,0,1,2.665.273,6.323,6.323,0,0,1,2.21.91A4.534,4.534,0,0,1,30.8-15.509a5.811,5.811,0,0,1,.559,2.691A5.4,5.4,0,0,1,30.342-9.5a4.565,4.565,0,0,1-2.964,1.729L32.058,0H27.2L23.348-7.358h-2V0H17.29Zm4.056,7.618h2.392q.546,0,1.157-.039a3.624,3.624,0,0,0,1.1-.234,1.911,1.911,0,0,0,.819-.611,1.86,1.86,0,0,0,.325-1.17,1.943,1.943,0,0,0-.286-1.118,1.907,1.907,0,0,0-.728-.637,3.23,3.23,0,0,0-1.014-.3A8.271,8.271,0,0,0,24-14.976H21.346ZM40.2-18.408H43.55L51.558,0H46.982L45.4-3.9h-7.15L36.712,0H32.24Zm1.56,5.356L39.52-7.332h4.5ZM68.926-7.1a8.878,8.878,0,0,1-.494,3.016A6.637,6.637,0,0,1,66.963-1.69,6.729,6.729,0,0,1,64.532-.1a9.128,9.128,0,0,1-3.354.572A9.206,9.206,0,0,1,57.8-.1,6.729,6.729,0,0,1,55.367-1.69,6.637,6.637,0,0,1,53.9-4.082,8.878,8.878,0,0,1,53.4-7.1v-11.31H57.46V-7.254a4.482,4.482,0,0,0,.273,1.586A3.789,3.789,0,0,0,58.5-4.407a3.483,3.483,0,0,0,1.183.832,3.715,3.715,0,0,0,1.495.3,3.623,3.623,0,0,0,1.482-.3,3.517,3.517,0,0,0,1.17-.832A3.789,3.789,0,0,0,64.6-5.668a4.482,4.482,0,0,0,.273-1.586V-18.408h4.056Zm3.744-11.31h6.084a17.365,17.365,0,0,1,4.2.494,9.609,9.609,0,0,1,3.471,1.6,7.833,7.833,0,0,1,2.353,2.873,9.634,9.634,0,0,1,.871,4.29A8.753,8.753,0,0,1,88.8-5.213a8.47,8.47,0,0,1-2.275,2.86A10.058,10.058,0,0,1,83.226-.6,12.823,12.823,0,0,1,79.3,0H72.67ZM76.726-3.744h2.106a11.335,11.335,0,0,0,2.613-.286,5.584,5.584,0,0,0,2.093-.949,4.551,4.551,0,0,0,1.391-1.742,6.178,6.178,0,0,0,.507-2.639,5.145,5.145,0,0,0-.507-2.353,4.7,4.7,0,0,0-1.365-1.651,5.974,5.974,0,0,0-2.015-.975,8.948,8.948,0,0,0-2.431-.325H76.726Z" transform="translate(139 891)" fill="#555"/>
    <path id="Path_398" data-name="Path 398" d="M1.659-14.868H4.3V-2.394h6.321V0H1.659Zm15.708,0h2.289L26.061,0H23.037L21.651-3.4H15.2L13.86,0H10.9Zm3.36,9.2-2.289-6.048L16.107-5.67Zm6.888,6.678L25.872.378l6.552-16.3,1.743.672ZM46.1-11.382a4.431,4.431,0,0,0-1.586-1.176,4.281,4.281,0,0,0-1.543-.294,5.153,5.153,0,0,0-2.09.41,4.781,4.781,0,0,0-1.606,1.134,5.151,5.151,0,0,0-1.04,1.691,5.8,5.8,0,0,0-.368,2.079,6.393,6.393,0,0,0,.368,2.2,5.179,5.179,0,0,0,1.04,1.743,4.837,4.837,0,0,0,1.606,1.155,5.041,5.041,0,0,0,2.09.42,3.839,3.839,0,0,0,1.753-.431,4.786,4.786,0,0,0,1.586-1.375l2.184,1.554A5.95,5.95,0,0,1,46.032-.252a7.658,7.658,0,0,1-3.087.63,8.69,8.69,0,0,1-3.16-.557,7.211,7.211,0,0,1-2.478-1.575A7.236,7.236,0,0,1,35.679-4.2a8.254,8.254,0,0,1-.588-3.171,8.61,8.61,0,0,1,.588-3.245A7.28,7.28,0,0,1,37.306-13.1a7.134,7.134,0,0,1,2.478-1.586,8.69,8.69,0,0,1,3.16-.556,7.247,7.247,0,0,1,2.8.535,6.536,6.536,0,0,1,2.4,1.817Z" transform="translate(139 948)" fill="#555"/>
    <path id="Path_403" data-name="Path 403" d="M1.722-14.868H5.754L9.723-4.452l4.011-10.416h3.99V0H15.2V-12.348h-.042L10.647,0H8.8L4.284-12.348H4.242V0H1.722Zm19.383,0h9.849v2.394h-7.2V-8.82h6.825v2.394H23.751v4.032h7.581V0H21.1ZM33.831,1.008,32.088.378l6.552-16.3,1.743.672ZM46.914-14.868H49.2L55.608,0H52.584L51.2-3.4H44.751L43.407,0H40.446Zm3.36,9.2-2.289-6.048L45.654-5.67Z" transform="translate(139 1134)" fill="#555"/>
    <path id="Path_402" data-name="Path 402" d="M1.659-14.868h9.849v2.394H4.3V-8.82H11.13v2.394H4.3v4.032h7.581V0H1.659ZM26.4-5.46a6.116,6.116,0,0,1-.462,2.425A5.438,5.438,0,0,1,24.675-1.2a5.542,5.542,0,0,1-1.89,1.166,6.706,6.706,0,0,1-2.373.409,6.706,6.706,0,0,1-2.373-.409,5.657,5.657,0,0,1-1.9-1.166,5.246,5.246,0,0,1-1.26-1.838,6.241,6.241,0,0,1-.451-2.425v-9.408h2.646v9.324A4.234,4.234,0,0,0,17.241-4.4,3.215,3.215,0,0,0,17.8-3.3a2.974,2.974,0,0,0,1.029.83,3.476,3.476,0,0,0,1.586.326A3.476,3.476,0,0,0,22-2.467a2.974,2.974,0,0,0,1.029-.83,3.215,3.215,0,0,0,.556-1.1,4.234,4.234,0,0,0,.168-1.145v-9.324H26.4Zm3.255-9.408h5.166a10.524,10.524,0,0,1,2.069.2,5.3,5.3,0,0,1,1.774.682,3.57,3.57,0,0,1,1.239,1.3,4.193,4.193,0,0,1,.462,2.079A4.14,4.14,0,0,1,39.47-7.9a3.828,3.828,0,0,1-2.552,1.323L40.866,0H37.674L34.23-6.3H32.3V0H29.652Zm4.7,6.3q.567,0,1.134-.052a3.482,3.482,0,0,0,1.04-.252,1.774,1.774,0,0,0,.766-.609,1.935,1.935,0,0,0,.294-1.144,1.826,1.826,0,0,0-.273-1.05,1.7,1.7,0,0,0-.714-.6,3.287,3.287,0,0,0-.977-.262,8.9,8.9,0,0,0-1.039-.063H32.3v4.032Z" transform="translate(139 1097)" fill="#555"/>
    <path id="Path_401" data-name="Path 401" d="M11.865-11.382a4.431,4.431,0,0,0-1.585-1.176,4.281,4.281,0,0,0-1.543-.294,5.153,5.153,0,0,0-2.089.41A4.781,4.781,0,0,0,5.04-11.309,5.151,5.151,0,0,0,4-9.618a5.8,5.8,0,0,0-.368,2.079A6.393,6.393,0,0,0,4-5.334,5.179,5.179,0,0,0,5.04-3.591,4.837,4.837,0,0,0,6.647-2.436a5.041,5.041,0,0,0,2.089.42,3.839,3.839,0,0,0,1.753-.431,4.786,4.786,0,0,0,1.585-1.375l2.184,1.554A5.95,5.95,0,0,1,11.8-.252a7.658,7.658,0,0,1-3.087.63A8.69,8.69,0,0,1,5.554-.179,7.211,7.211,0,0,1,3.077-1.753,7.236,7.236,0,0,1,1.449-4.2,8.254,8.254,0,0,1,.861-7.371a8.61,8.61,0,0,1,.588-3.245A7.28,7.28,0,0,1,3.077-13.1,7.134,7.134,0,0,1,5.554-14.69a8.69,8.69,0,0,1,3.161-.556,7.247,7.247,0,0,1,2.8.535,6.536,6.536,0,0,1,2.4,1.817Zm8.988-3.486h2.289L29.547,0H26.523L25.137-3.4H18.69L17.346,0H14.385Zm3.36,9.2-2.289-6.048L19.593-5.67Zm6.993-9.2h3.507l7.2,11.046h.042V-14.868H44.6V0h-3.36l-7.35-11.4h-.042V0H31.206Z" transform="translate(139 1060)" fill="#555"/>
    <path id="Path_400" data-name="Path 400" d="M13.566-5.46A6.116,6.116,0,0,1,13.1-3.035,5.438,5.438,0,0,1,11.844-1.2,5.542,5.542,0,0,1,9.954-.032,6.706,6.706,0,0,1,7.581.378,6.706,6.706,0,0,1,5.208-.032,5.657,5.657,0,0,1,3.307-1.2a5.246,5.246,0,0,1-1.26-1.838A6.241,6.241,0,0,1,1.6-5.46v-9.408H4.242v9.324A4.234,4.234,0,0,0,4.41-4.4a3.215,3.215,0,0,0,.556,1.1A2.974,2.974,0,0,0,6-2.467a3.476,3.476,0,0,0,1.586.326,3.476,3.476,0,0,0,1.586-.326A2.974,2.974,0,0,0,10.2-3.3a3.215,3.215,0,0,0,.557-1.1,4.234,4.234,0,0,0,.168-1.145v-9.324h2.646Zm10.542-6.216a2.441,2.441,0,0,0-1.123-.893,3.924,3.924,0,0,0-1.481-.283,3.753,3.753,0,0,0-.892.1,2.423,2.423,0,0,0-.777.336,1.755,1.755,0,0,0-.556.6,1.728,1.728,0,0,0-.21.871,1.362,1.362,0,0,0,.525,1.155,5.162,5.162,0,0,0,1.3.693q.777.294,1.7.567a6.916,6.916,0,0,1,1.7.756,4.207,4.207,0,0,1,1.3,1.281,3.807,3.807,0,0,1,.525,2.121,4.664,4.664,0,0,1-.441,2.09A4.258,4.258,0,0,1,24.5-.8a5.13,5.13,0,0,1-1.733.882,7.245,7.245,0,0,1-2.079.294,7.8,7.8,0,0,1-2.667-.462,5.138,5.138,0,0,1-2.2-1.554l2-1.932a3.336,3.336,0,0,0,1.27,1.144,3.568,3.568,0,0,0,1.67.41,3.5,3.5,0,0,0,.924-.126,2.858,2.858,0,0,0,.84-.378,1.972,1.972,0,0,0,.609-.641,1.713,1.713,0,0,0,.231-.892,1.554,1.554,0,0,0-.525-1.26,4.638,4.638,0,0,0-1.3-.746q-.777-.3-1.7-.577a7.163,7.163,0,0,1-1.7-.746,4.137,4.137,0,0,1-1.3-1.26,3.753,3.753,0,0,1-.525-2.111,4.005,4.005,0,0,1,.472-1.995,4.321,4.321,0,0,1,1.239-1.4,5.409,5.409,0,0,1,1.753-.829,7.528,7.528,0,0,1,2.016-.273,7.35,7.35,0,0,1,2.278.357,5.281,5.281,0,0,1,1.985,1.176Z" transform="translate(139 1022)" fill="#555"/>
    <path id="Path_399" data-name="Path 399" d="M6.468-14.868H8.757L15.162,0H12.138L10.752-3.4H4.3L2.961,0H0Zm3.36,9.2L7.539-11.718,5.208-5.67Zm6.888,6.678L14.973.378l6.552-16.3,1.743.672ZM24.99-14.868h5a10.016,10.016,0,0,1,2.069.21,5.1,5.1,0,0,1,1.753.7,3.61,3.61,0,0,1,1.208,1.323,4.286,4.286,0,0,1,.451,2.068A4.621,4.621,0,0,1,34.986-8.3a3.457,3.457,0,0,1-1.3,1.334,5.439,5.439,0,0,1-1.9.64,14.7,14.7,0,0,1-2.258.168h-1.89V0H24.99Zm4.242,6.447q.567,0,1.176-.042a3.612,3.612,0,0,0,1.124-.252,1.994,1.994,0,0,0,.84-.63,1.88,1.88,0,0,0,.326-1.176,1.854,1.854,0,0,0-.294-1.1,1.947,1.947,0,0,0-.756-.63,3.189,3.189,0,0,0-1.029-.283,9.9,9.9,0,0,0-1.092-.063h-1.89v4.179Z" transform="translate(139 985)" fill="#555"/>
    <path id="Path_12" data-name="Path 12" d="M0,0" transform="translate(209.882 1092.554)" fill="none" stroke="#979797" stroke-linecap="round" stroke-miterlimit="10" stroke-width="3"/>
    <path id="Path_361" data-name="Path 361" d="M35.541,0" transform="translate(489.604 1134.778)" fill="none" stroke="#cecdce" stroke-linecap="round" stroke-width="3"/>
    <path id="Line_103" data-name="Line 103" d="M0,.5H205.189" transform="translate(377.001 929.589) rotate(90)" fill="none" stroke="rgba(0,0,0,0.08)" stroke-linecap="round" stroke-miterlimit="10" stroke-width="3"/>
    <path id="Line_103-2" data-name="Line 103" d="M0,.5H205.189" transform="translate(291.001 929.589) rotate(90)" fill="none" stroke="rgba(0,0,0,0.08)" stroke-linecap="round" stroke-miterlimit="10" stroke-width="3"/>
    <path id="Line_103-3" data-name="Line 103" d="M0,.5H205.189" transform="translate(550 929.589) rotate(90)" fill="none" stroke="rgba(0,0,0,0.08)" stroke-linecap="round" stroke-miterlimit="10" stroke-width="3"/>
    <path id="Path_12-2" data-name="Path 12" d="M0,0" transform="translate(209.883 1092.554)" fill="none" stroke="#979797" stroke-linecap="round" stroke-miterlimit="10" stroke-width="3"/>
    <path id="Path_365" data-name="Path 365" d="M35.541,0" transform="translate(489.604 1134.778)" fill="none" stroke="#cecdce" stroke-linecap="round" stroke-width="3"/>
    <rect id="Rectangle_989" data-name="Rectangle 989" width="76" height="25" transform="translate(463 929)" fill="#17b2e2"/>
    <rect id="Rectangle_990" data-name="Rectangle 990" width="37" height="25" transform="translate(464 965)" fill="#ab55a3"/>
    <rect id="Rectangle_991" data-name="Rectangle 991" width="80" height="25" transform="translate(383 1001)" fill="#e64d42"/>
    <rect id="Rectangle_992" data-name="Rectangle 992" width="139" height="25" transform="translate(324 1038)" fill="#f18702"/>
    <rect id="Rectangle_993" data-name="Rectangle 993" width="221" height="25" transform="translate(244 1074)" fill="#018d68"/>
    <rect id="Rectangle_994" data-name="Rectangle 994" width="243" height="25" transform="translate(220 1110)" fill="#95a1ae"/>
    <path id="Line_103-4" data-name="Line 103" d="M0,.5H205.189" transform="translate(464 929.589) rotate(90)" fill="none" stroke="#e7e4e4" stroke-linecap="round" stroke-miterlimit="10" stroke-width="3"/>
    <g id="Group_100" data-name="Group 100" transform="translate(-729 -3240)">
      <path id="Path_5" data-name="Path 5" d="M0,1H2.946" transform="translate(929.481 4328.5)" fill="none" stroke="#bbb" stroke-linecap="round" stroke-miterlimit="10" stroke-width="3"/>
      <path id="Path_5_Copy" data-name="Path 5 Copy" d="M0,1H2.946" transform="translate(929.481 4291.5)" fill="none" stroke="#bbb" stroke-linecap="round" stroke-miterlimit="10" stroke-width="3"/>
      <path id="Path_5_Copy_2" data-name="Path 5 Copy 2" d="M0,1H2.946" transform="translate(929.481 4216.5)" fill="none" stroke="#bbb" stroke-linecap="round" stroke-miterlimit="10" stroke-width="3"/>
      <path id="Path_4" data-name="Path 4" d="M2.856,0V205.073" transform="translate(929.602 4169.589)" fill="none" stroke="#c1c1c1" stroke-linecap="round" stroke-miterlimit="10" stroke-width="3"/>
      <path id="Path_12-3" data-name="Path 12" d="M0,0" transform="translate(938.432 4359.364)" fill="none" stroke="#979797" stroke-linecap="round" stroke-miterlimit="10" stroke-width="3"/>
      <path id="Path_5-2" data-name="Path 5" d="M0,1H2.946" transform="translate(929.48 4365.5)" fill="none" stroke="#bbb" stroke-linecap="round" stroke-miterlimit="10" stroke-width="3"/>
      <path id="Path_5_Copy-2" data-name="Path 5 Copy" d="M0,1H2.946" transform="translate(929.48 4254.5)" fill="none" stroke="#bbb" stroke-linecap="round" stroke-miterlimit="10" stroke-width="3"/>
      <path id="Path_5_Copy-3" data-name="Path 5 Copy" d="M0,1H2.946" transform="translate(929.48 4179.5)" fill="none" stroke="#bbb" stroke-linecap="round" stroke-miterlimit="10" stroke-width="3"/>
    </g>
  </g>
</svg>
