<svg xmlns="http://www.w3.org/2000/svg" width="411.5" height="264.039" viewBox="0 0 411.5 264.039">
  <g id="Froud_BPS" data-name="Froud BPS" transform="translate(-21456.5 4541.876)">
    <path id="Path_459" data-name="Path 459" d="M18.538-1.3A14.683,14.683,0,0,1,14.794.052a19.013,19.013,0,0,1-3.978.416A11.341,11.341,0,0,1,6.838-.208,9.106,9.106,0,0,1,3.692-2.145,8.782,8.782,0,0,1,1.625-5.2a10.4,10.4,0,0,1-.741-4,10.4,10.4,0,0,1,.741-4,8.782,8.782,0,0,1,2.067-3.055A9.106,9.106,0,0,1,6.838-18.2a11.341,11.341,0,0,1,3.978-.676,14.723,14.723,0,0,1,4.069.533,7.967,7.967,0,0,1,3.263,1.833l-2.86,3.12a5.7,5.7,0,0,0-1.872-1.3,6.671,6.671,0,0,0-2.6-.442,6.024,6.024,0,0,0-2.353.442,5.281,5.281,0,0,0-1.807,1.235A5.425,5.425,0,0,0,5.5-11.57,6.782,6.782,0,0,0,5.1-9.2a6.751,6.751,0,0,0,.4,2.379A5.449,5.449,0,0,0,6.656-4.953,5.281,5.281,0,0,0,8.463-3.718a6.024,6.024,0,0,0,2.353.442,7.752,7.752,0,0,0,2.288-.3,8.635,8.635,0,0,0,1.534-.611v-2.99h-3.3V-10.92h7.2ZM22.1-18.408h7.124a12.57,12.57,0,0,1,2.665.273,6.323,6.323,0,0,1,2.21.91,4.534,4.534,0,0,1,1.508,1.716,5.811,5.811,0,0,1,.559,2.691A5.4,5.4,0,0,1,35.152-9.5a4.565,4.565,0,0,1-2.964,1.729L36.868,0H32.006L28.158-7.358h-2V0H22.1Zm4.056,7.618h2.392q.546,0,1.157-.039a3.624,3.624,0,0,0,1.105-.234,1.911,1.911,0,0,0,.819-.611,1.86,1.86,0,0,0,.325-1.17,1.943,1.943,0,0,0-.286-1.118,1.907,1.907,0,0,0-.728-.637,3.23,3.23,0,0,0-1.014-.3,8.271,8.271,0,0,0-1.118-.078H26.156ZM37.96-9.2a10.4,10.4,0,0,1,.741-4,8.782,8.782,0,0,1,2.067-3.055A9.106,9.106,0,0,1,43.914-18.2a11.341,11.341,0,0,1,3.978-.676,11.341,11.341,0,0,1,3.978.676,9.106,9.106,0,0,1,3.146,1.937,8.782,8.782,0,0,1,2.067,3.055,10.4,10.4,0,0,1,.741,4,10.4,10.4,0,0,1-.741,4,8.782,8.782,0,0,1-2.067,3.055A9.106,9.106,0,0,1,51.87-.208a11.341,11.341,0,0,1-3.978.676,11.341,11.341,0,0,1-3.978-.676,9.106,9.106,0,0,1-3.146-1.937A8.782,8.782,0,0,1,38.7-5.2,10.4,10.4,0,0,1,37.96-9.2Zm4.212,0a6.751,6.751,0,0,0,.4,2.379,5.449,5.449,0,0,0,1.157,1.872,5.281,5.281,0,0,0,1.807,1.235,6.024,6.024,0,0,0,2.353.442,6.024,6.024,0,0,0,2.353-.442,5.281,5.281,0,0,0,1.807-1.235,5.449,5.449,0,0,0,1.157-1.872,6.751,6.751,0,0,0,.4-2.379,6.782,6.782,0,0,0-.4-2.366,5.425,5.425,0,0,0-1.157-1.885,5.281,5.281,0,0,0-1.807-1.235,6.024,6.024,0,0,0-2.353-.442,6.024,6.024,0,0,0-2.353.442,5.281,5.281,0,0,0-1.807,1.235,5.425,5.425,0,0,0-1.157,1.885A6.782,6.782,0,0,0,42.172-9.2ZM69.68-13.91a2.889,2.889,0,0,0-1.339-.923,4.8,4.8,0,0,0-1.6-.3,4.19,4.19,0,0,0-.91.1,3.488,3.488,0,0,0-.884.325,1.927,1.927,0,0,0-.676.585,1.481,1.481,0,0,0-.26.884,1.465,1.465,0,0,0,.624,1.274,5.909,5.909,0,0,0,1.573.754q.949.312,2.041.624a8.41,8.41,0,0,1,2.041.884,4.832,4.832,0,0,1,1.573,1.534,4.675,4.675,0,0,1,.624,2.574,5.918,5.918,0,0,1-.572,2.678,5.434,5.434,0,0,1-1.547,1.9A6.583,6.583,0,0,1,68.107.1,9.938,9.938,0,0,1,65.39.468a9.856,9.856,0,0,1-3.328-.546A8.34,8.34,0,0,1,59.2-1.846l2.886-3.172a4.213,4.213,0,0,0,1.573,1.287,4.49,4.49,0,0,0,1.963.455,4.441,4.441,0,0,0,1-.117,3.261,3.261,0,0,0,.91-.351,1.962,1.962,0,0,0,.65-.6,1.491,1.491,0,0,0,.247-.858,1.557,1.557,0,0,0-.637-1.313,5.871,5.871,0,0,0-1.6-.819q-.962-.338-2.08-.676a9.341,9.341,0,0,1-2.08-.91,5.013,5.013,0,0,1-1.6-1.508A4.315,4.315,0,0,1,59.8-12.9a5.53,5.53,0,0,1,.585-2.6,5.641,5.641,0,0,1,1.56-1.872A6.782,6.782,0,0,1,64.194-18.5a9.206,9.206,0,0,1,2.626-.377,10.325,10.325,0,0,1,3.016.442,6.956,6.956,0,0,1,2.626,1.482Zm14.924,0a2.889,2.889,0,0,0-1.339-.923,4.8,4.8,0,0,0-1.6-.3,4.19,4.19,0,0,0-.91.1,3.488,3.488,0,0,0-.884.325,1.927,1.927,0,0,0-.676.585,1.481,1.481,0,0,0-.26.884,1.465,1.465,0,0,0,.624,1.274,5.909,5.909,0,0,0,1.573.754q.949.312,2.041.624a8.41,8.41,0,0,1,2.041.884,4.832,4.832,0,0,1,1.573,1.534,4.675,4.675,0,0,1,.624,2.574,5.918,5.918,0,0,1-.572,2.678,5.434,5.434,0,0,1-1.547,1.9A6.583,6.583,0,0,1,83.031.1a9.938,9.938,0,0,1-2.717.364,9.857,9.857,0,0,1-3.328-.546,8.339,8.339,0,0,1-2.86-1.768l2.886-3.172a4.213,4.213,0,0,0,1.573,1.287,4.49,4.49,0,0,0,1.963.455,4.441,4.441,0,0,0,1-.117,3.261,3.261,0,0,0,.91-.351,1.962,1.962,0,0,0,.65-.6,1.491,1.491,0,0,0,.247-.858,1.557,1.557,0,0,0-.637-1.313,5.871,5.871,0,0,0-1.6-.819q-.962-.338-2.08-.676a9.341,9.341,0,0,1-2.08-.91,5.013,5.013,0,0,1-1.6-1.508,4.315,4.315,0,0,1-.637-2.47,5.53,5.53,0,0,1,.585-2.6,5.641,5.641,0,0,1,1.56-1.872A6.782,6.782,0,0,1,79.118-18.5a9.206,9.206,0,0,1,2.626-.377,10.325,10.325,0,0,1,3.016.442,6.956,6.956,0,0,1,2.626,1.482Zm13.676-4.5h12.35v3.744h-8.294v3.744h7.67v3.744h-7.67V0H98.28Zm15.262,0h7.124a12.57,12.57,0,0,1,2.665.273,6.323,6.323,0,0,1,2.21.91,4.534,4.534,0,0,1,1.508,1.716,5.811,5.811,0,0,1,.559,2.691A5.4,5.4,0,0,1,126.594-9.5a4.565,4.565,0,0,1-2.964,1.729L128.31,0h-4.862L119.6-7.358h-2V0h-4.056ZM117.6-10.79h2.392q.546,0,1.157-.039a3.624,3.624,0,0,0,1.105-.234,1.911,1.911,0,0,0,.819-.611,1.86,1.86,0,0,0,.325-1.17,1.943,1.943,0,0,0-.286-1.118,1.907,1.907,0,0,0-.728-.637,3.229,3.229,0,0,0-1.014-.3,8.271,8.271,0,0,0-1.118-.078H117.6Zm18.85-7.618H139.8L147.81,0h-4.576l-1.586-3.9H134.5L132.964,0h-4.472Zm1.56,5.356-2.236,5.72h4.5ZM165.178-7.1a8.878,8.878,0,0,1-.494,3.016,6.637,6.637,0,0,1-1.469,2.392A6.729,6.729,0,0,1,160.784-.1a9.128,9.128,0,0,1-3.354.572A9.206,9.206,0,0,1,154.05-.1a6.729,6.729,0,0,1-2.431-1.586,6.637,6.637,0,0,1-1.469-2.392,8.878,8.878,0,0,1-.494-3.016v-11.31h4.056V-7.254a4.482,4.482,0,0,0,.273,1.586,3.789,3.789,0,0,0,.767,1.261,3.483,3.483,0,0,0,1.183.832,3.715,3.715,0,0,0,1.495.3,3.623,3.623,0,0,0,1.482-.3,3.517,3.517,0,0,0,1.17-.832,3.789,3.789,0,0,0,.767-1.261,4.482,4.482,0,0,0,.273-1.586V-18.408h4.056Zm3.744-11.31h6.084a17.365,17.365,0,0,1,4.2.494,9.609,9.609,0,0,1,3.471,1.6,7.833,7.833,0,0,1,2.353,2.873,9.633,9.633,0,0,1,.871,4.29,8.753,8.753,0,0,1-.845,3.939,8.47,8.47,0,0,1-2.275,2.86,10.058,10.058,0,0,1-3.3,1.755,12.823,12.823,0,0,1-3.926.6h-6.63Zm4.056,14.664h2.106A11.335,11.335,0,0,0,177.7-4.03a5.584,5.584,0,0,0,2.093-.949,4.551,4.551,0,0,0,1.391-1.742,6.178,6.178,0,0,0,.507-2.639,5.145,5.145,0,0,0-.507-2.353,4.7,4.7,0,0,0-1.365-1.651,5.974,5.974,0,0,0-2.015-.975,8.948,8.948,0,0,0-2.431-.325h-2.392Zm23.374-14.664h6.864a17.354,17.354,0,0,1,2.4.169,6.569,6.569,0,0,1,2.171.676,4.157,4.157,0,0,1,1.56,1.417,4.343,4.343,0,0,1,.6,2.418,3.861,3.861,0,0,1-.871,2.587,4.789,4.789,0,0,1-2.3,1.469v.052a5.252,5.252,0,0,1,1.651.507,4.41,4.41,0,0,1,1.274.962,4.1,4.1,0,0,1,.819,1.365,4.8,4.8,0,0,1,.286,1.664,4.425,4.425,0,0,1-.624,2.431,4.906,4.906,0,0,1-1.612,1.573,7.069,7.069,0,0,1-2.223.858,11.9,11.9,0,0,1-2.457.26h-7.54Zm4.056,7.358h2.938a4.129,4.129,0,0,0,.923-.1,2.553,2.553,0,0,0,.819-.338,1.76,1.76,0,0,0,.585-.624,1.869,1.869,0,0,0,.221-.936,1.7,1.7,0,0,0-.247-.949,1.718,1.718,0,0,0-.637-.585,3.035,3.035,0,0,0-.884-.3,5.306,5.306,0,0,0-.962-.091h-2.756Zm0,7.618h3.64a4.481,4.481,0,0,0,.949-.1,2.511,2.511,0,0,0,.871-.364,2.07,2.07,0,0,0,.637-.676,1.953,1.953,0,0,0,.247-1.014,1.626,1.626,0,0,0-.325-1.053,2.061,2.061,0,0,0-.819-.611,4.2,4.2,0,0,0-1.066-.286,7.919,7.919,0,0,0-1.066-.078h-3.068ZM213.2-18.408h6.838a13.505,13.505,0,0,1,2.7.26,6.149,6.149,0,0,1,2.223.9,4.534,4.534,0,0,1,1.508,1.716,5.875,5.875,0,0,1,.559,2.717,6.269,6.269,0,0,1-.52,2.7,4.435,4.435,0,0,1-1.43,1.742,5.8,5.8,0,0,1-2.158.923,12.648,12.648,0,0,1-2.7.273h-2.964V0H213.2Zm4.056,7.8h2.7a5.228,5.228,0,0,0,1.053-.1,2.8,2.8,0,0,0,.91-.351,1.873,1.873,0,0,0,.65-.676,2.137,2.137,0,0,0,.247-1.079,1.825,1.825,0,0,0-.325-1.131,2.161,2.161,0,0,0-.832-.663,3.561,3.561,0,0,0-1.131-.3,11.556,11.556,0,0,0-1.2-.065h-2.08Zm21.424-3.3a2.889,2.889,0,0,0-1.339-.923,4.8,4.8,0,0,0-1.6-.3,4.19,4.19,0,0,0-.91.1,3.488,3.488,0,0,0-.884.325,1.927,1.927,0,0,0-.676.585,1.481,1.481,0,0,0-.26.884,1.465,1.465,0,0,0,.624,1.274,5.909,5.909,0,0,0,1.573.754q.949.312,2.041.624a8.41,8.41,0,0,1,2.041.884,4.832,4.832,0,0,1,1.573,1.534,4.675,4.675,0,0,1,.624,2.574,5.918,5.918,0,0,1-.572,2.678,5.434,5.434,0,0,1-1.547,1.9A6.583,6.583,0,0,1,237.107.1a9.938,9.938,0,0,1-2.717.364,9.856,9.856,0,0,1-3.328-.546,8.34,8.34,0,0,1-2.86-1.768l2.886-3.172a4.213,4.213,0,0,0,1.573,1.287,4.49,4.49,0,0,0,1.963.455,4.441,4.441,0,0,0,1-.117,3.26,3.26,0,0,0,.91-.351,1.963,1.963,0,0,0,.65-.6,1.491,1.491,0,0,0,.247-.858,1.557,1.557,0,0,0-.637-1.313,5.871,5.871,0,0,0-1.6-.819q-.962-.338-2.08-.676a9.34,9.34,0,0,1-2.08-.91,5.013,5.013,0,0,1-1.6-1.508,4.315,4.315,0,0,1-.637-2.47,5.53,5.53,0,0,1,.585-2.6,5.64,5.64,0,0,1,1.56-1.872,6.782,6.782,0,0,1,2.249-1.131,9.206,9.206,0,0,1,2.626-.377,10.325,10.325,0,0,1,3.016.442,6.956,6.956,0,0,1,2.626,1.482Z" transform="translate(21456 -4523)" fill="#555"/>
    <path id="Path_12" data-name="Path 12" d="M0,0" transform="translate(21526.883 -4321.446)" fill="none" stroke="#979797" stroke-linecap="round" stroke-miterlimit="10" stroke-width="3"/>
    <path id="Path_451" data-name="Path 451" d="M35.541,0" transform="translate(21806.604 -4279.222)" fill="none" stroke="#cecdce" stroke-linecap="round" stroke-width="3"/>
    <path id="Path_12-2" data-name="Path 12" d="M0,0" transform="translate(21526.883 -4321.446)" fill="none" stroke="#979797" stroke-linecap="round" stroke-miterlimit="10" stroke-width="3"/>
    <path id="Path_452" data-name="Path 452" d="M35.541,0" transform="translate(21806.604 -4279.222)" fill="none" stroke="#cecdce" stroke-linecap="round" stroke-width="3"/>
    <rect id="Rectangle_1191" data-name="Rectangle 1191" width="83" height="33" transform="translate(21522 -4486)" fill="#f18702"/>
    <g id="Group_285" data-name="Group 285" transform="translate(20588 -8654)">
      <path id="Path_5" data-name="Path 5" d="M0,1H2.946" transform="translate(929.481 4328.5)" fill="none" stroke="#bbb" stroke-linecap="round" stroke-miterlimit="10" stroke-width="3"/>
      <path id="Path_5_Copy" data-name="Path 5 Copy" d="M0,1H2.946" transform="translate(929.481 4291.5)" fill="none" stroke="#bbb" stroke-linecap="round" stroke-miterlimit="10" stroke-width="3"/>
      <path id="Path_5_Copy_2" data-name="Path 5 Copy 2" d="M0,1H2.946" transform="translate(929.481 4216.5)" fill="none" stroke="#bbb" stroke-linecap="round" stroke-miterlimit="10" stroke-width="3"/>
      <path id="Path_4" data-name="Path 4" d="M2.856,0V205.073" transform="translate(929.602 4169.589)" fill="none" stroke="#c1c1c1" stroke-linecap="round" stroke-miterlimit="10" stroke-width="3"/>
      <path id="Path_12-3" data-name="Path 12" d="M0,0" transform="translate(938.432 4359.364)" fill="none" stroke="#979797" stroke-linecap="round" stroke-miterlimit="10" stroke-width="3"/>
      <path id="Path_5-2" data-name="Path 5" d="M0,1H2.946" transform="translate(929.48 4365.5)" fill="none" stroke="#bbb" stroke-linecap="round" stroke-miterlimit="10" stroke-width="3"/>
      <path id="Path_5_Copy-2" data-name="Path 5 Copy" d="M0,1H2.946" transform="translate(929.48 4254.5)" fill="none" stroke="#bbb" stroke-linecap="round" stroke-miterlimit="10" stroke-width="3"/>
      <path id="Path_5_Copy-3" data-name="Path 5 Copy" d="M0,1H2.946" transform="translate(929.48 4179.5)" fill="none" stroke="#bbb" stroke-linecap="round" stroke-miterlimit="10" stroke-width="3"/>
    </g>
    <path id="Path_453" data-name="Path 453" d="M0,0H35.541" transform="translate(21458 -4473.529)" fill="none" stroke="#cecdce" stroke-linecap="round" stroke-width="3"/>
    <path id="Path_454" data-name="Path 454" d="M0,0H35.541" transform="translate(21458 -4436.529)" fill="none" stroke="#cecdce" stroke-linecap="round" stroke-width="3"/>
    <path id="Path_455" data-name="Path 455" d="M0,0H35.541" transform="translate(21458 -4398.529)" fill="none" stroke="#cecdce" stroke-linecap="round" stroke-width="3"/>
    <path id="Path_456" data-name="Path 456" d="M0,0H35.541" transform="translate(21458 -4361.529)" fill="none" stroke="#cecdce" stroke-linecap="round" stroke-width="3"/>
    <path id="Path_457" data-name="Path 457" d="M0,0H35.541" transform="translate(21458 -4324.529)" fill="none" stroke="#cecdce" stroke-linecap="round" stroke-width="3"/>
    <path id="Path_458" data-name="Path 458" d="M0,0H35.541" transform="translate(21458 -4287.529)" fill="none" stroke="#cecdce" stroke-linecap="round" stroke-width="3"/>
    <rect id="Rectangle_1192" data-name="Rectangle 1192" width="83" height="33" transform="translate(21522 -4451)" fill="#f7ad4c"/>
    <rect id="Rectangle_1193" data-name="Rectangle 1193" width="83" height="33" transform="translate(21522 -4416)" fill="#f7ad4c"/>
    <rect id="Rectangle_1194" data-name="Rectangle 1194" width="83" height="33" transform="translate(21522 -4381)" fill="#f9d199"/>
    <rect id="Rectangle_1195" data-name="Rectangle 1195" width="83" height="33" transform="translate(21522 -4346)" fill="#f9d199"/>
    <rect id="Rectangle_1196" data-name="Rectangle 1196" width="83" height="33" transform="translate(21522 -4311)" fill="#f18702"/>
    <rect id="Rectangle_1197" data-name="Rectangle 1197" width="83" height="33" transform="translate(21610 -4486)" fill="#f7ad4c"/>
    <rect id="Rectangle_1198" data-name="Rectangle 1198" width="83" height="33" transform="translate(21610 -4451)" fill="#f18702"/>
    <rect id="Rectangle_1199" data-name="Rectangle 1199" width="83" height="33" transform="translate(21610 -4416)" fill="#f9d199"/>
    <rect id="Rectangle_1200" data-name="Rectangle 1200" width="83" height="33" transform="translate(21610 -4381)" fill="#f7ad4c"/>
    <rect id="Rectangle_1201" data-name="Rectangle 1201" width="83" height="33" transform="translate(21610 -4346)" fill="#f18702"/>
    <rect id="Rectangle_1202" data-name="Rectangle 1202" width="83" height="33" transform="translate(21610 -4311)" fill="#f9d199"/>
    <rect id="Rectangle_1203" data-name="Rectangle 1203" width="83" height="33" transform="translate(21697 -4486)" fill="#f9d199"/>
    <rect id="Rectangle_1204" data-name="Rectangle 1204" width="83" height="33" transform="translate(21697 -4451)" fill="#f7ad4c"/>
    <rect id="Rectangle_1205" data-name="Rectangle 1205" width="83" height="33" transform="translate(21697 -4416)" fill="#fce8cc"/>
    <rect id="Rectangle_1206" data-name="Rectangle 1206" width="83" height="33" transform="translate(21697 -4381)" fill="#fce8cc"/>
    <rect id="Rectangle_1207" data-name="Rectangle 1207" width="83" height="33" transform="translate(21697 -4346)" fill="#f9d199"/>
    <rect id="Rectangle_1208" data-name="Rectangle 1208" width="83" height="33" transform="translate(21697 -4311)" fill="#fce8cc"/>
    <rect id="Rectangle_1209" data-name="Rectangle 1209" width="83" height="33" transform="translate(21785 -4486)" fill="#fbfbfb"/>
    <rect id="Rectangle_1210" data-name="Rectangle 1210" width="83" height="33" transform="translate(21785 -4451)" fill="#f9d199"/>
    <rect id="Rectangle_1211" data-name="Rectangle 1211" width="83" height="33" transform="translate(21785 -4416)" fill="#fce8cc"/>
    <rect id="Rectangle_1212" data-name="Rectangle 1212" width="83" height="33" transform="translate(21785 -4381)" fill="#f7ad4c"/>
    <rect id="Rectangle_1213" data-name="Rectangle 1213" width="83" height="33" transform="translate(21785 -4346)" fill="#fbfbfb"/>
    <rect id="Rectangle_1214" data-name="Rectangle 1214" width="83" height="33" transform="translate(21785 -4311)" fill="#fce8cc"/>
  </g>
</svg>
