<svg xmlns="http://www.w3.org/2000/svg" width="57.143" height="80" viewBox="0 0 57.143 80">
  <path id="Icon_material-touch-app" data-name="Icon material-touch-app" fill="white" d="M23.315,35.89V21.643a9.524,9.524,0,1,1,19.048,0V35.89a17.143,17.143,0,1,0-19.048,0ZM60.8,53.529l-17.3-8.61a5.365,5.365,0,0,0-2.057-.419h-2.9V21.643a5.714,5.714,0,1,0-11.429,0V62.557L14.058,59.814a6.657,6.657,0,0,0-.914-.114,4.262,4.262,0,0,0-3.01,1.257L7.125,64,25.944,82.824A5.734,5.734,0,0,0,29.982,84.5H55.849a5.549,5.549,0,0,0,5.486-4.876l2.857-20.076a5.475,5.475,0,0,0-3.39-6.019Z" transform="translate(-7.125 -4.5)"/>
</svg>
