<svg xmlns="http://www.w3.org/2000/svg" width="421.988" height="266.876" viewBox="0 0 421.988 266.876">
  <g id="MoTo_ISS_ACQ" data-name="MoTo_ISS/ACQ" transform="translate(-143.872 -1444.124)">
    <path id="Path_12" data-name="Path 12" d="M0,0" transform="translate(167.432 1618.167)" fill="none" stroke="#979797" stroke-linecap="round" stroke-miterlimit="10" stroke-width="3"/>
    <path id="Path_12-2" data-name="Path 12" d="M0,0" transform="translate(167.432 1618.167)" fill="none" stroke="#979797" stroke-linecap="round" stroke-miterlimit="10" stroke-width="3"/>
    <path id="Path_418" data-name="Path 418" d="M1.872-18.408H8.71a13.505,13.505,0,0,1,2.7.26,6.149,6.149,0,0,1,2.223.9,4.534,4.534,0,0,1,1.508,1.716,5.875,5.875,0,0,1,.559,2.717,6.269,6.269,0,0,1-.52,2.7,4.436,4.436,0,0,1-1.43,1.742,5.8,5.8,0,0,1-2.158.923,12.648,12.648,0,0,1-2.7.273H5.928V0H1.872Zm4.056,7.8h2.7a5.228,5.228,0,0,0,1.053-.1,2.8,2.8,0,0,0,.91-.351,1.873,1.873,0,0,0,.65-.676,2.137,2.137,0,0,0,.247-1.079,1.825,1.825,0,0,0-.325-1.131,2.161,2.161,0,0,0-.832-.663,3.561,3.561,0,0,0-1.131-.3,11.556,11.556,0,0,0-1.2-.065H5.928ZM17.264-9.2a10.4,10.4,0,0,1,.741-4,8.782,8.782,0,0,1,2.067-3.055A9.106,9.106,0,0,1,23.218-18.2a11.341,11.341,0,0,1,3.978-.676,11.341,11.341,0,0,1,3.978.676,9.106,9.106,0,0,1,3.146,1.937,8.782,8.782,0,0,1,2.067,3.055,10.4,10.4,0,0,1,.741,4,10.4,10.4,0,0,1-.741,4A8.782,8.782,0,0,1,34.32-2.145,9.106,9.106,0,0,1,31.174-.208,11.341,11.341,0,0,1,27.2.468a11.341,11.341,0,0,1-3.978-.676,9.106,9.106,0,0,1-3.146-1.937A8.782,8.782,0,0,1,18-5.2,10.4,10.4,0,0,1,17.264-9.2Zm4.212,0a6.751,6.751,0,0,0,.4,2.379,5.449,5.449,0,0,0,1.157,1.872,5.281,5.281,0,0,0,1.807,1.235,6.024,6.024,0,0,0,2.353.442,6.024,6.024,0,0,0,2.353-.442,5.281,5.281,0,0,0,1.807-1.235,5.449,5.449,0,0,0,1.157-1.872,6.751,6.751,0,0,0,.4-2.379,6.782,6.782,0,0,0-.4-2.366,5.425,5.425,0,0,0-1.157-1.885,5.281,5.281,0,0,0-1.807-1.235,6.024,6.024,0,0,0-2.353-.442,6.024,6.024,0,0,0-2.353.442,5.281,5.281,0,0,0-1.807,1.235,5.425,5.425,0,0,0-1.157,1.885A6.782,6.782,0,0,0,21.476-9.2Zm18.408-9.2h7.124a12.57,12.57,0,0,1,2.665.273,6.323,6.323,0,0,1,2.21.91,4.534,4.534,0,0,1,1.508,1.716,5.811,5.811,0,0,1,.559,2.691A5.4,5.4,0,0,1,52.936-9.5a4.565,4.565,0,0,1-2.964,1.729L54.652,0H49.79L45.942-7.358h-2V0H39.884ZM43.94-10.79h2.392q.546,0,1.157-.039a3.624,3.624,0,0,0,1.105-.234,1.911,1.911,0,0,0,.819-.611,1.86,1.86,0,0,0,.325-1.17,1.943,1.943,0,0,0-.286-1.118,1.907,1.907,0,0,0-.728-.637,3.23,3.23,0,0,0-1.014-.3,8.271,8.271,0,0,0-1.118-.078H43.94Zm15.886-4.03H54.574v-3.588h14.56v3.588H63.882V0H59.826Zm11.518-3.588h12.35v3.744H75.4v3.744h7.67v3.744H75.4V0H71.344ZM85.618-9.2a10.4,10.4,0,0,1,.741-4,8.782,8.782,0,0,1,2.067-3.055A9.106,9.106,0,0,1,91.572-18.2a11.341,11.341,0,0,1,3.978-.676,11.341,11.341,0,0,1,3.978.676,9.106,9.106,0,0,1,3.146,1.937,8.782,8.782,0,0,1,2.067,3.055,10.4,10.4,0,0,1,.741,4,10.4,10.4,0,0,1-.741,4,8.782,8.782,0,0,1-2.067,3.055A9.106,9.106,0,0,1,99.528-.208,11.341,11.341,0,0,1,95.55.468a11.341,11.341,0,0,1-3.978-.676,9.106,9.106,0,0,1-3.146-1.937A8.782,8.782,0,0,1,86.359-5.2,10.4,10.4,0,0,1,85.618-9.2Zm4.212,0a6.751,6.751,0,0,0,.4,2.379A5.449,5.449,0,0,0,91.39-4.953,5.281,5.281,0,0,0,93.2-3.718a6.024,6.024,0,0,0,2.353.442A6.024,6.024,0,0,0,97.9-3.718,5.281,5.281,0,0,0,99.71-4.953a5.449,5.449,0,0,0,1.157-1.872,6.751,6.751,0,0,0,.4-2.379,6.782,6.782,0,0,0-.4-2.366,5.425,5.425,0,0,0-1.157-1.885A5.281,5.281,0,0,0,97.9-14.69a6.024,6.024,0,0,0-2.353-.442,6.024,6.024,0,0,0-2.353.442,5.281,5.281,0,0,0-1.807,1.235,5.425,5.425,0,0,0-1.157,1.885A6.782,6.782,0,0,0,89.83-9.2Zm18.564-9.2h4.056V-3.744h7.514V0h-11.57Zm13.754,0H126.2V0h-4.056Zm6.76,9.2a10.4,10.4,0,0,1,.741-4,8.782,8.782,0,0,1,2.067-3.055,9.106,9.106,0,0,1,3.146-1.937,11.341,11.341,0,0,1,3.978-.676,11.341,11.341,0,0,1,3.978.676,9.106,9.106,0,0,1,3.146,1.937,8.782,8.782,0,0,1,2.067,3.055,10.4,10.4,0,0,1,.741,4,10.4,10.4,0,0,1-.741,4,8.782,8.782,0,0,1-2.067,3.055,9.106,9.106,0,0,1-3.146,1.937,11.341,11.341,0,0,1-3.978.676,11.341,11.341,0,0,1-3.978-.676,9.106,9.106,0,0,1-3.146-1.937A8.782,8.782,0,0,1,129.649-5.2,10.4,10.4,0,0,1,128.908-9.2Zm4.212,0a6.752,6.752,0,0,0,.4,2.379,5.449,5.449,0,0,0,1.157,1.872,5.281,5.281,0,0,0,1.807,1.235,6.024,6.024,0,0,0,2.353.442,6.024,6.024,0,0,0,2.353-.442A5.281,5.281,0,0,0,143-4.953a5.449,5.449,0,0,0,1.157-1.872,6.752,6.752,0,0,0,.4-2.379,6.782,6.782,0,0,0-.4-2.366A5.425,5.425,0,0,0,143-13.455a5.281,5.281,0,0,0-1.807-1.235,6.024,6.024,0,0,0-2.353-.442,6.024,6.024,0,0,0-2.353.442,5.281,5.281,0,0,0-1.807,1.235,5.425,5.425,0,0,0-1.157,1.885A6.782,6.782,0,0,0,133.12-9.2Z" transform="translate(142 1463)" fill="#555"/>
    <path id="Path_417" data-name="Path 417" d="M1.872-18.408H8.736a17.354,17.354,0,0,1,2.4.169,6.569,6.569,0,0,1,2.171.676,4.157,4.157,0,0,1,1.56,1.417,4.343,4.343,0,0,1,.6,2.418,3.861,3.861,0,0,1-.871,2.587,4.789,4.789,0,0,1-2.3,1.469v.052a5.252,5.252,0,0,1,1.651.507,4.41,4.41,0,0,1,1.274.962,4.1,4.1,0,0,1,.819,1.365,4.8,4.8,0,0,1,.286,1.664A4.425,4.425,0,0,1,15.7-2.691a4.906,4.906,0,0,1-1.612,1.573,7.069,7.069,0,0,1-2.223.858A11.9,11.9,0,0,1,9.412,0H1.872ZM5.928-11.05H8.866a4.129,4.129,0,0,0,.923-.1,2.553,2.553,0,0,0,.819-.338,1.76,1.76,0,0,0,.585-.624,1.869,1.869,0,0,0,.221-.936A1.7,1.7,0,0,0,11.167-14a1.718,1.718,0,0,0-.637-.585,3.035,3.035,0,0,0-.884-.3,5.306,5.306,0,0,0-.962-.091H5.928Zm0,7.618h3.64a4.481,4.481,0,0,0,.949-.1,2.511,2.511,0,0,0,.871-.364,2.07,2.07,0,0,0,.637-.676,1.953,1.953,0,0,0,.247-1.014,1.626,1.626,0,0,0-.325-1.053,2.061,2.061,0,0,0-.819-.611,4.2,4.2,0,0,0-1.066-.286A7.92,7.92,0,0,0,9-7.618H5.928ZM18.876-18.408H31.382v3.744h-8.45v3.432h7.982v3.744H22.932v3.744H31.85V0H18.876Zm16.224,0h5.512L48.438-5.616h.052V-18.408h4.056V0h-5.3L39.208-13.1h-.052V0H35.1Zm33.228,4.784a3.978,3.978,0,0,0-1.469-1.118,4.888,4.888,0,0,0-2.015-.39,5.071,5.071,0,0,0-2.119.442,5.07,5.07,0,0,0-1.69,1.235,5.756,5.756,0,0,0-1.118,1.885,6.782,6.782,0,0,0-.4,2.366,6.751,6.751,0,0,0,.4,2.379,5.912,5.912,0,0,0,1.1,1.872,5.008,5.008,0,0,0,1.651,1.235,4.774,4.774,0,0,0,2.041.442,4.574,4.574,0,0,0,2.21-.52A4.4,4.4,0,0,0,68.51-5.252L71.89-2.73A7.039,7.039,0,0,1,68.926-.312a9.171,9.171,0,0,1-3.692.78,11.341,11.341,0,0,1-3.978-.676A9.106,9.106,0,0,1,58.11-2.145,8.782,8.782,0,0,1,56.043-5.2a10.4,10.4,0,0,1-.741-4,10.4,10.4,0,0,1,.741-4,8.782,8.782,0,0,1,2.067-3.055A9.106,9.106,0,0,1,61.256-18.2a11.341,11.341,0,0,1,3.978-.676,9.741,9.741,0,0,1,1.625.143,8.78,8.78,0,0,1,1.664.455,7.416,7.416,0,0,1,1.573.832,6.256,6.256,0,0,1,1.352,1.274ZM74.1-18.408h4.056v6.864h7.878v-6.864H90.09V0H86.034V-7.956H78.156V0H74.1Zm19.734,0H99.97L104.208-6.4h.052l4.264-12.012h6.11V0h-4.056V-14.118h-.052L105.69,0H102.6L97.942-14.118H97.89V0H93.834Zm30.6,0h3.354L135.8,0h-4.576l-1.586-3.9h-7.15L120.952,0H116.48ZM126-13.052l-2.236,5.72h4.5Zm11.648-5.356h7.124a12.57,12.57,0,0,1,2.665.273,6.323,6.323,0,0,1,2.21.91,4.534,4.534,0,0,1,1.508,1.716,5.811,5.811,0,0,1,.559,2.691A5.4,5.4,0,0,1,150.7-9.5a4.565,4.565,0,0,1-2.964,1.729L152.412,0H147.55L143.7-7.358h-2V0h-4.056ZM141.7-10.79h2.392q.546,0,1.157-.039a3.624,3.624,0,0,0,1.1-.234,1.911,1.911,0,0,0,.819-.611,1.86,1.86,0,0,0,.325-1.17,1.943,1.943,0,0,0-.286-1.118,1.907,1.907,0,0,0-.728-.637,3.23,3.23,0,0,0-1.014-.3,8.271,8.271,0,0,0-1.118-.078H141.7Zm12.948-7.618H158.7v7.644l7.15-7.644h5.3l-8.19,8.554L171.86,0h-5.668L158.7-8.736V0h-4.056Z" transform="translate(394 1463)" fill="#555"/>
    <g id="Ring_Chart7" data-name="Ring Chart7" transform="translate(7 -1842)">
      <path id="Path_374" data-name="Path 374" d="M1.8-77.479a77.5,77.5,0,0,1,72.03,53.9A77.5,77.5,0,0,1,46.374,62.095a77.5,77.5,0,0,1-89.942,2l20.352-28.5a42.5,42.5,0,0,0,48.864-1.709,42.5,42.5,0,0,0,14.92-46.562A42.5,42.5,0,0,0,1.8-42.462Z" transform="translate(214.5 3421.5)" fill="#e87700"/>
      <path id="Path_375" data-name="Path 375" d="M-46.492,62.006A77.5,77.5,0,0,1-73.8-23.649,77.5,77.5,0,0,1-1.8-77.479v35.017A42.5,42.5,0,0,0-40.473-12.969,42.5,42.5,0,0,0-26.14,33.51Z" transform="translate(214.5 3421.5)" fill="#95a1ae"/>
    </g>
    <g id="Ring_Chart9" data-name="Ring Chart9" transform="translate(257 -1892)">
      <path id="Path_376" data-name="Path 376" d="M1.8-77.479A77.5,77.5,0,0,1,75.439-17.754a77.5,77.5,0,0,1-39.276,86.3,77.5,77.5,0,0,1-93.405-16.3,77.5,77.5,0,0,1-7.724-94.5l28.9,19.768a42.5,42.5,0,0,0,4.947,51.437,42.5,42.5,0,0,0,50.947,8.64A42.5,42.5,0,0,0,41.461-9.341,42.5,42.5,0,0,0,1.8-42.462Z" transform="translate(222.5 3471.5)" fill="#e87700"/>
      <path id="Path_377" data-name="Path 377" d="M-62.938-45.222A77.5,77.5,0,0,1-1.8-77.479v35.017A42.5,42.5,0,0,0-34.035-25.454Z" transform="translate(222.5 3471.5)" fill="#95a1ae"/>
    </g>
    <path id="Path_12-3" data-name="Path 12" d="M0,0" transform="translate(167.432 1618.166)" fill="none" stroke="#979797" stroke-linecap="round" stroke-miterlimit="10" stroke-width="3"/>
    <path id="Path_12-4" data-name="Path 12" d="M0,0" transform="translate(167.432 1618.166)" fill="none" stroke="#979797" stroke-linecap="round" stroke-miterlimit="10" stroke-width="3"/>
    <g id="Group_106" data-name="Group 106" transform="translate(-1)">
      <path id="Path_413" data-name="Path 413" d="M1.722-14.868H5.754L9.723-4.452l4.011-10.416h3.99V0H15.2V-12.348h-.042L10.647,0H8.8L4.284-12.348H4.242V0H1.722Zm18.585,7.5a8.61,8.61,0,0,1,.588-3.245A7.28,7.28,0,0,1,22.522-13.1,7.134,7.134,0,0,1,25-14.69a8.69,8.69,0,0,1,3.16-.556,8.833,8.833,0,0,1,3.192.515,6.976,6.976,0,0,1,2.5,1.564,7.225,7.225,0,0,1,1.638,2.478,8.529,8.529,0,0,1,.588,3.234,8.254,8.254,0,0,1-.588,3.171,7.272,7.272,0,0,1-1.638,2.457,7.482,7.482,0,0,1-2.5,1.606,8.84,8.84,0,0,1-3.192.6A8.69,8.69,0,0,1,25-.179a7.211,7.211,0,0,1-2.478-1.575A7.236,7.236,0,0,1,20.895-4.2,8.254,8.254,0,0,1,20.307-7.371Zm2.772-.168a6.393,6.393,0,0,0,.368,2.2,5.179,5.179,0,0,0,1.04,1.743,4.837,4.837,0,0,0,1.606,1.155,5.041,5.041,0,0,0,2.09.42,5.114,5.114,0,0,0,2.1-.42A4.809,4.809,0,0,0,31.9-3.591a5.179,5.179,0,0,0,1.04-1.743,6.393,6.393,0,0,0,.368-2.2,5.8,5.8,0,0,0-.368-2.079,5.151,5.151,0,0,0-1.04-1.691,4.755,4.755,0,0,0-1.617-1.134,5.228,5.228,0,0,0-2.1-.41,5.153,5.153,0,0,0-2.09.41,4.781,4.781,0,0,0-1.606,1.134,5.151,5.151,0,0,0-1.04,1.691A5.8,5.8,0,0,0,23.079-7.539ZM38.493,1.008,36.75.378l6.552-16.3,1.743.672ZM49.812-12.474H45.255v-2.394h11.76v2.394H52.458V0H49.812Zm8.211,5.1a8.61,8.61,0,0,1,.588-3.245A7.28,7.28,0,0,1,60.238-13.1a7.134,7.134,0,0,1,2.478-1.586,8.69,8.69,0,0,1,3.16-.556,8.833,8.833,0,0,1,3.192.515,6.976,6.976,0,0,1,2.5,1.564,7.226,7.226,0,0,1,1.638,2.478,8.529,8.529,0,0,1,.588,3.234,8.254,8.254,0,0,1-.588,3.171,7.272,7.272,0,0,1-1.638,2.457,7.483,7.483,0,0,1-2.5,1.606,8.841,8.841,0,0,1-3.192.6,8.69,8.69,0,0,1-3.16-.557,7.211,7.211,0,0,1-2.478-1.575A7.236,7.236,0,0,1,58.611-4.2,8.254,8.254,0,0,1,58.023-7.371Zm2.772-.168a6.393,6.393,0,0,0,.368,2.2A5.179,5.179,0,0,0,62.2-3.591a4.837,4.837,0,0,0,1.606,1.155,5.041,5.041,0,0,0,2.089.42,5.114,5.114,0,0,0,2.1-.42,4.809,4.809,0,0,0,1.617-1.155,5.179,5.179,0,0,0,1.039-1.743,6.393,6.393,0,0,0,.368-2.2,5.8,5.8,0,0,0-.368-2.079,5.15,5.15,0,0,0-1.039-1.691A4.755,4.755,0,0,0,68-12.442a5.228,5.228,0,0,0-2.1-.41,5.153,5.153,0,0,0-2.089.41A4.781,4.781,0,0,0,62.2-11.309a5.151,5.151,0,0,0-1.04,1.691A5.8,5.8,0,0,0,60.795-7.539Z" transform="translate(261 1703)" fill="#555"/>
      <circle id="Ellipse_323" data-name="Ellipse 323" cx="14.5" cy="14.5" r="14.5" transform="translate(344 1682)" fill="#95a1ae"/>
      <path id="Path_414" data-name="Path 414" d="M.861-7.371a8.61,8.61,0,0,1,.588-3.245A7.28,7.28,0,0,1,3.077-13.1,7.134,7.134,0,0,1,5.554-14.69a8.69,8.69,0,0,1,3.161-.556,8.833,8.833,0,0,1,3.192.515,6.976,6.976,0,0,1,2.5,1.564,7.226,7.226,0,0,1,1.638,2.478,8.529,8.529,0,0,1,.588,3.234,8.254,8.254,0,0,1-.588,3.171,7.272,7.272,0,0,1-1.638,2.457,7.482,7.482,0,0,1-2.5,1.606,8.84,8.84,0,0,1-3.192.6A8.69,8.69,0,0,1,5.554-.179,7.211,7.211,0,0,1,3.077-1.753,7.236,7.236,0,0,1,1.449-4.2,8.254,8.254,0,0,1,.861-7.371Zm2.772-.168A6.393,6.393,0,0,0,4-5.334,5.179,5.179,0,0,0,5.04-3.591,4.837,4.837,0,0,0,6.647-2.436a5.041,5.041,0,0,0,2.089.42,5.114,5.114,0,0,0,2.1-.42,4.809,4.809,0,0,0,1.617-1.155,5.179,5.179,0,0,0,1.039-1.743,6.393,6.393,0,0,0,.368-2.2,5.8,5.8,0,0,0-.368-2.079,5.151,5.151,0,0,0-1.039-1.691,4.755,4.755,0,0,0-1.617-1.134,5.228,5.228,0,0,0-2.1-.41,5.153,5.153,0,0,0-2.089.41A4.781,4.781,0,0,0,5.04-11.309,5.151,5.151,0,0,0,4-9.618,5.8,5.8,0,0,0,3.633-7.539Zm14.112-.4V-10.08h2.079V-13h2.52v2.919h2.772v2.142H22.344v4.41a2.195,2.195,0,0,0,.284,1.2,1.241,1.241,0,0,0,1.123.441,4.079,4.079,0,0,0,.735-.073,1.54,1.54,0,0,0,.63-.241V-.084a3.242,3.242,0,0,1-.977.263,8.181,8.181,0,0,1-1.018.073A5.156,5.156,0,0,1,21.472.032a2.175,2.175,0,0,1-1.008-.672,2.552,2.552,0,0,1-.5-1.123,7.871,7.871,0,0,1-.137-1.554v-4.62Zm11.886-.735h.042a2.939,2.939,0,0,1,1.04-1.145,3.313,3.313,0,0,1,1.922-.515A3.948,3.948,0,0,1,34.346-10a3.235,3.235,0,0,1,1.145.882,3.339,3.339,0,0,1,.63,1.26,5.8,5.8,0,0,1,.189,1.491V0h-2.52V-5.1q0-.42-.042-.934A3.355,3.355,0,0,0,33.527-7a1.809,1.809,0,0,0-.556-.756,1.6,1.6,0,0,0-1.029-.3,2.406,2.406,0,0,0-1.061.21,2.038,2.038,0,0,0-.714.567,2.255,2.255,0,0,0-.41.819,3.655,3.655,0,0,0-.126.966V0h-2.52V-15.876h2.52Zm11.55,4.515a2.56,2.56,0,0,0,.882,1.764,2.76,2.76,0,0,0,1.827.63,3.007,3.007,0,0,0,1.585-.388A4.4,4.4,0,0,0,46.6-3.129L48.4-1.764A5.118,5.118,0,0,1,46.431-.21a5.816,5.816,0,0,1-2.289.462A6.05,6.05,0,0,1,42-.126,5.138,5.138,0,0,1,40.257-1.2a5.082,5.082,0,0,1-1.166-1.669,5.331,5.331,0,0,1-.431-2.174,5.331,5.331,0,0,1,.431-2.173,5.082,5.082,0,0,1,1.166-1.67A5.138,5.138,0,0,1,42-9.954a6.05,6.05,0,0,1,2.142-.378,4.9,4.9,0,0,1,1.922.368A4.121,4.121,0,0,1,47.555-8.9a4.9,4.9,0,0,1,.966,1.712,7.261,7.261,0,0,1,.346,2.341v.693Zm5.166-1.89A2.373,2.373,0,0,0,45.654-7.8a2.6,2.6,0,0,0-1.869-.641,2.448,2.448,0,0,0-1.8.651,2.905,2.905,0,0,0-.808,1.743Zm4.872-4.032h2.52v1.6h.042a3.166,3.166,0,0,1,1.2-1.365,3.311,3.311,0,0,1,1.785-.483,2.408,2.408,0,0,1,.451.042q.22.042.451.1v2.436q-.315-.084-.619-.137a3.518,3.518,0,0,0-.6-.052,2.707,2.707,0,0,0-1.417.325,2.583,2.583,0,0,0-.819.746,2.479,2.479,0,0,0-.378.84,3.167,3.167,0,0,0-.095.63V0h-2.52Zm24.822-1.3a4.431,4.431,0,0,0-1.585-1.176,4.281,4.281,0,0,0-1.544-.294,5.153,5.153,0,0,0-2.09.41,4.781,4.781,0,0,0-1.606,1.134,5.151,5.151,0,0,0-1.039,1.691,5.8,5.8,0,0,0-.368,2.079,6.393,6.393,0,0,0,.368,2.2,5.179,5.179,0,0,0,1.039,1.743,4.837,4.837,0,0,0,1.606,1.155,5.041,5.041,0,0,0,2.09.42,3.839,3.839,0,0,0,1.754-.431,4.786,4.786,0,0,0,1.585-1.375l2.184,1.554A5.95,5.95,0,0,1,75.978-.252a7.658,7.658,0,0,1-3.087.63A8.69,8.69,0,0,1,69.73-.179a7.211,7.211,0,0,1-2.478-1.575A7.236,7.236,0,0,1,65.625-4.2a8.254,8.254,0,0,1-.588-3.171,8.61,8.61,0,0,1,.588-3.245A7.28,7.28,0,0,1,67.253-13.1,7.134,7.134,0,0,1,69.73-14.69a8.69,8.69,0,0,1,3.161-.556,7.247,7.247,0,0,1,2.8.535,6.536,6.536,0,0,1,2.4,1.817Zm4.179-3.486h3.507l7.2,11.046h.042V-14.868h2.646V0h-3.36l-7.35-11.4h-.042V0H80.22Zm16.716,0h5a10.016,10.016,0,0,1,2.069.21,5.1,5.1,0,0,1,1.753.7,3.61,3.61,0,0,1,1.208,1.323,4.286,4.286,0,0,1,.451,2.068,4.621,4.621,0,0,1-.483,2.268,3.457,3.457,0,0,1-1.3,1.334,5.439,5.439,0,0,1-1.9.64,14.7,14.7,0,0,1-2.257.168h-1.89V0H96.936Zm4.242,6.447q.567,0,1.176-.042a3.612,3.612,0,0,0,1.123-.252,1.994,1.994,0,0,0,.84-.63,1.88,1.88,0,0,0,.326-1.176,1.854,1.854,0,0,0-.294-1.1,1.947,1.947,0,0,0-.756-.63,3.189,3.189,0,0,0-1.029-.283,9.9,9.9,0,0,0-1.092-.063h-1.89v4.179Z" transform="translate(386 1703)" fill="#555"/>
      <circle id="Ellipse_334" data-name="Ellipse 334" cx="14.5" cy="14.5" r="14.5" transform="translate(218 1682)" fill="#e87700"/>
    </g>
  </g>
</svg>
