<svg xmlns="http://www.w3.org/2000/svg" xmlns:xlink="http://www.w3.org/1999/xlink" width="412.744" height="266.876" viewBox="0 0 412.744 266.876">
  <defs>
    <clipPath id="clip-path">
      <rect width="411.245" height="153.903" fill="none"/>
    </clipPath>
  </defs>
  <g id="Reported_Fraud" data-name="Reported Fraud" transform="translate(-22065.797 4529.875)">
    <g id="Group_6" data-name="Group 6" transform="translate(22067.297 -4476.209)">
      <g id="chart_base" data-name="chart base" clip-path="url(#clip-path)">
        <g id="chart_lines" data-name="chart lines" transform="translate(16.183 3.799)">
          <path id="Line_7" data-name="Line 7" d="M0,.488,394.261.365" transform="translate(0.326 131.576)" fill="none" stroke="#c1c1c1" stroke-linecap="round" stroke-miterlimit="10" stroke-width="3"/>
          <path id="Line_105" data-name="Line 105" d="M0,.5H391.3" transform="translate(3.53 65.802)" fill="none" stroke="rgba(0,0,0,0.08)" stroke-linecap="round" stroke-miterlimit="10" stroke-width="3"/>
          <path id="Line_105_Copy" data-name="Line 105 Copy" d="M0,.5H391.3" transform="translate(3.53 32.464)" fill="none" stroke="rgba(0,0,0,0.08)" stroke-linecap="round" stroke-miterlimit="10" stroke-width="3"/>
          <path id="Line_105_Copy_2" data-name="Line 105 Copy 2" d="M0,.5H391.3" transform="translate(3.53 -0.417)" fill="none" stroke="rgba(0,0,0,0.08)" stroke-linecap="round" stroke-miterlimit="10" stroke-width="3"/>
          <path id="Line_103" data-name="Line 103" d="M0,.5H391.3" transform="translate(3.53 98.683)" fill="none" stroke="rgba(0,0,0,0.08)" stroke-linecap="round" stroke-miterlimit="10" stroke-width="3"/>
          <path id="Path_5" data-name="Path 5" d="M0,1H2.946" transform="translate(0 97.991)" fill="none" stroke="#bbb" stroke-linecap="round" stroke-miterlimit="10" stroke-width="3"/>
          <path id="Path_5_Copy" data-name="Path 5 Copy" d="M0,1H2.946" transform="translate(0 65.362)" fill="none" stroke="#bbb" stroke-linecap="round" stroke-miterlimit="10" stroke-width="3"/>
          <path id="Path_5_Copy_2" data-name="Path 5 Copy 2" d="M0,1H2.946" transform="translate(0 32.166)" fill="none" stroke="#bbb" stroke-linecap="round" stroke-miterlimit="10" stroke-width="3"/>
          <path id="Path_4" data-name="Path 4" d="M0,0H2.856V131.876" transform="translate(0.121 0)" fill="none" stroke="#c1c1c1" stroke-linecap="round" stroke-miterlimit="10" stroke-width="3"/>
        </g>
      </g>
      <path id="Path_12" data-name="Path 12" d="M0,0" transform="translate(25.134 120.377)" fill="none" stroke="#979797" stroke-linecap="round" stroke-miterlimit="10" stroke-width="3"/>
      <line id="Line_66" data-name="Line 66" x2="35.541" transform="translate(41.008 149.681)" fill="none" stroke="#cecdce" stroke-linecap="round" stroke-width="3"/>
      <line id="Line_67" data-name="Line 67" x2="35.541" transform="translate(118.925 149.681)" fill="none" stroke="#cecdce" stroke-linecap="round" stroke-width="3"/>
      <line id="Line_68" data-name="Line 68" x2="35.541" transform="translate(196.841 149.681)" fill="none" stroke="#cecdce" stroke-linecap="round" stroke-width="3"/>
      <line id="Line_69" data-name="Line 69" x2="35.541" transform="translate(273.39 149.681)" fill="none" stroke="#cecdce" stroke-linecap="round" stroke-width="3"/>
      <line id="Line_70" data-name="Line 70" x2="35.541" transform="translate(351.306 149.681)" fill="none" stroke="#cecdce" stroke-linecap="round" stroke-width="3"/>
      <line id="Line_71" data-name="Line 71" x2="10.936" transform="translate(0 136.012)" fill="none" stroke="#cecdce" stroke-linecap="round" stroke-width="3"/>
      <line id="Line_72" data-name="Line 72" x2="10.936" transform="translate(0 103.205)" fill="none" stroke="#cecdce" stroke-linecap="round" stroke-width="3"/>
      <line id="Line_73" data-name="Line 73" x2="10.936" transform="translate(0 70.398)" fill="none" stroke="#cecdce" stroke-linecap="round" stroke-width="3"/>
      <line id="Line_74" data-name="Line 74" x2="10.936" transform="translate(0 37.591)" fill="none" stroke="#cecdce" stroke-linecap="round" stroke-width="3"/>
      <line id="Line_75" data-name="Line 75" x2="10.936" transform="translate(0 3.417)" fill="none" stroke="#cecdce" stroke-linecap="round" stroke-width="3"/>
    </g>
    <circle id="Ellipse_310" data-name="Ellipse 310" cx="14.5" cy="14.5" r="14.5" transform="translate(22072 -4292)" fill="#e87700"/>
    <path id="Path_466" data-name="Path 466" d="M11.865-11.382a4.431,4.431,0,0,0-1.585-1.176,4.281,4.281,0,0,0-1.543-.294,5.153,5.153,0,0,0-2.089.41A4.781,4.781,0,0,0,5.04-11.309,5.151,5.151,0,0,0,4-9.618a5.8,5.8,0,0,0-.368,2.079A6.393,6.393,0,0,0,4-5.334,5.179,5.179,0,0,0,5.04-3.591,4.837,4.837,0,0,0,6.647-2.436a5.041,5.041,0,0,0,2.089.42,3.839,3.839,0,0,0,1.753-.431,4.786,4.786,0,0,0,1.585-1.375l2.184,1.554A5.95,5.95,0,0,1,11.8-.252a7.658,7.658,0,0,1-3.087.63A8.69,8.69,0,0,1,5.554-.179,7.211,7.211,0,0,1,3.077-1.753,7.236,7.236,0,0,1,1.449-4.2,8.254,8.254,0,0,1,.861-7.371a8.61,8.61,0,0,1,.588-3.245A7.28,7.28,0,0,1,3.077-13.1,7.134,7.134,0,0,1,5.554-14.69a8.69,8.69,0,0,1,3.161-.556,7.247,7.247,0,0,1,2.8.535,6.536,6.536,0,0,1,2.4,1.817ZM15.309-5.04a5.331,5.331,0,0,1,.431-2.173,5.082,5.082,0,0,1,1.166-1.67,5.138,5.138,0,0,1,1.743-1.071,6.05,6.05,0,0,1,2.142-.378,6.05,6.05,0,0,1,2.142.378,5.138,5.138,0,0,1,1.743,1.071,5.082,5.082,0,0,1,1.166,1.67,5.331,5.331,0,0,1,.431,2.173,5.331,5.331,0,0,1-.431,2.174A5.082,5.082,0,0,1,24.675-1.2,5.138,5.138,0,0,1,22.932-.126,6.05,6.05,0,0,1,20.79.252a6.05,6.05,0,0,1-2.142-.378A5.138,5.138,0,0,1,16.905-1.2,5.082,5.082,0,0,1,15.74-2.866,5.331,5.331,0,0,1,15.309-5.04Zm2.52,0a3.279,3.279,0,0,0,.2,1.134,2.846,2.846,0,0,0,.588.966,2.929,2.929,0,0,0,.934.672,2.924,2.924,0,0,0,1.239.252,2.924,2.924,0,0,0,1.239-.252,2.929,2.929,0,0,0,.935-.672,2.846,2.846,0,0,0,.588-.966,3.279,3.279,0,0,0,.2-1.134,3.279,3.279,0,0,0-.2-1.134,2.846,2.846,0,0,0-.588-.966,2.929,2.929,0,0,0-.935-.672,2.924,2.924,0,0,0-1.239-.252,2.924,2.924,0,0,0-1.239.252,2.929,2.929,0,0,0-.934.672,2.846,2.846,0,0,0-.588.966A3.279,3.279,0,0,0,17.829-5.04ZM37.821,0H35.427V-1.617h-.042A3.536,3.536,0,0,1,34.293-.3,3.23,3.23,0,0,1,32.3.252a4.058,4.058,0,0,1-1.712-.326,3.083,3.083,0,0,1-1.145-.882,3.437,3.437,0,0,1-.63-1.271,5.8,5.8,0,0,1-.189-1.491V-10.08h2.52v5.1q0,.42.042.935a3.355,3.355,0,0,0,.22.966,1.847,1.847,0,0,0,.546.756,1.587,1.587,0,0,0,1.04.3,2.406,2.406,0,0,0,1.06-.21,2.038,2.038,0,0,0,.714-.567,2.255,2.255,0,0,0,.41-.819,3.655,3.655,0,0,0,.126-.966v-5.5h2.52Zm2.856-10.08h2.394v1.617h.042a3.536,3.536,0,0,1,1.092-1.312,3.23,3.23,0,0,1,1.995-.557A3.948,3.948,0,0,1,47.911-10a3.235,3.235,0,0,1,1.145.882,3.339,3.339,0,0,1,.63,1.26,5.8,5.8,0,0,1,.189,1.491V0h-2.52V-5.1q0-.42-.042-.934A3.355,3.355,0,0,0,47.092-7a1.809,1.809,0,0,0-.556-.756,1.6,1.6,0,0,0-1.029-.3,2.406,2.406,0,0,0-1.06.21,2.038,2.038,0,0,0-.714.567,2.255,2.255,0,0,0-.41.819A3.655,3.655,0,0,0,43.2-5.5V0h-2.52ZM51.555-7.938V-10.08h2.079V-13h2.52v2.919h2.772v2.142H56.154v4.41a2.195,2.195,0,0,0,.283,1.2,1.241,1.241,0,0,0,1.124.441,4.079,4.079,0,0,0,.735-.073,1.54,1.54,0,0,0,.63-.241V-.084a3.242,3.242,0,0,1-.977.263,8.181,8.181,0,0,1-1.019.073A5.156,5.156,0,0,1,55.283.032a2.175,2.175,0,0,1-1.008-.672,2.552,2.552,0,0,1-.5-1.123,7.871,7.871,0,0,1-.136-1.554v-4.62Z" transform="translate(22115 -4271)" fill="#555"/>
    <circle id="Ellipse_311" data-name="Ellipse 311" cx="14.5" cy="14.5" r="14.5" transform="translate(22194 -4292)" fill="#26836d"/>
    <path id="Path_467" data-name="Path 467" d="M11.865-11.382a4.431,4.431,0,0,0-1.585-1.176,4.281,4.281,0,0,0-1.543-.294,5.153,5.153,0,0,0-2.089.41A4.781,4.781,0,0,0,5.04-11.309,5.151,5.151,0,0,0,4-9.618a5.8,5.8,0,0,0-.368,2.079A6.393,6.393,0,0,0,4-5.334,5.179,5.179,0,0,0,5.04-3.591,4.837,4.837,0,0,0,6.647-2.436a5.041,5.041,0,0,0,2.089.42,3.839,3.839,0,0,0,1.753-.431,4.786,4.786,0,0,0,1.585-1.375l2.184,1.554A5.95,5.95,0,0,1,11.8-.252a7.658,7.658,0,0,1-3.087.63A8.69,8.69,0,0,1,5.554-.179,7.211,7.211,0,0,1,3.077-1.753,7.236,7.236,0,0,1,1.449-4.2,8.254,8.254,0,0,1,.861-7.371a8.61,8.61,0,0,1,.588-3.245A7.28,7.28,0,0,1,3.077-13.1,7.134,7.134,0,0,1,5.554-14.69a8.69,8.69,0,0,1,3.161-.556,7.247,7.247,0,0,1,2.8.535,6.536,6.536,0,0,1,2.4,1.817ZM15.309-5.04a5.331,5.331,0,0,1,.431-2.173,5.082,5.082,0,0,1,1.166-1.67,5.138,5.138,0,0,1,1.743-1.071,6.05,6.05,0,0,1,2.142-.378,6.05,6.05,0,0,1,2.142.378,5.138,5.138,0,0,1,1.743,1.071,5.082,5.082,0,0,1,1.166,1.67,5.331,5.331,0,0,1,.431,2.173,5.331,5.331,0,0,1-.431,2.174A5.082,5.082,0,0,1,24.675-1.2,5.138,5.138,0,0,1,22.932-.126,6.05,6.05,0,0,1,20.79.252a6.05,6.05,0,0,1-2.142-.378A5.138,5.138,0,0,1,16.905-1.2,5.082,5.082,0,0,1,15.74-2.866,5.331,5.331,0,0,1,15.309-5.04Zm2.52,0a3.279,3.279,0,0,0,.2,1.134,2.846,2.846,0,0,0,.588.966,2.929,2.929,0,0,0,.934.672,2.924,2.924,0,0,0,1.239.252,2.924,2.924,0,0,0,1.239-.252,2.929,2.929,0,0,0,.935-.672,2.846,2.846,0,0,0,.588-.966,3.279,3.279,0,0,0,.2-1.134,3.279,3.279,0,0,0-.2-1.134,2.846,2.846,0,0,0-.588-.966,2.929,2.929,0,0,0-.935-.672,2.924,2.924,0,0,0-1.239-.252,2.924,2.924,0,0,0-1.239.252,2.929,2.929,0,0,0-.934.672,2.846,2.846,0,0,0-.588.966A3.279,3.279,0,0,0,17.829-5.04ZM37.821,0H35.427V-1.617h-.042A3.536,3.536,0,0,1,34.293-.3,3.23,3.23,0,0,1,32.3.252a4.058,4.058,0,0,1-1.712-.326,3.083,3.083,0,0,1-1.145-.882,3.437,3.437,0,0,1-.63-1.271,5.8,5.8,0,0,1-.189-1.491V-10.08h2.52v5.1q0,.42.042.935a3.355,3.355,0,0,0,.22.966,1.847,1.847,0,0,0,.546.756,1.587,1.587,0,0,0,1.04.3,2.406,2.406,0,0,0,1.06-.21,2.038,2.038,0,0,0,.714-.567,2.255,2.255,0,0,0,.41-.819,3.655,3.655,0,0,0,.126-.966v-5.5h2.52Zm2.856-10.08h2.394v1.617h.042a3.536,3.536,0,0,1,1.092-1.312,3.23,3.23,0,0,1,1.995-.557A3.948,3.948,0,0,1,47.911-10a3.235,3.235,0,0,1,1.145.882,3.339,3.339,0,0,1,.63,1.26,5.8,5.8,0,0,1,.189,1.491V0h-2.52V-5.1q0-.42-.042-.934A3.355,3.355,0,0,0,47.092-7a1.809,1.809,0,0,0-.556-.756,1.6,1.6,0,0,0-1.029-.3,2.406,2.406,0,0,0-1.06.21,2.038,2.038,0,0,0-.714.567,2.255,2.255,0,0,0-.41.819A3.655,3.655,0,0,0,43.2-5.5V0h-2.52ZM51.555-7.938V-10.08h2.079V-13h2.52v2.919h2.772v2.142H56.154v4.41a2.195,2.195,0,0,0,.283,1.2,1.241,1.241,0,0,0,1.124.441,4.079,4.079,0,0,0,.735-.073,1.54,1.54,0,0,0,.63-.241V-.084a3.242,3.242,0,0,1-.977.263,8.181,8.181,0,0,1-1.019.073A5.156,5.156,0,0,1,55.283.032a2.175,2.175,0,0,1-1.008-.672,2.552,2.552,0,0,1-.5-1.123,7.871,7.871,0,0,1-.136-1.554v-4.62Zm15.792-6.93h2.646V-2.394h6.321V0H67.347ZM84.315-1.386h-.063a3.245,3.245,0,0,1-1.386,1.25,4.349,4.349,0,0,1-1.848.389A4.906,4.906,0,0,1,79.663.063,3.669,3.669,0,0,1,78.487-.5a2.913,2.913,0,0,1-.829-.945,2.68,2.68,0,0,1-.315-1.323,3.049,3.049,0,0,1,.294-1.4,2.868,2.868,0,0,1,.787-.966,3.991,3.991,0,0,1,1.145-.619A7.84,7.84,0,0,1,80.924-6.1a12.009,12.009,0,0,1,1.417-.147q.714-.031,1.344-.031h.63v-.273a1.637,1.637,0,0,0-.651-1.418A2.753,2.753,0,0,0,82-8.442a3.9,3.9,0,0,0-1.491.284,3.775,3.775,0,0,0-1.2.766L77.994-8.715a4.885,4.885,0,0,1,1.964-1.239,7.229,7.229,0,0,1,2.321-.378,5.843,5.843,0,0,1,1.806.242,3.973,3.973,0,0,1,1.218.62,2.739,2.739,0,0,1,.745.872,4.046,4.046,0,0,1,.378,1,5.456,5.456,0,0,1,.136.977q.021.472.021.829V0H84.315Zm-.147-3.129h-.525q-.525,0-1.176.042a6.17,6.17,0,0,0-1.229.2,2.809,2.809,0,0,0-.976.462,1.009,1.009,0,0,0-.4.851,1.073,1.073,0,0,0,.158.6,1.426,1.426,0,0,0,.41.409A1.715,1.715,0,0,0,81-1.712a2.764,2.764,0,0,0,.63.074,2.62,2.62,0,0,0,1.922-.619,2.284,2.284,0,0,0,.619-1.691Zm10.5-2.772a2.306,2.306,0,0,0-1.974-1.029,2.111,2.111,0,0,0-.987.252.857.857,0,0,0-.483.819.706.706,0,0,0,.4.672,4.4,4.4,0,0,0,1.008.357q.609.147,1.313.3a5.162,5.162,0,0,1,1.313.483,2.872,2.872,0,0,1,1.008.892,2.66,2.66,0,0,1,.4,1.554,2.812,2.812,0,0,1-.388,1.523,3.051,3.051,0,0,1-1.008,1,4.474,4.474,0,0,1-1.4.546,7.334,7.334,0,0,1-1.554.168,6.675,6.675,0,0,1-2.163-.336A4.108,4.108,0,0,1,88.389-1.3l1.68-1.575a4.732,4.732,0,0,0,1.039.892,2.514,2.514,0,0,0,1.354.346A2.7,2.7,0,0,0,93.03-1.7a1.842,1.842,0,0,0,.546-.21,1.3,1.3,0,0,0,.41-.367.862.862,0,0,0,.158-.515.854.854,0,0,0-.4-.777,3.555,3.555,0,0,0-1.008-.41q-.609-.158-1.312-.294a5.085,5.085,0,0,1-1.312-.441,2.758,2.758,0,0,1-1.008-.85,2.52,2.52,0,0,1-.4-1.512,2.942,2.942,0,0,1,.347-1.459,3.045,3.045,0,0,1,.913-1.019,3.947,3.947,0,0,1,1.3-.588,5.964,5.964,0,0,1,1.491-.189,5.985,5.985,0,0,1,2,.347,3.259,3.259,0,0,1,1.6,1.186Zm2.772-.651V-10.08h2.079V-13h2.52v2.919h2.772v2.142h-2.772v4.41a2.195,2.195,0,0,0,.284,1.2,1.241,1.241,0,0,0,1.124.441,4.079,4.079,0,0,0,.735-.073,1.54,1.54,0,0,0,.63-.241V-.084a3.242,3.242,0,0,1-.977.263,8.181,8.181,0,0,1-1.019.073,5.156,5.156,0,0,1-1.648-.221,2.175,2.175,0,0,1-1.008-.672,2.552,2.552,0,0,1-.5-1.123,7.871,7.871,0,0,1-.136-1.554v-4.62Zm19.425,1.575-5.586-8.505H114.6l3.654,5.922,3.7-5.922h3.15l-5.586,8.505V0h-2.646Zm9.45,2.2a2.56,2.56,0,0,0,.882,1.764,2.76,2.76,0,0,0,1.827.63,3.007,3.007,0,0,0,1.585-.388,4.4,4.4,0,0,0,1.124-.977l1.806,1.365A5.118,5.118,0,0,1,131.565-.21a5.816,5.816,0,0,1-2.289.462,6.05,6.05,0,0,1-2.142-.378A5.138,5.138,0,0,1,125.391-1.2a5.082,5.082,0,0,1-1.165-1.669,5.331,5.331,0,0,1-.43-2.174,5.331,5.331,0,0,1,.43-2.173,5.082,5.082,0,0,1,1.165-1.67,5.138,5.138,0,0,1,1.743-1.071,6.05,6.05,0,0,1,2.142-.378,4.9,4.9,0,0,1,1.922.368A4.121,4.121,0,0,1,132.689-8.9a4.9,4.9,0,0,1,.966,1.712A7.261,7.261,0,0,1,134-4.851v.693Zm5.166-1.89a2.373,2.373,0,0,0-.693-1.753,2.6,2.6,0,0,0-1.869-.641,2.448,2.448,0,0,0-1.8.651,2.905,2.905,0,0,0-.809,1.743Zm11.172,4.662h-.063A3.245,3.245,0,0,1,141.2-.137a4.349,4.349,0,0,1-1.848.389A4.906,4.906,0,0,1,138,.063,3.669,3.669,0,0,1,136.826-.5,2.913,2.913,0,0,1,136-1.449a2.68,2.68,0,0,1-.315-1.323,3.049,3.049,0,0,1,.294-1.4,2.868,2.868,0,0,1,.787-.966,3.991,3.991,0,0,1,1.145-.619,7.84,7.84,0,0,1,1.355-.346,12.009,12.009,0,0,1,1.417-.147q.714-.031,1.344-.031h.63v-.273A1.637,1.637,0,0,0,142-7.97a2.753,2.753,0,0,0-1.659-.473,3.9,3.9,0,0,0-1.491.284,3.775,3.775,0,0,0-1.2.766l-1.323-1.323A4.885,4.885,0,0,1,138.3-9.954a7.229,7.229,0,0,1,2.32-.378,5.843,5.843,0,0,1,1.806.242,3.973,3.973,0,0,1,1.218.62,2.739,2.739,0,0,1,.745.872,4.046,4.046,0,0,1,.378,1,5.457,5.457,0,0,1,.137.977q.021.472.021.829V0h-2.268Zm-.147-3.129h-.525q-.525,0-1.176.042a6.17,6.17,0,0,0-1.229.2,2.81,2.81,0,0,0-.977.462,1.009,1.009,0,0,0-.4.851,1.073,1.073,0,0,0,.158.6,1.426,1.426,0,0,0,.41.409,1.715,1.715,0,0,0,.567.242,2.764,2.764,0,0,0,.63.074,2.62,2.62,0,0,0,1.922-.619,2.284,2.284,0,0,0,.619-1.691Zm5.124-5.565h2.52v1.6h.042a3.166,3.166,0,0,1,1.2-1.365,3.311,3.311,0,0,1,1.785-.483,2.407,2.407,0,0,1,.451.042q.221.042.452.1v2.436q-.315-.084-.62-.137a3.518,3.518,0,0,0-.6-.052,2.707,2.707,0,0,0-1.417.325,2.583,2.583,0,0,0-.819.746,2.479,2.479,0,0,0-.378.84,3.166,3.166,0,0,0-.094.63V0h-2.52Z" transform="translate(22236 -4271)" fill="#555"/>
    <path id="Path_465" data-name="Path 465" d="M10.972-13.91a2.889,2.889,0,0,0-1.339-.923,4.8,4.8,0,0,0-1.6-.3,4.19,4.19,0,0,0-.91.1,3.488,3.488,0,0,0-.884.325,1.927,1.927,0,0,0-.676.585,1.481,1.481,0,0,0-.26.884,1.465,1.465,0,0,0,.624,1.274,5.909,5.909,0,0,0,1.573.754q.949.312,2.041.624a8.41,8.41,0,0,1,2.041.884,4.832,4.832,0,0,1,1.573,1.534A4.675,4.675,0,0,1,13.78-5.59a5.918,5.918,0,0,1-.572,2.678,5.434,5.434,0,0,1-1.547,1.9A6.583,6.583,0,0,1,9.4.1,9.938,9.938,0,0,1,6.682.468,9.857,9.857,0,0,1,3.354-.078,8.34,8.34,0,0,1,.494-1.846L3.38-5.018A4.213,4.213,0,0,0,4.953-3.731a4.49,4.49,0,0,0,1.963.455,4.441,4.441,0,0,0,1-.117,3.261,3.261,0,0,0,.91-.351,1.962,1.962,0,0,0,.65-.6A1.491,1.491,0,0,0,9.724-5.2a1.557,1.557,0,0,0-.637-1.313,5.871,5.871,0,0,0-1.6-.819q-.962-.338-2.08-.676a9.341,9.341,0,0,1-2.08-.91,5.013,5.013,0,0,1-1.6-1.508,4.315,4.315,0,0,1-.637-2.47,5.53,5.53,0,0,1,.585-2.6,5.641,5.641,0,0,1,1.56-1.872A6.782,6.782,0,0,1,5.486-18.5a9.206,9.206,0,0,1,2.626-.377,10.325,10.325,0,0,1,3.016.442,6.956,6.956,0,0,1,2.626,1.482ZM32.318-7.1a8.878,8.878,0,0,1-.494,3.016A6.637,6.637,0,0,1,30.355-1.69,6.729,6.729,0,0,1,27.924-.1,9.128,9.128,0,0,1,24.57.468,9.206,9.206,0,0,1,21.19-.1,6.729,6.729,0,0,1,18.759-1.69,6.637,6.637,0,0,1,17.29-4.082,8.878,8.878,0,0,1,16.8-7.1v-11.31h4.056V-7.254a4.482,4.482,0,0,0,.273,1.586,3.789,3.789,0,0,0,.767,1.261,3.483,3.483,0,0,0,1.183.832,3.715,3.715,0,0,0,1.495.3,3.623,3.623,0,0,0,1.482-.3,3.517,3.517,0,0,0,1.17-.832,3.789,3.789,0,0,0,.767-1.261,4.482,4.482,0,0,0,.273-1.586V-18.408h4.056ZM48.1-13.624a3.978,3.978,0,0,0-1.469-1.118,4.888,4.888,0,0,0-2.015-.39,5.071,5.071,0,0,0-2.119.442,5.07,5.07,0,0,0-1.69,1.235,5.756,5.756,0,0,0-1.118,1.885,6.782,6.782,0,0,0-.4,2.366,6.751,6.751,0,0,0,.4,2.379,5.912,5.912,0,0,0,1.1,1.872,5.008,5.008,0,0,0,1.651,1.235,4.774,4.774,0,0,0,2.041.442A4.574,4.574,0,0,0,46.7-3.8a4.4,4.4,0,0,0,1.586-1.456l3.38,2.522A7.039,7.039,0,0,1,48.7-.312a9.171,9.171,0,0,1-3.692.78,11.341,11.341,0,0,1-3.978-.676,9.106,9.106,0,0,1-3.146-1.937A8.782,8.782,0,0,1,35.815-5.2a10.4,10.4,0,0,1-.741-4,10.4,10.4,0,0,1,.741-4,8.782,8.782,0,0,1,2.067-3.055A9.106,9.106,0,0,1,41.028-18.2a11.341,11.341,0,0,1,3.978-.676,9.741,9.741,0,0,1,1.625.143,8.78,8.78,0,0,1,1.664.455,7.415,7.415,0,0,1,1.573.832,6.256,6.256,0,0,1,1.352,1.274Zm17.81,0a3.978,3.978,0,0,0-1.469-1.118,4.888,4.888,0,0,0-2.015-.39,5.071,5.071,0,0,0-2.119.442,5.07,5.07,0,0,0-1.69,1.235A5.756,5.756,0,0,0,57.5-11.57,6.782,6.782,0,0,0,57.1-9.2a6.751,6.751,0,0,0,.4,2.379,5.912,5.912,0,0,0,1.1,1.872,5.008,5.008,0,0,0,1.651,1.235,4.774,4.774,0,0,0,2.041.442,4.574,4.574,0,0,0,2.21-.52,4.4,4.4,0,0,0,1.586-1.456l3.38,2.522A7.039,7.039,0,0,1,66.508-.312a9.171,9.171,0,0,1-3.692.78,11.341,11.341,0,0,1-3.978-.676,9.106,9.106,0,0,1-3.146-1.937A8.782,8.782,0,0,1,53.625-5.2a10.4,10.4,0,0,1-.741-4,10.4,10.4,0,0,1,.741-4,8.782,8.782,0,0,1,2.067-3.055A9.106,9.106,0,0,1,58.838-18.2a11.341,11.341,0,0,1,3.978-.676,9.741,9.741,0,0,1,1.625.143,8.78,8.78,0,0,1,1.664.455,7.416,7.416,0,0,1,1.573.832,6.256,6.256,0,0,1,1.352,1.274Zm5.928-4.784H84.344v3.744h-8.45v3.432h7.982v3.744H75.894v3.744h8.918V0H71.838Zm25.324,4.5a2.889,2.889,0,0,0-1.339-.923,4.8,4.8,0,0,0-1.6-.3,4.19,4.19,0,0,0-.91.1,3.488,3.488,0,0,0-.884.325,1.927,1.927,0,0,0-.676.585,1.481,1.481,0,0,0-.26.884,1.465,1.465,0,0,0,.624,1.274,5.909,5.909,0,0,0,1.573.754q.949.312,2.041.624a8.41,8.41,0,0,1,2.041.884,4.832,4.832,0,0,1,1.573,1.534A4.675,4.675,0,0,1,99.97-5.59,5.918,5.918,0,0,1,99.4-2.912a5.434,5.434,0,0,1-1.547,1.9A6.583,6.583,0,0,1,95.589.1a9.938,9.938,0,0,1-2.717.364,9.857,9.857,0,0,1-3.328-.546,8.339,8.339,0,0,1-2.86-1.768L89.57-5.018a4.213,4.213,0,0,0,1.573,1.287,4.49,4.49,0,0,0,1.963.455,4.441,4.441,0,0,0,1-.117,3.261,3.261,0,0,0,.91-.351,1.962,1.962,0,0,0,.65-.6,1.491,1.491,0,0,0,.247-.858,1.557,1.557,0,0,0-.637-1.313,5.871,5.871,0,0,0-1.6-.819q-.962-.338-2.08-.676a9.341,9.341,0,0,1-2.08-.91,5.013,5.013,0,0,1-1.6-1.508,4.315,4.315,0,0,1-.637-2.47,5.53,5.53,0,0,1,.585-2.6,5.641,5.641,0,0,1,1.56-1.872A6.782,6.782,0,0,1,91.676-18.5a9.206,9.206,0,0,1,2.626-.377,10.325,10.325,0,0,1,3.016.442,6.956,6.956,0,0,1,2.626,1.482Zm14.924,0a2.889,2.889,0,0,0-1.339-.923,4.8,4.8,0,0,0-1.6-.3,4.19,4.19,0,0,0-.91.1,3.488,3.488,0,0,0-.884.325,1.927,1.927,0,0,0-.676.585,1.481,1.481,0,0,0-.26.884,1.465,1.465,0,0,0,.624,1.274,5.909,5.909,0,0,0,1.573.754q.949.312,2.041.624A8.41,8.41,0,0,1,112.7-9.7a4.832,4.832,0,0,1,1.573,1.534,4.675,4.675,0,0,1,.624,2.574,5.918,5.918,0,0,1-.572,2.678,5.434,5.434,0,0,1-1.547,1.9A6.583,6.583,0,0,1,110.513.1,9.938,9.938,0,0,1,107.8.468a9.857,9.857,0,0,1-3.328-.546,8.339,8.339,0,0,1-2.86-1.768l2.886-3.172a4.213,4.213,0,0,0,1.573,1.287,4.49,4.49,0,0,0,1.963.455,4.441,4.441,0,0,0,1-.117,3.261,3.261,0,0,0,.91-.351,1.962,1.962,0,0,0,.65-.6,1.491,1.491,0,0,0,.247-.858,1.557,1.557,0,0,0-.637-1.313,5.871,5.871,0,0,0-1.6-.819q-.962-.338-2.08-.676a9.341,9.341,0,0,1-2.08-.91,5.013,5.013,0,0,1-1.6-1.508,4.315,4.315,0,0,1-.637-2.47,5.53,5.53,0,0,1,.585-2.6,5.641,5.641,0,0,1,1.56-1.872A6.782,6.782,0,0,1,106.6-18.5a9.206,9.206,0,0,1,2.626-.377,10.325,10.325,0,0,1,3.016.442,6.956,6.956,0,0,1,2.626,1.482Zm5.98-4.5h12.35v3.744h-8.294v3.744h7.67v3.744h-7.67V0h-4.056ZM148.85-7.1a8.878,8.878,0,0,1-.494,3.016,6.637,6.637,0,0,1-1.469,2.392A6.729,6.729,0,0,1,144.456-.1,9.128,9.128,0,0,1,141.1.468a9.206,9.206,0,0,1-3.38-.572,6.729,6.729,0,0,1-2.431-1.586,6.637,6.637,0,0,1-1.469-2.392,8.878,8.878,0,0,1-.494-3.016v-11.31h4.056V-7.254a4.482,4.482,0,0,0,.273,1.586,3.789,3.789,0,0,0,.767,1.261,3.483,3.483,0,0,0,1.183.832,3.715,3.715,0,0,0,1.495.3,3.623,3.623,0,0,0,1.482-.3,3.517,3.517,0,0,0,1.17-.832,3.789,3.789,0,0,0,.767-1.261,4.482,4.482,0,0,0,.273-1.586V-18.408h4.056Zm3.9-11.31h4.056V-3.744h7.514V0H152.75Zm25.064,3.588h-5.252v-3.588h14.56v3.588H181.87V0h-4.056Zm11.362-3.588H196.3a12.57,12.57,0,0,1,2.665.273,6.323,6.323,0,0,1,2.21.91,4.535,4.535,0,0,1,1.508,1.716,5.811,5.811,0,0,1,.559,2.691A5.4,5.4,0,0,1,202.228-9.5a4.565,4.565,0,0,1-2.964,1.729L203.944,0h-4.862l-3.848-7.358h-2V0h-4.056Zm4.056,7.618h2.392q.546,0,1.157-.039a3.624,3.624,0,0,0,1.1-.234,1.911,1.911,0,0,0,.819-.611,1.86,1.86,0,0,0,.325-1.17,1.943,1.943,0,0,0-.286-1.118,1.907,1.907,0,0,0-.728-.637A3.23,3.23,0,0,0,197-14.9a8.271,8.271,0,0,0-1.118-.078h-2.652Zm18.85-7.618h3.354L223.444,0h-4.576l-1.586-3.9h-7.15L208.6,0h-4.472Zm1.56,5.356-2.236,5.72h4.5Zm11.648-5.356H230.8l7.826,12.792h.052V-18.408h4.056V0h-5.3L229.4-13.1h-.052V0H225.29Zm30.29,4.5a2.889,2.889,0,0,0-1.339-.923,4.8,4.8,0,0,0-1.6-.3,4.19,4.19,0,0,0-.91.1,3.488,3.488,0,0,0-.884.325,1.927,1.927,0,0,0-.676.585,1.481,1.481,0,0,0-.26.884,1.465,1.465,0,0,0,.624,1.274,5.909,5.909,0,0,0,1.573.754q.949.312,2.041.624a8.41,8.41,0,0,1,2.041.884,4.832,4.832,0,0,1,1.573,1.534,4.676,4.676,0,0,1,.624,2.574,5.918,5.918,0,0,1-.572,2.678,5.434,5.434,0,0,1-1.547,1.9A6.583,6.583,0,0,1,254.007.1a9.938,9.938,0,0,1-2.717.364,9.856,9.856,0,0,1-3.328-.546,8.34,8.34,0,0,1-2.86-1.768l2.886-3.172a4.213,4.213,0,0,0,1.573,1.287,4.49,4.49,0,0,0,1.963.455,4.441,4.441,0,0,0,1-.117,3.26,3.26,0,0,0,.91-.351,1.963,1.963,0,0,0,.65-.6,1.491,1.491,0,0,0,.247-.858,1.557,1.557,0,0,0-.637-1.313,5.871,5.871,0,0,0-1.6-.819q-.962-.338-2.08-.676a9.34,9.34,0,0,1-2.08-.91,5.013,5.013,0,0,1-1.6-1.508,4.315,4.315,0,0,1-.637-2.47,5.53,5.53,0,0,1,.585-2.6,5.64,5.64,0,0,1,1.56-1.872,6.782,6.782,0,0,1,2.249-1.131,9.206,9.206,0,0,1,2.626-.377,10.325,10.325,0,0,1,3.016.442,6.956,6.956,0,0,1,2.626,1.482Zm11.882-4.5h3.354L278.824,0h-4.576l-1.586-3.9h-7.15L263.978,0h-4.472Zm1.56,5.356-2.236,5.72h4.5Zm23.686-.572a3.978,3.978,0,0,0-1.469-1.118,4.888,4.888,0,0,0-2.015-.39,5.071,5.071,0,0,0-2.119.442,5.07,5.07,0,0,0-1.69,1.235A5.756,5.756,0,0,0,284.3-11.57a6.782,6.782,0,0,0-.4,2.366,6.752,6.752,0,0,0,.4,2.379A5.913,5.913,0,0,0,285.4-4.953a5.008,5.008,0,0,0,1.651,1.235,4.774,4.774,0,0,0,2.041.442,4.574,4.574,0,0,0,2.21-.52,4.4,4.4,0,0,0,1.586-1.456l3.38,2.522a7.039,7.039,0,0,1-2.964,2.418,9.171,9.171,0,0,1-3.692.78,11.341,11.341,0,0,1-3.978-.676,9.106,9.106,0,0,1-3.146-1.937A8.781,8.781,0,0,1,280.423-5.2a10.4,10.4,0,0,1-.741-4,10.4,10.4,0,0,1,.741-4,8.781,8.781,0,0,1,2.067-3.055,9.106,9.106,0,0,1,3.146-1.937,11.341,11.341,0,0,1,3.978-.676,9.741,9.741,0,0,1,1.625.143,8.78,8.78,0,0,1,1.664.455,7.415,7.415,0,0,1,1.573.832,6.256,6.256,0,0,1,1.352,1.274Zm9.334-1.2H296.79v-3.588h14.56v3.588H306.1V0h-4.056Zm11.31-3.588h4.056V0h-4.056Zm6.76,9.2a10.4,10.4,0,0,1,.741-4,8.781,8.781,0,0,1,2.067-3.055,9.106,9.106,0,0,1,3.146-1.937,11.341,11.341,0,0,1,3.978-.676,11.341,11.341,0,0,1,3.978.676,9.106,9.106,0,0,1,3.146,1.937,8.781,8.781,0,0,1,2.067,3.055,10.4,10.4,0,0,1,.741,4,10.4,10.4,0,0,1-.741,4,8.781,8.781,0,0,1-2.067,3.055,9.106,9.106,0,0,1-3.146,1.937,11.341,11.341,0,0,1-3.978.676,11.341,11.341,0,0,1-3.978-.676,9.106,9.106,0,0,1-3.146-1.937A8.781,8.781,0,0,1,320.853-5.2,10.4,10.4,0,0,1,320.112-9.2Zm4.212,0a6.752,6.752,0,0,0,.4,2.379,5.449,5.449,0,0,0,1.157,1.872,5.281,5.281,0,0,0,1.807,1.235,6.024,6.024,0,0,0,2.353.442,6.024,6.024,0,0,0,2.353-.442A5.281,5.281,0,0,0,334.2-4.953a5.449,5.449,0,0,0,1.157-1.872,6.751,6.751,0,0,0,.4-2.379,6.782,6.782,0,0,0-.4-2.366,5.425,5.425,0,0,0-1.157-1.885A5.281,5.281,0,0,0,332.4-14.69a6.024,6.024,0,0,0-2.353-.442,6.024,6.024,0,0,0-2.353.442,5.281,5.281,0,0,0-1.807,1.235,5.425,5.425,0,0,0-1.157,1.885A6.782,6.782,0,0,0,324.324-9.2Zm18.408-9.2h5.512L356.07-5.616h.052V-18.408h4.056V0h-5.3L346.84-13.1h-.052V0h-4.056Zm30.29,4.5a2.888,2.888,0,0,0-1.339-.923,4.8,4.8,0,0,0-1.6-.3,4.19,4.19,0,0,0-.91.1,3.488,3.488,0,0,0-.884.325,1.927,1.927,0,0,0-.676.585,1.481,1.481,0,0,0-.26.884,1.465,1.465,0,0,0,.624,1.274,5.909,5.909,0,0,0,1.573.754q.949.312,2.041.624a8.41,8.41,0,0,1,2.041.884,4.832,4.832,0,0,1,1.573,1.534,4.676,4.676,0,0,1,.624,2.574,5.918,5.918,0,0,1-.572,2.678,5.434,5.434,0,0,1-1.547,1.9A6.583,6.583,0,0,1,371.449.1a9.938,9.938,0,0,1-2.717.364A9.856,9.856,0,0,1,365.4-.078a8.34,8.34,0,0,1-2.86-1.768l2.886-3.172A4.213,4.213,0,0,0,367-3.731a4.49,4.49,0,0,0,1.963.455,4.441,4.441,0,0,0,1-.117,3.26,3.26,0,0,0,.91-.351,1.962,1.962,0,0,0,.65-.6,1.491,1.491,0,0,0,.247-.858,1.557,1.557,0,0,0-.637-1.313,5.871,5.871,0,0,0-1.6-.819q-.962-.338-2.08-.676a9.341,9.341,0,0,1-2.08-.91,5.013,5.013,0,0,1-1.6-1.508,4.315,4.315,0,0,1-.637-2.47,5.53,5.53,0,0,1,.585-2.6,5.64,5.64,0,0,1,1.56-1.872,6.782,6.782,0,0,1,2.249-1.131,9.206,9.206,0,0,1,2.626-.377,10.325,10.325,0,0,1,3.016.442,6.956,6.956,0,0,1,2.626,1.482Z" transform="translate(22068 -4511)" fill="#555"/>
    <g id="Group_291" data-name="Group 291" transform="translate(19968 -5757)">
      <rect id="Rectangle_1182" data-name="Rectangle 1182" width="69" height="25" transform="translate(2186 1346) rotate(90)" fill="#378f7b"/>
      <rect id="Rectangle_1183" data-name="Rectangle 1183" width="59" height="25" transform="translate(2156 1356) rotate(90)" fill="#e87700"/>
    </g>
    <g id="Group_292" data-name="Group 292" transform="translate(20278 -5757)">
      <rect id="Rectangle_1182-2" data-name="Rectangle 1182" width="47" height="25" transform="translate(2186 1368) rotate(90)" fill="#378f7b"/>
      <rect id="Rectangle_1183-2" data-name="Rectangle 1183" width="54" height="25" transform="translate(2156 1361) rotate(90)" fill="#e87700"/>
    </g>
    <g id="Group_293" data-name="Group 293" transform="translate(20201 -5757)">
      <rect id="Rectangle_1182-3" data-name="Rectangle 1182" width="36" height="25" transform="translate(2186 1379) rotate(90)" fill="#378f7b"/>
      <rect id="Rectangle_1183-3" data-name="Rectangle 1183" width="45" height="25" transform="translate(2156 1370) rotate(90)" fill="#e87700"/>
    </g>
    <g id="Group_294" data-name="Group 294" transform="translate(20123 -5757)">
      <rect id="Rectangle_1182-4" data-name="Rectangle 1182" width="63" height="25" transform="translate(2186 1352) rotate(90)" fill="#378f7b"/>
      <rect id="Rectangle_1183-4" data-name="Rectangle 1183" width="101" height="25" transform="translate(2156 1314) rotate(90)" fill="#e87700"/>
    </g>
    <g id="Group_295" data-name="Group 295" transform="translate(20046 -5757)">
      <rect id="Rectangle_1182-5" data-name="Rectangle 1182" width="90" height="25" transform="translate(2186 1325) rotate(90)" fill="#378f7b"/>
      <rect id="Rectangle_1183-5" data-name="Rectangle 1183" width="83" height="25" transform="translate(2156 1332) rotate(90)" fill="#e87700"/>
    </g>
  </g>
</svg>
